<?xml version="1.0" standalone="no"?>
<!DOCTYPE svg PUBLIC "-//W3C//DTD SVG 1.1//EN" "http://www.w3.org/Graphics/SVG/1.1/DTD/svg11.dtd" >
<svg xmlns="http://www.w3.org/2000/svg" xmlns:xlink="http://www.w3.org/1999/xlink" version="1.1">
<metadata>
Created by FontForge 20170731 at Sun Jul 12 09:15:11 2015
 By Aleksey,,,
Copyright (c) 2014 by Abjad / Ali Almasri. All rights reserved.
</metadata>
<defs>
<font id="Swissra-Normal" horiz-adv-x="0" >
  <font-face 
    font-family="Swissra Normal"
    font-weight="400"
    font-stretch="normal"
    units-per-em="1000"
    panose-1="0 0 0 0 0 0 0 0 0 0"
    ascent="664"
    descent="-336"
    bbox="-163 -549 1571 1092"
    underline-thickness="24"
    underline-position="-109"
    unicode-range="U+000D-FEFC"
  />
<missing-glyph horiz-adv-x="499" 
d="M499 699v-699h-499v699h499zM450 48v601h-402v-601h402zM219 228h-7q0 5 -1 8t-1 9v20q0 7 2 21t4 21q3 11 6 18q10 20 25 35q11 11 31 33q15 17 27 33t12 36q0 16 -6 31t-15 27q-8 11 -23 19q-13 7 -30 7q-20 0 -33 -7q-14 -8 -23 -21q-9 -14 -15 -30q-5 -15 -7 -33
l-48 7q3 29 12 53q9 25 25 42q16 18 40 28q23 10 55 10q30 0 51 -10q23 -11 38 -27q15 -17 24 -40q9 -24 9 -51q0 -24 -6 -42q-6 -19 -16 -33q-12 -17 -22 -27q-8 -8 -24 -22q-12 -11 -21 -21q-8 -10 -13 -24q-1 -6 -3 -15q-2 -12 -2 -19v-21v-15h-45zM209 114v65h55v-65
h-55z" />
    <glyph glyph-name="uniFB50" unicode="&#x671;" horiz-adv-x="215" arabic-form="isolated" 
d="M162 947l-2 -3q39 0 53 -21q14 -22 14 -53v-52h-205v36h28q6 15 20 34q12 16 27 30q14 13 32 21t33 8zM187 853l-1 16q-2 19 -10 27q-10 10 -24 10q-23 0 -38 -18q-16 -19 -23 -35h96zM62 -3v715h85v-715h-85z" />
    <glyph glyph-name="uniFB51" unicode="&#x671;" horiz-adv-x="240" arabic-form="final" 
d="M171 947l-2 -3q39 0 53 -21q14 -22 14 -53v-52h-205v36h28q6 15 20 34q12 16 27 30q14 13 32 21t33 8zM196 853l-1 16q-2 19 -10 27q-10 10 -24 10q-23 0 -38 -18q-16 -19 -23 -35h96zM237 78h1q6 0 14 -2q6 -2 6 -12v-56q0 -11 -21 -11h-175v715h85v-634h90z" />
    <glyph glyph-name="uniFB56" unicode="&#x67e;" horiz-adv-x="970" arabic-form="isolated" 
d="M424 -60h55v-76h-55v76zM535 -60h55v-76h-55v76zM480 -159h55v-77h-55v77zM820 81l-1 346h85v-426h-646q-44 0 -81 12t-66 39q-28 27 -45 71q-16 42 -16 108v67h78v-68q0 -77 33 -113t98 -36h561z" />
    <glyph glyph-name="uniFB57" unicode="&#x67e;" horiz-adv-x="1056" arabic-form="final" 
d="M421 -60h55v-76h-55v76zM532 -60h55v-76h-55v76zM477 -159h55v-77h-55v77zM1022 0l-2 -1q-22 0 -43 7q-24 8 -42 19t-34 27q-14 14 -22 33q-22 -45 -62 -66q-39 -21 -83 -21h-475q-43 0 -81 12t-66 39t-45 71q-16 42 -16 108v67h78v-68q0 -77 33 -113t98 -36h476
q34 0 60 23q25 22 25 78v245h84v-216q0 -28 9 -52q8 -22 26 -40q17 -17 38 -26t45 -9h34q6 0 14 -2q6 -1 6 -12v-56q0 -11 -21 -11h-34z" />
    <glyph glyph-name="uniFB58" unicode="&#x67e;" horiz-adv-x="360" arabic-form="initial" 
d="M118 -60h55v-76h-55v76zM229 -60h55v-76h-55v76zM174 -159h55v-77h-55v77zM199 81l1 345h85v-426h-284q-21 0 -21 11v56q0 11 6 12q8 2 14 2h199z" />
    <glyph glyph-name="uniFB59" unicode="&#x67e;" horiz-adv-x="475" arabic-form="medial" 
d="M202 -60h55v-76h-55v76zM313 -60h55v-76h-55v76zM258 -159h55v-77h-55v77zM432 0l-2 1q-22 0 -43 7q-24 8 -42 19t-34 27q-14 14 -22 33q-22 -45 -62 -66q-39 -21 -83 -21h-144q-21 0 -21 11v56q0 11 6 12q8 2 14 2h145q34 0 60 23q25 22 25 78v245h84v-210q0 -29 9 -55
q8 -24 26 -43q16 -17 39 -28q21 -10 46 -10h43q6 0 14 -2q6 -1 6 -12v-56q0 -11 -21 -11h-43z" />
    <glyph glyph-name="uniFB66" unicode="&#x679;" horiz-adv-x="970" arabic-form="isolated" 
d="M820 81l-1 346h85v-426h-646q-44 0 -81 12t-66 39q-28 27 -45 71q-16 42 -16 108v67h78v-68q0 -77 33 -113t98 -36h561zM383 465l-1 144h37v-94q16 16 35 27q17 10 38 10q40 0 53 -21q14 -22 14 -53v-52h-205v36h28q1 1 1 3zM519 460l-1 16q-2 19 -10 27q-10 10 -24 10
q-23 0 -38 -18q-16 -19 -23 -35h96z" />
    <glyph glyph-name="uniFB67" unicode="&#x679;" horiz-adv-x="1056" arabic-form="final" 
d="M1022 0l-2 -1q-22 0 -43 7q-24 8 -42 19t-34 27q-14 14 -22 33q-22 -45 -62 -66q-39 -21 -83 -21h-475q-43 0 -81 12t-66 39t-45 71q-16 42 -16 108v67h78v-68q0 -77 33 -113t98 -36h476q34 0 60 23q25 22 25 78v245h84v-216q0 -28 9 -52q8 -22 26 -40q17 -17 38 -26
t45 -9h34q6 0 14 -2q6 -1 6 -12v-56q0 -11 -21 -11h-34zM375 463l-1 144h37v-94q16 16 35 27q17 10 38 10q40 0 53 -21q14 -22 14 -53v-52h-205v36h28q1 1 1 3zM511 458l-1 16q-2 19 -10 27q-10 10 -24 10q-23 0 -38 -18q-16 -19 -23 -35h96z" />
    <glyph glyph-name="uniFB68" unicode="&#x679;" horiz-adv-x="349" arabic-form="initial" 
d="M108 625l-1 144h37v-94q16 16 35 27q17 10 38 10q39 0 53 -21q14 -22 14 -53v-52h-205v36h28q1 1 1 3zM244 620l-1 16q-2 19 -10 27q-10 10 -24 10q-23 0 -38 -18q-16 -19 -23 -35h96zM197 78l1 345h85v-426h-284q-21 0 -21 11v56q0 10 6 12q8 2 14 2h199z" />
    <glyph glyph-name="uniFB69" unicode="&#x679;" horiz-adv-x="475" arabic-form="medial" 
d="M180 623l-1 144h37v-94q16 16 35 27q17 10 38 10q39 0 53 -21q14 -22 14 -53v-52h-205v36h28q1 1 1 3zM316 618l-1 16q-2 19 -10 27q-10 10 -24 10q-23 0 -38 -18q-16 -19 -23 -35h96zM430 -3l-2 1q-22 0 -43 7q-24 8 -42 19t-34 27q-14 14 -22 33q-22 -45 -62 -66
q-39 -21 -83 -21h-144q-21 0 -21 11v56q0 10 6 12q8 2 14 2h145q34 0 60 23q25 22 25 78v245h84v-210q0 -30 9 -55q8 -24 26 -43q16 -17 39 -28q21 -10 46 -10h43q6 0 14 -2q6 -2 6 -12v-56q0 -11 -21 -11h-43z" />
    <glyph glyph-name="uniFB6A" unicode="&#x6a4;" horiz-adv-x="1100" arabic-form="isolated" 
d="M781 869h85v-117h-85v117zM866 715h85v-117h-85v117zM695 715h85v-117h-85v117zM821 408l-2 -2q-65 0 -105 -45q-40 -44 -40 -118q0 -36 11 -67q10 -29 30 -52q19 -22 46 -34t59 -12q64 0 105 42q41 43 41 124q0 83 -40 123q-41 41 -105 41zM257 -2h-1q-44 0 -81 12
t-66 39q-28 27 -45 71q-16 42 -16 108v67h78v-68q0 -77 33 -113t98 -36h393v4q-7 7 -19 25q-11 17 -22 40t-18 48q-7 24 -7 48q0 120 63 183t172 63t172 -64q63 -65 63 -183q0 -119 -61 -181q-61 -63 -174 -63h-562z" />
    <glyph glyph-name="uniFB6B" unicode="&#x6a4;" horiz-adv-x="1135" arabic-form="final" 
d="M788 869h85v-117h-85v117zM873 715h85v-117h-85v117zM702 715h85v-117h-85v117zM824 407h-2q-70 0 -108 -41q-37 -40 -37 -120q0 -79 38 -123t108 -44t108 44t38 123q0 80 -37 120q-38 41 -108 41zM257 0l3 -1q-44 0 -81 12t-66 39q-28 27 -45 71q-16 42 -16 108v67h78
v-68q0 -77 33 -113t98 -36h395v4q-7 7 -19 25q-11 17 -22 40q-11 22 -18 48q-7 24 -7 48q0 119 63 182t171 63q109 0 171 -61q63 -61 63 -184q0 -25 -7 -47q-7 -24 -18 -45q-12 -24 -22 -39q-14 -21 -19 -28v-4h142q6 0 14 -2q6 -1 6 -12v-56q0 -11 -21 -11h-876z" />
    <glyph glyph-name="uniFB6C" unicode="&#x6a4;" horiz-adv-x="608" arabic-form="initial" 
d="M298 869h85v-117h-85v117zM383 715h85v-117h-85v117zM212 715h85v-117h-85v117zM0 0l1 -1q-21 0 -21 11v56q0 10 6 12q8 2 14 2h160v4q-7 7 -19 25q-11 17 -22 40t-18 48q-7 24 -7 48q0 120 63 183t172 63t172 -64q63 -65 63 -183q0 -119 -61 -181q-61 -63 -174 -63h-329
zM330 407l-2 -2q-64 0 -105 -45q-40 -44 -40 -118q0 -36 11 -67q10 -29 30 -52q19 -22 46 -34t59 -12q65 0 105 42q41 43 41 124q0 83 -40 123q-41 41 -105 41z" />
    <glyph glyph-name="uniFB6D" unicode="&#x6a4;" horiz-adv-x="614" arabic-form="medial" 
d="M267 869h85v-117h-85v117zM352 715h85v-117h-85v117zM181 715h85v-117h-85v117zM303 407h-2q-70 0 -108 -41q-37 -40 -37 -120q0 -79 38 -123t108 -44t108 44t38 123q0 80 -37 120q-38 41 -108 41zM-2 0l5 -2q-21 0 -21 11v56q0 11 6 12q8 2 14 2h133v4q-7 7 -19 25
q-11 17 -22 40q-10 22 -18 48q-7 24 -7 48q0 119 63 182t171 63q109 0 171 -61q63 -61 63 -184q0 -25 -7 -47q-8 -24 -18 -45q-12 -24 -22 -39q-14 -21 -19 -28v-4h142q6 0 14 -2q6 -1 6 -12v-56q0 -11 -21 -11h-614z" />
    <glyph glyph-name="uniFB7A" unicode="&#x686;" horiz-adv-x="667" arabic-form="isolated" 
d="M252 -60h55v-76h-55v76zM363 -60h55v-76h-55v76zM308 -159h55v-77h-55v77zM250 81l262 -4q0 1 -1 3.5t-1.5 5t-1.5 6.5t-2 7q-4 17 -9 36t-9 42q-1 5 -7 41q-15 94 -57 141t-97 47q-71 0 -114 -39q-44 -40 -56 -102h-82q4 44 24 85t53 71t78 48t98 18t95 -21
q43 -21 72 -58q30 -38 48 -88q19 -53 26 -111q9 -64 13 -88q3 -18 11 -54q5 -21 9 -36t9 -33h-351q-67 0 -108 -32q-40 -31 -40 -78q0 -34 9 -63q9 -27 32 -63h-78q-19 26 -33 57q-13 30 -13 74q0 39 13 72q14 35 40 60q28 26 69 41q46 16 99 15z" />
    <glyph glyph-name="uniFB7B" unicode="&#x686;" horiz-adv-x="761" arabic-form="final" 
d="M252 -60h55v-76h-55v76zM363 -60h55v-76h-55v76zM308 -159h55v-77h-55v77zM512 81l1 153q0 40 -12 72t-33 54t-49 34q-29 12 -60 12q-71 0 -120 -39t-61 -102h-82q5 46 25 85q22 42 55 71q34 30 81 48t102 18q57 0 102 -18q46 -18 75 -52q31 -36 47 -82q17 -49 17 -108
v-45q0 -53 31 -78q32 -26 76 -26h56q6 0 14 -2q6 -2 6 -12v-56q0 -11 -21 -11h-57q-12 0 -30 5q-17 5 -31 13q-15 9 -27 21t-18 27h-2q-2 -14 -7 -29q-6 -17 -20 -36h-309q-41 0 -69 -9t-46 -24t-26 -35q-8 -21 -8 -42q0 -34 9 -63q9 -27 32 -63h-78q-19 26 -33 57
q-13 30 -13 74q0 39 13 72q14 35 40 60q28 26 69 41q42 15 99 15h262z" />
    <glyph glyph-name="uniFB7C" unicode="&#x686;" horiz-adv-x="728" arabic-form="initial" 
d="M252 -60h55v-76h-55v76zM363 -60h55v-76h-55v76zM308 -159h55v-77h-55v77zM355 410l-1 -1q-32 0 -63 -12q-32 -12 -58 -31q-27 -20 -45 -45q-19 -26 -23 -54h-82q4 44 27 85q23 42 58 71q36 30 84 48t104 18q62 0 110 -21q50 -22 83 -58q36 -39 56 -88q22 -53 29 -111
q9 -64 13 -88q9 -48 10 -54q5 -21 9 -36t9 -33h-673q-21 0 -21 11v56q0 11 6 12q8 2 14 2h576q0 1 -1 3.5t-1.5 5t-1.5 6.5t-2 7q-5 17 -9 36t-9 42q-1 5 -7 41q-15 95 -67 141q-53 47 -124 47z" />
    <glyph glyph-name="uniFB7D" unicode="&#x686;" horiz-adv-x="787" arabic-form="medial" 
d="M252 -60h55v-76h-55v76zM363 -60h55v-76h-55v76zM308 -159h55v-77h-55v77zM547 81l-2 156q0 41 -18 72q-18 32 -46 54t-64 34t-72 12q-31 0 -63 -12t-58 -31q-27 -20 -45 -45q-19 -26 -23 -54h-82q4 44 27 85q23 42 58 71q36 30 84 48t104 18q61 0 114 -18t91 -52
q39 -35 60 -82q21 -48 21 -108v-45q0 -53 31 -78q32 -26 76 -26h47q6 0 14 -2q6 -2 6 -12v-56q0 -11 -21 -11h-48q-12 0 -29 5t-30 13q-14 8 -25 21t-17 27h-4q-2 -14 -7 -29q-6 -17 -20 -36h-605q-21 0 -21 11v56q0 11 6 12q8 2 14 2h547z" />
    <glyph glyph-name="uniFB88" unicode="&#x688;" horiz-adv-x="520" arabic-form="isolated" 
d="M149 623l-1 144h37v-94q16 16 35 27q17 10 38 10q40 0 53 -21q14 -22 14 -53v-52h-205v36h28q1 1 1 3zM285 618l-1 16q-2 19 -10 27q-10 10 -24 10q-23 0 -38 -18q-16 -19 -23 -35h96zM89 -3l-3 82h290v127q0 36 -9 70q-9 35 -28 60q-20 26 -48 41q-29 15 -69 15h-92v80
h77q55 0 102 -15t81 -48t54 -84q19 -50 19 -123v-205h-374z" />
    <glyph glyph-name="uniFB89" unicode="&#x688;" horiz-adv-x="626" arabic-form="final" 
d="M149 625l-1 144h37v-94q16 16 35 27q17 10 38 10q40 0 53 -21q14 -22 14 -53v-52h-205v36h28q1 1 1 3zM285 620l-1 16q-2 19 -10 27q-10 10 -24 10q-23 0 -38 -18q-16 -19 -23 -35h96zM624 78l-4 -1q6 0 14 -2q6 -1 6 -12v-56q0 -11 -21 -11h-48q-12 0 -29 5t-30 13
q-14 8 -25 21t-17 27h-4q-2 -14 -7 -29q-6 -17 -20 -36h-346v81h290v127q0 35 -9 70t-28 60q-20 26 -48 41t-69 15h-92v80h77q56 0 102 -15t81 -48t54 -84q19 -50 19 -123v-14q0 -55 31 -82t76 -27h47z" />
    <glyph glyph-name="uniFB8A" unicode="&#x698;" horiz-adv-x="320" arabic-form="isolated" 
d="M182 869h85v-117h-85v117zM267 715h85v-117h-85v117zM96 715h85v-117h-85v117zM85 -156v-1q20 0 36 8t26 25q11 19 17 47q6 29 6 72v430h85v-430q0 -114 -36 -174t-122 -60q-21 0 -36 3q-17 3 -24 7q-11 5 -18 9v81q32 -17 66 -17z" />
    <glyph glyph-name="uniFB8B" unicode="&#x698;" horiz-adv-x="414" arabic-form="final" 
d="M180 869h85v-117h-85v117zM265 715h85v-117h-85v117zM94 715h85v-117h-85v117zM414 81l1 -2q6 0 14 -2q6 -1 6 -12v-56q0 -11 -21 -11h-53q-14 0 -32 5q-17 5 -32 15t-27 24t-15 30v-78q0 -114 -36 -174t-122 -60q-21 0 -36 3q-17 3 -24 7q-11 4 -18 9v81q32 -17 66 -17
q20 0 36 8t26 25q11 19 17 47q6 29 6 72v430h85v-235q0 -55 31 -82q32 -27 76 -27h52z" />
    <glyph glyph-name="uniFB8C" unicode="&#x691;" horiz-adv-x="320" arabic-form="isolated" 
d="M129 625l-1 144h37v-94q16 16 35 27q17 10 38 10q40 0 53 -21q14 -22 14 -53v-52h-205v36h28q1 1 1 3zM265 620l-1 16q-2 19 -10 27q-10 10 -24 10q-23 0 -38 -18q-16 -19 -23 -35h96zM83 -159v-1q20 0 36 8t26 25q11 19 17 47t6 72v430h85v-430q0 -114 -36 -174
t-122 -60q-21 0 -36 3q-17 3 -24 7q-11 4 -18 9v81q32 -17 66 -17z" />
    <glyph glyph-name="uniFB8D" unicode="&#x691;" horiz-adv-x="414" arabic-form="final" 
d="M117 625l-1 144h37v-94q16 16 35 27q17 10 38 10q40 0 53 -21q14 -22 14 -53v-52h-205v36h28q1 1 1 3zM253 620l-1 16q-2 19 -10 27q-10 10 -24 10q-23 0 -38 -18q-16 -19 -23 -35h96zM412 78l1 -2q6 0 14 -2q6 -2 6 -12v-56q0 -11 -21 -11h-53q-14 0 -32 5q-17 5 -32 15
q-15 11 -27 24t-15 30v-78q0 -114 -36 -174t-122 -60q-21 0 -36 3q-17 3 -24 7q-11 5 -18 9v81q32 -17 66 -17q20 0 36 8t26 25q11 19 17 47t6 72v430h85v-235q0 -55 31 -82q32 -27 76 -27h52z" />
    <glyph glyph-name="uniFB8E" unicode="&#x6a9;" horiz-adv-x="888" arabic-form="isolated" 
d="M259 0l-2 -2q-43 0 -81 12t-66 39t-45 71q-16 42 -16 108v67h78v-68q0 -77 33 -113t98 -36h486v140q0 48 -12 81q-12 32 -32 54q-20 21 -45 30t-54 9h-255v81l240 241h114l-237 -241h133q66 0 110 -19q45 -20 74 -53q29 -34 41 -80t12 -100v-221h-574z" />
    <glyph glyph-name="uniFB8F" unicode="&#x6a9;" horiz-adv-x="990" arabic-form="final" 
d="M990 81l-2 -4q6 0 14 -2q6 -1 6 -12v-56q0 -11 -21 -11h-51q-12 0 -29 5q-15 5 -30 12q-13 7 -25 20q-11 13 -17 27h-4q-1 -7 -8 -28q-5 -16 -20 -34h-546q-43 0 -81 12t-66 39t-45 71q-16 42 -16 108v67h78v-68q0 -77 33 -113t98 -36h486v140q0 48 -12 81q-12 32 -32 54
q-20 21 -45 30t-54 9h-255v81l240 241h114l-237 -241h133q66 0 110 -19q45 -20 74 -53q29 -34 41 -80t12 -100v-36q0 -53 31 -78q32 -26 76 -26h50z" />
    <glyph glyph-name="uniFB90" unicode="&#x6a9;" horiz-adv-x="649" arabic-form="initial" 
d="M506 81v137q0 48 -12 81q-12 32 -32 54q-20 21 -45 30t-54 9h-306v81l240 241h114l-237 -241h184q66 0 110 -19q45 -20 74 -53q29 -34 41 -80t12 -100v-221h-594q-21 0 -21 11v56q0 11 6 12q8 2 14 2h506z" />
    <glyph glyph-name="uniFB91" unicode="&#x6a9;" horiz-adv-x="751" arabic-form="medial" 
d="M506 221v-5q0 48 -12 81q-12 32 -32 54q-20 21 -45 30t-54 9h-306v81l240 241h114l-237 -241h184q66 0 110 -19q45 -20 74 -53q29 -34 41 -80q12 -47 12 -100v-36q0 -54 31 -79t76 -25h50q6 0 14 -2q6 -1 6 -12v-56q0 -11 -21 -11h-51q-12 0 -29 5q-15 5 -30 12
q-13 7 -25 20q-11 13 -17 27h-4q-1 -7 -8 -28q-5 -16 -20 -34h-566q-21 0 -21 11v56q0 11 6 12q8 2 14 2h506v140z" />
    <glyph glyph-name="uniFB92" unicode="&#x6af;" horiz-adv-x="888" arabic-form="isolated" 
d="M237 474h-79l239 241h81zM259 0l-2 -2q-43 0 -81 12t-66 39t-45 71q-16 42 -16 108v67h78v-68q0 -77 33 -113t98 -36h486v140q0 48 -12 81q-12 32 -32 54q-20 21 -45 30t-54 9h-255v81l240 241h114l-237 -241h133q66 0 110 -19q45 -20 74 -53q29 -34 41 -80t12 -100v-221
h-574z" />
    <glyph glyph-name="uniFB93" unicode="&#x6af;" horiz-adv-x="990" arabic-form="final" 
d="M248 474h-79l239 241h81zM990 81l-2 -4q6 0 14 -2q6 -1 6 -12v-56q0 -11 -21 -11h-51q-12 0 -29 5q-15 5 -30 12q-13 7 -25 20q-11 13 -17 27h-4q-1 -7 -8 -28q-5 -16 -20 -34h-546q-43 0 -81 12t-66 39t-45 71q-16 42 -16 108v67h78v-68q0 -77 33 -113t98 -36h486v140
q0 48 -12 81q-12 32 -32 54q-20 21 -45 30t-54 9h-255v81l240 241h114l-237 -241h133q66 0 110 -19q45 -20 74 -53q29 -34 41 -80t12 -100v-36q0 -53 31 -78q32 -26 76 -26h50z" />
    <glyph glyph-name="uniFB94" unicode="&#x6af;" horiz-adv-x="791" arabic-form="initial" 
d="M96 474h-79l239 241h81zM648 81v137q0 48 -12 81q-12 32 -32 54q-20 21 -45 30t-54 9h-306v81l240 241h114l-237 -241h184q66 0 110 -19q45 -20 74 -53q29 -34 41 -80t12 -100v-221h-736q-21 0 -21 11v56q0 11 6 12q8 2 14 2h648z" />
    <glyph glyph-name="uniFB95" unicode="&#x6af;" horiz-adv-x="895" arabic-form="medial" 
d="M650 221l2 -6q0 48 -12 81q-12 32 -32 54q-20 21 -45 30t-54 9h-306v81l240 241h114l-237 -241h184q66 0 110 -19q45 -20 74 -53q29 -34 41 -80q12 -47 12 -100v-30q0 -55 31 -82q32 -27 76 -27h50q6 0 14 -2q6 -1 6 -12v-56q0 -11 -21 -11h-51q-12 0 -29 5q-15 5 -30 12
q-14 7 -27 20q-12 12 -18 27h-3q-1 -7 -8 -28q-5 -16 -20 -34h-710q-21 0 -21 11v56q0 11 6 12q8 2 14 2h650v140zM100 468h-79l239 241h81z" />
    <glyph glyph-name="uniFB9E" unicode="&#x6ba;" horiz-adv-x="844" arabic-form="isolated" 
d="M380 -238v1q-166 0 -256 109q-90 110 -90 322v87h84v-87q0 -174 62 -262q62 -87 197 -87q67 0 121 21t91 64q38 44 57 109q20 68 20 155v108h84v-123q0 -75 -18 -150t-60 -135t-114 -96t-178 -36z" />
    <glyph glyph-name="uniFB9F" unicode="&#x6ba;" horiz-adv-x="906" arabic-form="final" 
d="M380 -238l1 -1q-84 0 -147 25q-64 26 -108 78q-43 52 -66 134q-23 83 -23 194v87h84v-87q0 -95 15 -161q15 -65 47 -108q31 -41 80 -61q47 -19 116 -19q67 0 121 18q53 18 91 60q37 42 57 108q20 68 20 164v108h84v-106q0 -33 9 -55t26 -36q16 -13 39 -19q22 -6 48 -6h33
q6 0 14 -2q6 -1 6 -12v-56q0 -11 -21 -11h-34q-20 0 -39 6t-38 17q-17 10 -31 24t-18 28h-3q-11 -67 -34 -122q-24 -58 -67 -99q-44 -42 -108 -66q-65 -24 -154 -24z" />
    <glyph glyph-name="uniFBA5" unicode="&#x6c0;" horiz-adv-x="592" arabic-form="final" 
d="M213 662l40 2v3q-7 7 -13 21t-6 27q0 33 19 53q19 21 57 21q29 0 50 -18q22 -18 23 -54h-35q-2 14 -12 26t-27 12q-15 0 -26 -12q-11 -13 -11 -34q0 -23 12 -35t30 -12h72v-36h-173v36zM566 2l-5 -3q-31 0 -57 9q-25 9 -46 24q-20 14 -34 36q-15 23 -23 45
q-23 -32 -60 -56t-87 -24q-38 0 -75 12q-36 11 -67 38q-30 25 -48 66t-18 96q0 48 12 90t37 73t66 49q40 18 98 18h211v-267q0 -35 8 -61q8 -25 21 -38q15 -15 31 -20q18 -6 37 -6h28q6 0 14 -2q6 -1 6 -12v-56q0 -11 -21 -11h-28zM250 116l-3 -4q22 0 48 8q23 7 42 23
q18 15 30 39t12 57v151h-127q-29 0 -50 -10q-22 -10 -40 -30t-27 -46q-9 -27 -9 -60q0 -32 11 -57q10 -24 28 -40q18 -17 40 -24q21 -7 45 -7z" />
    <glyph glyph-name="uniFBA6" unicode="&#x6c1;" horiz-adv-x="556" arabic-form="isolated" 
d="M278 -11v-1q-56 0 -99 18t-73 51t-45 79t-15 102t15 102q15 47 45 80t73 51t99 18t99 -18t73 -51t45 -79q15 -47 15 -102t-15 -102q-15 -46 -45 -79t-73 -51t-99 -18zM278 71l-2 -2q38 0 65 12q26 12 45 35q18 22 27 54t9 69t-9 69t-27 54q-19 23 -45 35q-27 12 -64 12
t-64 -12q-28 -12 -45 -34q-18 -23 -27 -54t-9 -69t9 -69t27 -54q17 -22 45 -34q27 -12 65 -12z" />
    <glyph glyph-name="uniFBA7" unicode="&#x6c1;" horiz-adv-x="587" arabic-form="final" 
d="M45 241v-1q0 36 11 78q10 40 35 74q24 33 63 54t96 21h211v-285q0 -52 23 -78q22 -25 74 -25h28q6 0 14 -2q6 -1 6 -12v-56q0 -11 -21 -11h-28q-32 0 -67 11q-32 10 -58 33q-25 22 -40 57t-15 83v204h-127q-29 0 -50 -10q-22 -10 -40 -30t-27 -46q-9 -27 -9 -60v-25v-39
v-53h-79v118z" />
    <glyph glyph-name="uniFBA8" unicode="&#x6c1;" horiz-adv-x="359" arabic-form="initial" 
d="M199 81v344h85v-426h-89v-86q0 -31 15 -45q16 -14 50 -14h34v-66h-34q-30 0 -54 6q-25 6 -41 21q-17 16 -26 39q-9 24 -9 60v86h-129q-21 0 -21 11v56q0 11 6 12q8 2 14 2h199z" />
    <glyph glyph-name="uniFBA9" unicode="&#x6c1;" horiz-adv-x="801" arabic-form="medial" 
d="M801 81h-1q6 0 14 -2q6 -1 6 -12v-56q0 -11 -21 -11h-51q-12 0 -29 5t-30 13q-14 8 -25 21t-17 27h-4q-2 -14 -7 -29q-6 -17 -20 -36h-616q-21 0 -21 11v56q0 10 6 12q8 2 14 2h113q-20 16 -34 45q-13 27 -13 72q0 40 10 69q11 31 28 51q18 21 42 33q23 11 52 16
q29 56 84 90q56 35 127 35q124 0 180 -66q56 -67 56 -187v-54q0 -51 31 -78t76 -27h50zM381 198l1 -2q0 -45 -13 -72q-14 -29 -34 -45h226v158q0 44 -12 77t-33 54q-20 20 -48 31q-26 10 -59 10q-37 0 -69 -15q-31 -15 -51 -38q41 -17 66 -55q26 -40 26 -103zM224 85l-4 -1
q15 0 33 8q16 7 30 23q13 15 21 36q8 22 8 46q0 50 -27 77t-63 27t-63 -27t-27 -77q0 -24 8 -46q8 -21 21 -36q13 -14 30 -22q18 -8 33 -8z" />
    <glyph glyph-name="uniFBAA" unicode="&#x6be;" horiz-adv-x="871" arabic-form="isolated" 
d="M238 198l-3 -1q0 40 10 69q11 31 28 51q18 21 42 33q23 11 52 16q29 56 84 90q56 35 127 35q124 0 180 -66q56 -67 56 -187v-239h-606q-42 0 -66 -12t-24 -51v-18h-89v24q0 76 46 107q47 32 135 32h75q-20 16 -34 45q-13 27 -13 72zM551 197l1 -2q0 -45 -13 -72
q-14 -29 -34 -45h226v158q0 44 -12 77t-33 54q-20 20 -48 31q-26 10 -59 10q-37 0 -69 -15q-31 -15 -51 -38q41 -17 66 -55q26 -40 26 -103zM394 84l-4 -1q15 0 33 8q16 7 30 23q13 15 21 36q8 22 8 46q0 50 -27 77t-63 27t-63 -27t-27 -77q0 -24 8 -46q8 -21 21 -36
q13 -14 30 -22q18 -8 33 -8z" />
    <glyph glyph-name="uniFBAB" unicode="&#x6be;" horiz-adv-x="973" arabic-form="final" 
d="M973 81l-2 -3q6 0 14 -2q6 -2 6 -12v-56q0 -11 -21 -11h-51q-12 0 -29 5t-30 13q-15 9 -27 21t-18 27h-3q-2 -14 -7 -29q-6 -17 -20 -36h-578q-42 0 -66 -12t-24 -51v-18h-89v24q0 76 46 107q47 32 135 32h75q-20 16 -34 45q-13 27 -13 72q0 40 10 69q11 31 28 51
q18 21 42 33q23 11 52 16q29 56 84 90q56 35 127 35q124 0 180 -66q56 -67 56 -187v-48q0 -55 31 -82t76 -27h50zM579 407l1 -2q-38 0 -69 -15t-51 -38q41 -17 66 -55q26 -40 26 -103q0 -45 -13 -72q-14 -29 -34 -45h225l1 158q0 44 -12 77t-33 54q-20 20 -48 31
q-26 10 -59 10zM395 82l-4 -1q15 0 33 8q16 7 30 23q14 15 21 36q8 22 8 46q0 50 -27 77t-63 27t-63 -27t-27 -77q0 -24 8 -46q7 -21 21 -36q13 -14 30 -22q18 -8 33 -8z" />
    <glyph glyph-name="uniFBAC" unicode="&#x6be;" horiz-adv-x="699" arabic-form="initial" 
d="M66 198q0 40 10 69q11 31 28 51q18 21 42 33q23 11 52 16q28 55 84 90t127 35q125 0 180 -66q56 -67 56 -187v-239h-644q-21 0 -21 11v56q0 11 6 12q8 2 14 2h113q-20 16 -34 45q-13 27 -13 72zM382 198l1 -2q0 -45 -13 -72q-14 -29 -34 -45h226v158q0 44 -12 77t-33 54
q-20 20 -48 31q-26 10 -59 10q-38 0 -69 -15t-51 -38q41 -17 66 -55q26 -40 26 -103zM225 85l-4 -1q15 0 33 8q16 7 30 23q14 15 21 36q8 22 8 46q0 50 -27 77t-63 27t-63 -27t-27 -77q0 -24 8 -46q7 -21 21 -36q13 -14 30 -22q18 -8 33 -8z" />
    <glyph glyph-name="uniFBAD" unicode="&#x6be;" horiz-adv-x="801" arabic-form="medial" 
d="M801 81h-1q6 0 14 -2q6 -1 6 -12v-56q0 -11 -21 -11h-51q-12 0 -29 5t-30 13q-14 8 -25 21t-17 27h-4q-2 -14 -7 -29q-6 -17 -20 -36h-616q-21 0 -21 11v56q0 10 6 12q8 2 14 2h113q-20 16 -34 45q-13 27 -13 72q0 40 10 69q11 31 28 51q18 21 42 33q23 11 52 16
q29 56 84 90q56 35 127 35q124 0 180 -66q56 -67 56 -187v-54q0 -51 31 -78t76 -27h50zM381 198l1 -2q0 -45 -13 -72q-14 -29 -34 -45h226v158q0 44 -12 77t-33 54q-20 20 -48 31q-26 10 -59 10q-37 0 -69 -15q-31 -15 -51 -38q41 -17 66 -55q26 -40 26 -103zM224 85l-4 -1
q15 0 33 8q16 7 30 23q13 15 21 36q8 22 8 46q0 50 -27 77t-63 27t-63 -27t-27 -77q0 -24 8 -46q8 -21 21 -36q13 -14 30 -22q18 -8 33 -8z" />
    <glyph glyph-name="uniFBAE" unicode="&#x6d2;" horiz-adv-x="886" arabic-form="isolated" 
d="M50 224l-1 -2q0 44 12 81t41 66t73 45q46 17 109 17h174v-78h-175q-77 0 -113 -33t-36 -97v-143h497q65 0 98 36t33 113v69h78v-68q0 -66 -16 -108q-17 -44 -45 -71q-29 -27 -66 -39t-81 -12h-582v224z" />
    <glyph glyph-name="uniFBAF" unicode="&#x6d2;" horiz-adv-x="886" arabic-form="final" 
d="M50 -131l-1 -2q0 43 12 81q12 37 41 66t73 45q46 17 109 17h174v-78h-175q-77 0 -113 -33t-36 -97v-66h497q65 0 98 36t33 113v69h78v-68q0 -66 -16 -108q-17 -44 -45 -71q-29 -27 -66 -39t-81 -12h-582v147z" />
    <glyph glyph-name="uniFBB0" unicode="&#x6d3;" horiz-adv-x="886" arabic-form="isolated" 
d="M308 617l40 2v3q-7 7 -13 21q-6 13 -6 27q0 33 19 53q20 21 57 21q29 0 50 -18q22 -18 23 -54h-35q-2 14 -12 26q-11 12 -27 12t-26 -12q-11 -13 -11 -34q0 -23 12 -35t30 -12h72v-36h-173v36zM52 226l-1 -2q0 44 12 81t41 66t73 45q46 17 109 17h174v-78h-175
q-77 0 -113 -33t-36 -97v-143h497q65 0 98 36t33 113v69h78v-68q0 -66 -16 -108q-17 -44 -45 -71q-29 -27 -66 -39t-81 -12h-582v224z" />
    <glyph glyph-name="uniFBB1" unicode="&#x6d3;" horiz-adv-x="886" arabic-form="final" 
d="M310 249l40 2v3q-7 7 -13 21q-6 13 -6 27q0 33 19 53q20 21 57 21q29 0 50 -18q22 -18 23 -54h-35q-2 14 -12 26q-11 12 -27 12t-26 -12q-11 -13 -11 -34q0 -23 12 -35t30 -12h72v-36h-173v36zM52 -129l-1 -2q0 43 12 81q12 37 41 66t73 45q46 17 109 17h174v-78h-175
q-77 0 -113 -33t-36 -97v-66h497q65 0 98 36t33 113v69h78v-68q0 -66 -16 -108q-17 -44 -45 -71q-29 -27 -66 -39t-81 -12h-582v147z" />
    <glyph glyph-name="uniFBE8" unicode="&#x649;" horiz-adv-x="349" arabic-form="initial" 
d="M199 81l1 345h85v-426h-284q-21 0 -21 11v56q0 11 6 12q8 2 14 2h199z" />
    <glyph glyph-name="uniFBE9" unicode="&#x649;" horiz-adv-x="475" arabic-form="medial" 
d="M432 0l-2 1q-22 0 -43 7q-24 8 -42 19t-34 27q-14 14 -22 33q-22 -45 -62 -66q-39 -21 -83 -21h-144q-21 0 -21 11v56q0 11 6 12q8 2 14 2h145q34 0 60 23q25 22 25 78v245h84v-210q0 -29 9 -55q8 -24 26 -43q16 -17 39 -28q21 -10 46 -10h43q6 0 14 -2q6 -1 6 -12v-56
q0 -11 -21 -11h-43z" />
    <glyph glyph-name="uniFBFC" unicode="&#x6cc;" horiz-adv-x="779" arabic-form="isolated" 
d="M395 -157l-5 5q56 0 99 7q45 7 81 23q34 15 54 39q20 25 20 57q0 20 -7 33q-8 14 -25 24q-19 11 -49 21q-5 2 -32.5 11.5t-46.5 15.5q-81 27 -124 77t-43 120q0 40 11 81q10 38 35 69t63 50t96 19q87 0 138 -54q50 -53 58 -154h-75q-8 67 -40 96q-33 30 -79 30
q-54 0 -87 -36t-33 -103q0 -26 12 -45q11 -19 33 -34q19 -13 53 -28q29 -13 71 -27q85 -28 123 -68t38 -100q0 -43 -20 -81t-61 -66q-42 -29 -106 -45q-63 -16 -153 -16q-100 0 -167 24q-68 24 -110 71q-41 45 -61 113q-19 66 -21 149h80q0 -85 19 -138q19 -54 55 -85
q35 -31 88 -43t118 -12z" />
    <glyph glyph-name="uniFBFD" unicode="&#x6cc;" horiz-adv-x="752" arabic-form="final" 
d="M395 -278l-2 -4q-98 0 -164 28q-68 29 -111 79t-64 123q-20 70 -22 159h80q1 -154 69 -229q67 -75 213 -75q46 0 92 8q43 7 76 24q31 16 52 41q19 23 19 57q0 31 -18 49t-41 18q-17 0 -49 8q-29 7 -58 27v77q11 -7 31 -13q15 -5 40 -10q21 -5 42 -6q28 -2 36 -2h136
q6 0 14 -2q6 -1 6 -12v-56q0 -11 -21 -11h-78q13 -15 21 -39q8 -26 8 -44q0 -39 -21 -75t-60 -63t-96 -42t-130 -15z" />
    <glyph glyph-name="uniFBFE" unicode="&#x6cc;" horiz-adv-x="349" arabic-form="initial" 
d="M192 -95h85v-117h-85v117zM21 -95h85v-117h-85v117zM199 81l1 345h85v-426h-284q-21 0 -21 11v56q0 11 6 12q8 2 14 2h199z" />
    <glyph glyph-name="uniFBFF" unicode="&#x6cc;" horiz-adv-x="475" arabic-form="medial" 
d="M209 -95h85v-117h-85v117zM38 -95h85v-117h-85v117zM432 0l-2 1q-22 0 -43 7q-24 8 -42 19t-34 27q-14 14 -22 33q-22 -45 -62 -66q-39 -21 -83 -21h-144q-21 0 -21 11v56q0 11 6 12q8 2 14 2h145q34 0 60 23q25 22 25 78v245h84v-210q0 -29 9 -55q8 -24 26 -43
q16 -17 39 -28q21 -10 46 -10h43q6 0 14 -2q6 -1 6 -12v-56q0 -11 -21 -11h-43z" />
    <glyph glyph-name="uniFC31" unicode="&#xfc31;" horiz-adv-x="1231" arabic-form="isolated" 
d="M395 -278l-3 -5q-98 0 -164 28q-68 29 -111 79t-64 123q-20 70 -22 159h80q1 -154 69 -229t213 -75q46 0 92 8q43 7 76 24q31 16 52 41q19 23 19 57q0 31 -18 49t-41 18q-17 0 -49 8q-29 7 -58 27v77q11 -7 31 -13q15 -5 40 -10q21 -4 42 -6q28 -2 36 -2h167v4
q-7 7 -19 25q-11 17 -22 40t-18 48q-7 24 -7 48q0 120 63 183t172 63t172 -64q63 -65 63 -183q0 -119 -61 -181q-61 -63 -174 -63h-278q13 -15 21 -39q8 -26 8 -44q0 -39 -21 -75t-60 -63t-96 -42t-130 -15zM949 403l-2 -2q-65 0 -105 -45q-40 -44 -40 -118q0 -36 11 -67
q10 -29 30 -52q19 -22 46 -34t59 -12q64 0 105 42q41 43 41 124q0 83 -40 123q-41 41 -105 41zM922 709h85v-117h-85v117z" />
    <glyph glyph-name="uniFC32" unicode="&#xfc32;" horiz-adv-x="1231" arabic-form="isolated" 
d="M395 -278l-3 -5q-98 0 -164 28q-68 29 -111 79t-64 123q-20 70 -22 159h80q1 -154 69 -229t213 -75q46 0 92 8q43 7 76 24q31 16 52 41q19 23 19 57q0 31 -18 49t-41 18q-17 0 -49 8q-29 7 -58 27v77q11 -7 31 -13q15 -5 40 -10q21 -4 42 -6q28 -2 36 -2h167v4
q-7 7 -19 25q-11 17 -22 40t-18 48q-7 24 -7 48q0 120 63 183t172 63t172 -64q63 -65 63 -183q0 -119 -61 -181q-61 -63 -174 -63h-278q13 -15 21 -39q8 -26 8 -44q0 -39 -21 -75t-60 -63t-96 -42t-130 -15zM949 403l-2 -2q-65 0 -105 -45q-40 -44 -40 -118q0 -36 11 -67
q10 -29 30 -52q19 -22 46 -34t59 -12q64 0 105 42q41 43 41 124q0 83 -40 123q-41 41 -105 41zM922 709h85v-117h-85v117zM436 -359h85v-117h-85v117zM265 -359h85v-117h-85v117z" />
    <glyph glyph-name="uniFC35" unicode="&#xfc35;" horiz-adv-x="1231" arabic-form="isolated" 
d="M395 -278l-3 -5q-98 0 -164 28q-68 29 -111 79t-64 123q-20 70 -22 159h80q1 -154 69 -229t213 -75q46 0 92 8q43 7 76 24q31 16 52 41q19 23 19 57q0 31 -18 49t-41 18q-17 0 -49 8q-29 7 -58 27v77q11 -7 31 -13q15 -5 40 -10q21 -4 42 -6q28 -2 36 -2h167v4
q-7 7 -19 25q-11 17 -22 40t-18 48q-7 24 -7 48q0 120 63 183t172 63t172 -64q63 -65 63 -183q0 -119 -61 -181q-61 -63 -174 -63h-278q13 -15 21 -39q8 -26 8 -44q0 -39 -21 -75t-60 -63t-96 -42t-130 -15zM949 403l-2 -2q-65 0 -105 -45q-40 -44 -40 -118q0 -36 11 -67
q10 -29 30 -52q19 -22 46 -34t59 -12q64 0 105 42q41 43 41 124q0 83 -40 123q-41 41 -105 41zM1009 708h85v-117h-85v117zM838 708h85v-117h-85v117z" />
    <glyph glyph-name="uniFC36" unicode="&#xfc36;" horiz-adv-x="1231" arabic-form="isolated" 
d="M395 -278l-3 -5q-98 0 -164 28q-68 29 -111 79t-64 123q-20 70 -22 159h80q1 -154 69 -229t213 -75q46 0 92 8q43 7 76 24q31 16 52 41q19 23 19 57q0 31 -18 49t-41 18q-17 0 -49 8q-29 7 -58 27v77q11 -7 31 -13q15 -5 40 -10q21 -4 42 -6q28 -2 36 -2h167v4
q-7 7 -19 25q-11 17 -22 40t-18 48q-7 24 -7 48q0 120 63 183t172 63t172 -64q63 -65 63 -183q0 -119 -61 -181q-61 -63 -174 -63h-278q13 -15 21 -39q8 -26 8 -44q0 -39 -21 -75t-60 -63t-96 -42t-130 -15zM949 403l-2 -2q-65 0 -105 -45q-40 -44 -40 -118q0 -36 11 -67
q10 -29 30 -52q19 -22 46 -34t59 -12q64 0 105 42q41 43 41 124q0 83 -40 123q-41 41 -105 41zM1009 708h85v-117h-85v117zM838 708h85v-117h-85v117zM436 -359h85v-117h-85v117zM265 -359h85v-117h-85v117z" />
    <glyph glyph-name="uniFC3D" unicode="&#xfc3d;" horiz-adv-x="1225" arabic-form="isolated" 
d="M396 -278l-4 -7q-98 0 -164 28q-68 29 -111 79t-64 123q-20 70 -22 159h80q1 -154 69 -229t213 -75q46 0 92 8q43 7 76 24q31 16 52 41q19 23 19 57q0 31 -18 49t-41 18q-17 0 -49 8q-29 7 -58 27v77q11 -7 31 -13q15 -5 40 -10q21 -4 42 -6q28 -2 36 -2h466v140
q0 48 -12 81q-12 32 -32 54q-19 21 -45 30t-54 9h-306v81l240 241h114l-237 -241h184q66 0 110 -19q45 -20 74 -53q29 -34 41 -80q12 -47 12 -100v-221h-496q14 -15 21 -39q8 -26 8 -44q0 -39 -21 -75t-60 -63t-96 -42t-130 -15z" />
    <glyph glyph-name="uniFC3E" unicode="&#xfc3e;" horiz-adv-x="1225" arabic-form="isolated" 
d="M396 -278l-4 -7q-98 0 -164 28q-68 29 -111 79t-64 123q-20 70 -22 159h80q1 -154 69 -229t213 -75q46 0 92 8q43 7 76 24q31 16 52 41q19 23 19 57q0 31 -18 49t-41 18q-17 0 -49 8q-29 7 -58 27v77q11 -7 31 -13q15 -5 40 -10q21 -4 42 -6q28 -2 36 -2h466v140
q0 48 -12 81q-12 32 -32 54q-19 21 -45 30t-54 9h-306v81l240 241h114l-237 -241h184q66 0 110 -19q45 -20 74 -53q29 -34 41 -80q12 -47 12 -100v-221h-496q14 -15 21 -39q8 -26 8 -44q0 -39 -21 -75t-60 -63t-96 -42t-130 -15zM421 -359h85v-117h-85v117zM250 -359h85
v-117h-85v117z" />
    <glyph glyph-name="uniFC43" unicode="&#xfc43;" horiz-adv-x="911" arabic-form="isolated" 
d="M762 81l-3 630h84v-715h-172q13 -15 21 -39q8 -26 8 -44q0 -39 -21 -75t-60 -63t-96 -42t-130 -15q-98 0 -164 28q-68 29 -111 79t-64 123q-20 70 -22 159h80q1 -154 69 -229q67 -75 213 -75q46 0 92 8q43 7 76 24q31 16 52 41q19 23 19 57q0 31 -18 49t-41 18
q-17 0 -49 8q-29 7 -58 27v77q11 -7 31 -13q15 -5 40 -10q21 -5 42 -6q28 -2 36 -2h146z" />
    <glyph glyph-name="uniFC44" unicode="&#xfc44;" horiz-adv-x="911" arabic-form="isolated" 
d="M762 81l-3 630h84v-715h-172q13 -15 21 -39q8 -26 8 -44q0 -39 -21 -75t-60 -63t-96 -42t-130 -15q-98 0 -164 28q-68 29 -111 79t-64 123q-20 70 -22 159h80q1 -154 69 -229q67 -75 213 -75q46 0 92 8q43 7 76 24q31 16 52 41q19 23 19 57q0 31 -18 49t-41 18
q-17 0 -49 8q-29 7 -58 27v77q11 -7 31 -13q15 -5 40 -10q21 -5 42 -6q28 -2 36 -2h146zM448 -356h85v-117h-85v117zM277 -356h85v-117h-85v117z" />
    <glyph glyph-name="uniFC53" unicode="&#xfc53;" horiz-adv-x="1289" arabic-form="isolated" 
d="M395 -278l-4 -2q-98 0 -164 28q-68 29 -111 79t-64 123q-20 70 -22 159h80q1 -154 69 -229q67 -75 213 -75q46 0 92 8q43 7 76 24q31 16 52 41q19 23 19 57q0 31 -18 49t-41 18q-17 0 -49 8q-29 7 -58 27v77q10 -6 30 -13q14 -5 37 -10q13 -3 39 -7q20 -3 35 -3h95
q-20 16 -34 45q-13 27 -13 72q0 40 10 69q11 31 28 51q18 21 42 33q23 11 52 16q28 55 84 90t127 35q125 0 180 -66q56 -67 56 -187v-239h-560q13 -15 21 -39q8 -26 8 -44q0 -39 -21 -75t-60 -63t-96 -42t-130 -15zM968 196l1 -2q0 -45 -13 -72q-14 -29 -34 -45h226v158
q0 44 -12 77t-33 54q-20 20 -48 31q-26 10 -59 10q-38 0 -69 -15t-51 -38q41 -17 66 -55q26 -40 26 -103zM811 83l-4 -1q15 0 33 8q16 7 30 23q14 15 21 36q8 22 8 46q0 50 -27 77t-63 27t-63 -27t-27 -77q0 -24 8 -46q7 -21 21 -36q13 -14 30 -22q18 -8 33 -8z" />
    <glyph glyph-name="uniFC54" unicode="&#xfc54;" horiz-adv-x="1289" arabic-form="isolated" 
d="M395 -278l-4 -2q-98 0 -164 28q-68 29 -111 79t-64 123q-20 70 -22 159h80q1 -154 69 -229q67 -75 213 -75q46 0 92 8q43 7 76 24q31 16 52 41q19 23 19 57q0 31 -18 49t-41 18q-17 0 -49 8q-29 7 -58 27v77q10 -6 30 -13q14 -5 37 -10q13 -3 39 -7q20 -3 35 -3h95
q-20 16 -34 45q-13 27 -13 72q0 40 10 69q11 31 28 51q18 21 42 33q23 11 52 16q28 55 84 90t127 35q125 0 180 -66q56 -67 56 -187v-239h-560q13 -15 21 -39q8 -26 8 -44q0 -39 -21 -75t-60 -63t-96 -42t-130 -15zM968 196l1 -2q0 -45 -13 -72q-14 -29 -34 -45h226v158
q0 44 -12 77t-33 54q-20 20 -48 31q-26 10 -59 10q-38 0 -69 -15t-51 -38q41 -17 66 -55q26 -40 26 -103zM811 83l-4 -1q15 0 33 8q16 7 30 23q14 15 21 36q8 22 8 46q0 50 -27 77t-63 27t-63 -27t-27 -77q0 -24 8 -46q7 -21 21 -36q13 -14 30 -22q18 -8 33 -8zM402 -357h85
v-117h-85v117zM231 -357h85v-117h-85v117z" />
    <glyph glyph-name="uni064C0651" unicode="&#xfc5e;" arabic-form="isolated" 
d="M-46 900l-1 -3q19 0 36 11t29 26q-6 2 -15 6t-18 12t-15 18t-6 22q0 26 14 38q13 12 35 12t36 -13q15 -13 15 -43q0 -20 -9 -39q-9 -20 -25 -36t-36 -25q-19 -9 -40 -9t-36 16q-15 17 -15 45h-17v22h17q11 0 16 -4q6 -4 6 -18t6 -26t23 -12zM-12 988l-1 -3q0 -14 13 -23
q14 -9 30 -12q9 18 9 33q0 17 -7 25q-7 9 -19 9q-9 0 -17 -8t-8 -21zM-63 729l-1 -2q-17 0 -29 9q-13 10 -20 37l-10 40l34 10l9 -32q4 -12 11 -21q6 -8 15 -8q11 0 21 8q9 8 9 20v3q0 3 -1 6q0 1 -1.5 6t-2.5 8t-3.5 11.5t-3.5 12.5l33 10l8 -32q3 -12 13 -21q8 -7 17 -7
q14 0 20 8q6 7 6 18v3q0 3 -1 6q0 1 -1.5 6t-2.5 8t-7 25l34 9q2 -10 8 -30q1 -3 2.5 -9t2.5 -8q2 -8 2 -9v-6q0 -22 -17 -36t-42 -14q-12 0 -24 6q-11 5 -19 20q0 -25 -17 -40t-42 -15z" />
    <glyph glyph-name="uni064D0651" unicode="&#xfc5f;" arabic-form="isolated" 
d="M-68 924l-1 -2q-17 0 -29 9q-13 10 -20 37l-10 40l34 10l9 -32q4 -12 11 -21q6 -8 15 -8q11 0 21 8q9 7 9 20v3q0 3 -1 6q0 1 -1.5 6t-2.5 8t-3.5 11.5t-3.5 12.5l33 10l8 -32q3 -12 13 -21q8 -7 17 -7q14 0 20 8t6 18v3q0 3 -1 6q0 1 -1.5 6t-2.5 8t-7 25l34 9
q2 -10 8 -30q1 -3 2.5 -9t2.5 -8q2 -8 2 -9v-6q0 -22 -17 -36t-42 -14q-12 0 -24 6q-11 5 -19 20q0 -25 -17 -40q-16 -15 -42 -15zM-93 821l-9 37l201 54l10 -37zM-74 746l-9 37l201 54l10 -37z" />
    <glyph glyph-name="uni064E0651" unicode="&#xfc60;" arabic-form="isolated" 
d="M-48 739l-1 -2q-17 0 -29 9q-13 10 -20 37l-10 40l34 10l9 -32q4 -12 11 -21q6 -8 15 -8q11 0 21 8q9 8 9 20v3q0 3 -1 6q0 1 -1.5 6t-2.5 8t-3.5 11.5t-3.5 12.5l33 10l8 -32q3 -12 13 -21q8 -7 17 -7q14 0 20 8q6 7 6 18v3q0 3 -1 6q0 1 -1.5 6t-2.5 8t-7 25l34 9
q2 -10 8 -30q1 -3 2.5 -9t2.5 -8q2 -8 2 -9v-6q0 -22 -17 -36t-42 -14q-12 0 -24 6q-11 5 -19 20q0 -25 -17 -40q-16 -15 -42 -15zM-109 876l-9 37l201 54l10 -37z" />
    <glyph glyph-name="uni064F0651" unicode="&#xfc61;" arabic-form="isolated" 
d="M-69 686l-1 -2q-17 0 -29 9q-13 10 -20 37l-10 40l34 10l9 -32q4 -12 11 -21q6 -8 15 -8q11 0 21 8q9 7 9 20v3q0 3 -1 6q0 1 -1.5 6t-2.5 8t-3.5 11.5t-3.5 12.5l33 10l8 -32q3 -12 13 -21q8 -7 17 -7q14 0 20 8t6 18v3q0 3 -1 6q0 1 -1.5 6t-2.5 8t-7 25l34 9
q2 -10 8 -30q1 -3 2.5 -9t2.5 -8q2 -8 2 -9v-6q0 -22 -17 -36t-42 -14q-12 0 -24 6q-11 5 -19 20q0 -25 -17 -40t-42 -15zM-68 854h-2q23 0 44 12q20 12 36 32q-5 1 -19 8q-11 5 -22 15q-11 9 -18 21q-7 11 -7 27q0 32 18 47t44 15q25 0 44 -17q18 -16 18 -54q0 -24 -12 -48
t-31 -43q-18 -18 -44 -31q-24 -12 -49 -12v28zM-27 966l-2 -2q0 -17 16 -29q17 -12 37 -15q11 24 11 42q0 20 -9 30q-9 11 -23 11q-12 0 -21 -10q-9 -11 -9 -27z" />
    <glyph glyph-name="uni06500651" unicode="&#xfc62;" arabic-form="isolated" 
d="M-61 856l-1 -2q-17 0 -29 9q-13 10 -20 37l-10 40l34 10l9 -32q4 -12 11 -21q6 -8 15 -8q11 0 21 8q9 7 9 20v3q0 3 -1 6q0 1 -1.5 6t-2.5 8t-3.5 11.5t-3.5 12.5l33 10l8 -32q3 -12 13 -21q8 -7 17 -7q14 0 20 8t6 18v3q0 3 -1 6q0 1 -1.5 6t-2.5 8t-7 25l34 9
q2 -10 8 -30q1 -3 2.5 -9t2.5 -8q2 -8 2 -9v-6q0 -22 -17 -36t-42 -14q-12 0 -24 6q-11 5 -19 20q0 -25 -17 -40t-42 -15zM-88 742l-9 37l201 54l10 -37z" />
    <glyph glyph-name="uni06510670" unicode="&#xfc63;" arabic-form="isolated" 
d="M-47 760l-4 -2q-24 0 -42 12t-18 50v44h43v-37q0 -14 5 -24q5 -9 17 -9q10 2 18 9q7 7 7 25v38h44v-39q0 -17 7 -24t18 -7q10 0 15 9q5 10 5 23v38h43v-44q0 -39 -18 -51t-43 -12q-16 0 -30 9t-18 30q-6 -21 -19 -29q-13 -9 -30 -9zM-25 1013h37v-116h-37v116z" />
    <glyph glyph-name="uniFC86" unicode="&#xfc86;" horiz-adv-x="1004" arabic-form="final" 
d="M395 -278l-5 -3q-98 0 -164 28q-68 29 -111 79t-64 123q-20 70 -22 159h80q1 -154 69 -229t213 -75q46 0 92 8q43 7 76 24q31 16 52 41q19 23 19 57q0 31 -18 49t-41 18q-17 0 -49 8q-29 7 -58 27v77q11 -7 31 -13q15 -5 40 -10q21 -4 42 -6q28 -2 36 -2h61q34 0 60 23
q25 22 25 78v534h84v-499q0 -30 9 -55q8 -24 26 -43q16 -17 39 -28q21 -10 46 -10h40q6 0 14 -2q6 -2 6 -12v-56q0 -11 -21 -11h-40q-22 0 -43 7q-24 8 -42 19t-34 27q-14 14 -22 33q-23 -45 -63 -66t-85 -21q13 -15 21 -39q8 -26 8 -44q0 -39 -21 -75t-60 -63t-96 -42
t-130 -15z" />
    <glyph glyph-name="uniFC87" unicode="&#xfc87;" horiz-adv-x="1004" arabic-form="final" 
d="M395 -278l-5 -3q-98 0 -164 28q-68 29 -111 79t-64 123q-20 70 -22 159h80q1 -154 69 -229t213 -75q46 0 92 8q43 7 76 24q31 16 52 41q19 23 19 57q0 31 -18 49t-41 18q-17 0 -49 8q-29 7 -58 27v77q11 -7 31 -13q15 -5 40 -10q21 -4 42 -6q28 -2 36 -2h61q34 0 60 23
q25 22 25 78v534h84v-499q0 -30 9 -55q8 -24 26 -43q16 -17 39 -28q21 -10 46 -10h40q6 0 14 -2q6 -2 6 -12v-56q0 -11 -21 -11h-40q-22 0 -43 7q-24 8 -42 19t-34 27q-14 14 -22 33q-23 -45 -63 -66t-85 -21q13 -15 21 -39q8 -26 8 -44q0 -39 -21 -75t-60 -63t-96 -42
t-130 -15zM423 -355h85v-117h-85v117zM252 -355h85v-117h-85v117z" />
    <glyph glyph-name="uniFDF2" unicode="&#xfdf2;" horiz-adv-x="1490" arabic-form="isolated" 
d="M1341 0v715h85v-715h-85zM583 0l-10 -2q-31 0 -57 9q-25 9 -46 24q-20 14 -34 36q-15 23 -23 45q-23 -32 -60 -56t-87 -24q-38 0 -75 12q-36 11 -67 38q-30 26 -48 66t-18 96q0 48 12 90t37 73t66 49t98 18h211v-267q0 -35 8 -61q8 -25 21 -38q15 -14 31 -20q18 -6 37 -6
h91q34 0 60 23q25 22 25 78v534h84v-499q0 -30 9 -55q8 -24 26 -43q16 -17 39 -28q21 -10 46 -10h115v634h84v-715h-199q-22 0 -43 7q-24 8 -42 19t-34 27q-14 14 -22 33q-22 -45 -62 -66q-39 -21 -83 -21h-90zM262 115l-3 -4q22 0 48 8q23 7 42 23q18 15 30 39t12 57v151
h-127q-29 0 -50 -10q-22 -10 -40 -30t-27 -46q-9 -27 -9 -60q0 -32 11 -57q10 -24 28 -40q18 -17 40 -24q21 -7 45 -7z" />
    <glyph glyph-name="uniFDFA" unicode="&#xfdfa;" horiz-adv-x="1057" arabic-form="isolated" 
d="M1017 437l-3 -5q0 -14 -16 -39q-15 -24 -31 -31q-45 -21 -116 -21h-23q-7 0 -25 2q-24 -47 -38 -47q-4 0 -4 6q0 16 22 47q-41 17 -48 27q-40 -26 -50 -26q8 -143 25 -176q18 -35 84 -40l2 2q-21 15 -21 43q0 33 32 76q24 32 61 32q28 0 54 -17q24 -16 24 -31
q-26 9 -51 9q-35 0 -65 -14q-26 -14 -26 -27q0 -14 25 -39q26 -26 45 -29q19 2 68 18q52 17 66 25l-17 -37q-26 -14 -75 -28q-41 -12 -78 -19q-32 -6 -39 -6l1 1q-97 0 -119 73q-30 -65 -57 -65q-25 0 -66 44q-64 -56 -197 -56q-10 0 -38 2q-22 2 -32 3q4 -32 9 -52
q9 -36 23 -50q44 -44 176 -44q112 0 165 32q15 37 28 37q4 0 4 -8q0 -14 -12 -44q6 -13 27 -13q25 0 48 12q21 66 33 66q4 0 4 -11q0 -19 -10 -43q30 -13 45 -13q8 0 8 4q0 5 -8 39l17 36q12 -36 12 -52q0 -67 -44 -67q-23 0 -48 19q-17 -26 -60 -26q-48 0 -48 26
q-18 -14 -64 -24q-52 -11 -120 -11q-98 0 -144 28q-58 35 -60 126l-22 -32q-16 -25 -26 -27q12 -22 12 -42q0 -26 -16 -42q-8 -8 -21 -8q-18 0 -61 23q-14 -31 -42 -48q-7 -4 -24 -4q-16 -1 -21 -3l-11 -4q-6 0 -6 5q0 6 24 15q10 4 24 11q8 4 14 8l34 26q-10 17 -10 40
q0 22 18 41q18 21 34 21q2 0 6 -2q19 -10 30 -10q18 0 36 23l23 42q-38 12 -55 27q-28 25 -39 84h-2q-29 -50 -78 -50q-18 0 -39 8q-16 6 -16 12q0 25 43 58q41 31 84 45l-2 17l20 33q5 -60 10 -89q6 -36 13 -51q14 -32 55 -45l-13 132l19 43l17 -180q52 -6 95 -6
q104 0 177 40q12 38 19 38q4 0 4 -9t-4 -24q37 -35 59 -35q27 0 42 43l-13 161h-5q-70 0 -84 74h-2q-2 -6 -4 -14.5t-3 -10.5q-3 -9 -6 -16q-11 -25 -27 -30l2 -2q5 1 15 1q56 0 56 -40q0 -29 -25 -45q-85 -59 -160 -59q-46 0 -75 23q-28 22 -28 66q0 32 16 67q-29 8 -39 42
h-2q-16 -51 -55 -51q-47 0 -47 69v8l-27 -24q-7 -7 -39 -7q-49 0 -49 18q0 11 13 31q14 22 24 27l76 37v10l17 36l4 -120q1 -42 32 -42q16 0 29 10q15 11 17 23l-16 114l18 39l28 -161q9 -21 33 -21q23 0 23 13q0 22 -16 74l-10 32l-9 33l13 33q40 -123 40 -156
q0 -17 -10 -44q-12 -28 -24 -28q-5 0 -9 3q-7 -21 -7 -39q0 -75 91 -75q70 0 141 48q2 2 2 3q0 6 -38 12l-61 10q-4 3 -4 8q0 10 17 32q59 25 64 54q1 2 1 6v8q0 43 -5 106q-5 58 -15 125l17 56q24 -209 38 -255q18 -57 72 -66l-5 96l21 45l8 -140q13 4 29 14q15 9 31 22
l30 -21q17 -12 39 -15q10 10 27 24t39 30q52 38 70 38t41 -14q26 -15 26 -33zM1005 -3v1q0 -50 -39 -108q-42 -64 -89 -64q-24 0 -60 16q-37 15 -37 23q0 4 5 4q6 0 27 -7q24 -8 36 -8h2q66 0 138 106l-7 22q-20 -26 -37 -26q-7 0 -13 3q-7 3 -11 9q-6 8 -8 13q-4 9 -4 18
q0 23 15 51q16 31 27 31q14 0 33 -24q22 -26 22 -60zM755 523v-1q0 -11 26 -25l-9 -24q-33 11 -33 39q0 30 26 44q65 38 117 63q47 23 95 40l-9 -25q-34 -12 -117 -51q-96 -47 -96 -60zM473 442q-3 -67 -13 -73l-25 242l22 57zM599 32l-26 -31l-48 35l-28 -36l-50 36l29 35
l47 -35l27 33zM986 415l1 -1q0 7 -18 16q-17 9 -27 9q-22 0 -60 -24q-33 -21 -48 -34h8h12q13 0 41 2q21 1 42 6q49 9 49 26zM630 -127h-1q0 -22 -2 -30q-6 -13 -25 -13q-10 0 -14 4q-15 -16 -30 -16q-8 0 -18 9q-8 8 -12 8q-7 0 -36 -17q-28 -18 -69 -18q-44 0 -44 8
q0 7 32 7h30q11 0 17 2q15 3 36 16q29 19 40 19q7 0 18 -8t12 -8q15 0 18 17q1 13 11 13q4 0 4 -6v-4q0 -4 -1 -5q3 -4 11 -6q12 0 12 12q0 16 11 16zM812 699l-6 -22l-195 -96l4 25zM78 205l-1 -1q0 -10 31 -10q34 0 60 24l-2 38q-88 -34 -88 -51zM320 658v1q0 -32 -21 -32
q-11 0 -21 8q-18 -15 -30 -15q-21 0 -21 27q0 19 3 27l6 6v-7q0 -30 17 -30q11 0 18 16l-2 23l9 14l4 -30q1 -16 15 -16q13 0 12 15l-3 22l7 10q7 -18 7 -39zM110 439l1 1q0 -10 25 -10q29 0 51 13l-1 39l-21 -9l-21 -9q-13 -6 -25 -14q-9 -6 -9 -11zM153 5v1q-14 0 -14 -12
t26 -27q27 -15 39 -15q7 0 7 6q-5 20 -24 33q-19 14 -34 14zM961 -5q13 0 15 11q-6 32 -26 32q-16 0 -20 -25q4 -18 31 -18z" />
    <glyph glyph-name="uniFE80" unicode="&#x621;" horiz-adv-x="528" arabic-form="isolated" 
d="M30 0l-4 79h115v7q-6 6 -18 23q-8 12 -19 35q-9 20 -15 42t-6 44q0 44 15 82t42 63t63 39q37 14 78 14q84 0 132 -49q49 -50 53 -141h-69q-2 24 -10 42q-9 20 -24 35t-36 24t-45 9q-48 0 -80 -30t-32 -88q0 -29 9 -56q9 -28 25 -48q16 -21 39 -33t48 -12h192v-81h-453z
" />
    <glyph glyph-name="uniFE81" unicode="&#x622;" horiz-adv-x="215" arabic-form="isolated" 
d="M44 887v-3q19 0 32 -4l30 -9l30 -9q13 -4 30 -4q42 0 42 31h32q0 -35 -20 -57q-20 -21 -48 -21q-14 0 -31 5q-20 6 -30 10t-30 10q-17 5 -31 5q-42 0 -42 -32h-32q0 35 20 57q20 21 48 21zM65 -3v715h85v-715h-85z" />
    <glyph glyph-name="uniFE82" unicode="&#x622;" horiz-adv-x="240" arabic-form="final" 
d="M64 886v-3q19 0 32 -4l30 -9l30 -9q13 -4 30 -4q42 0 42 31h32q0 -35 -20 -57q-20 -21 -48 -21q-14 0 -31 5q-20 6 -30 10t-30 10q-17 5 -31 5q-42 0 -42 -32h-32q0 35 20 57q20 21 48 21zM240 78h1q6 0 14 -2q6 -2 6 -12v-56q0 -11 -21 -11h-175v715h85v-634h90z" />
    <glyph glyph-name="uniFE83" unicode="&#x623;" horiz-adv-x="215" arabic-form="isolated" 
d="M24 820l40 2v3q-7 7 -13 21t-6 27q0 33 19 53q20 21 57 21q29 0 50 -18q22 -18 23 -54h-35q-2 14 -12 26q-11 12 -27 12t-26 -12q-11 -13 -11 -34q0 -23 12 -35t30 -12h72v-36h-173v36zM67 2v715h85v-715h-85z" />
    <glyph glyph-name="uniFE84" unicode="&#x623;" horiz-adv-x="240" arabic-form="final" 
d="M24 820l40 2v3q-7 7 -13 21t-6 27q0 33 19 53q20 21 57 21q29 0 50 -18q22 -18 23 -54h-35q-2 14 -12 26q-11 12 -27 12t-26 -12q-11 -13 -11 -34q0 -23 12 -35t30 -12h72v-36h-173v36zM242 83h1q6 0 14 -2q6 -1 6 -12v-56q0 -11 -21 -11h-175v715h85v-634h90z" />
    <glyph glyph-name="uniFE85" unicode="&#x624;" horiz-adv-x="531" arabic-form="isolated" 
d="M49 662l40 2v3q-7 7 -13 21t-6 27q0 33 19 53q19 21 57 21q29 0 50 -18q22 -18 23 -54h-35q-2 14 -12 26t-27 12q-15 0 -26 -12q-11 -13 -11 -34q0 -23 12 -35t30 -12h72v-36h-173v36zM188 -156q43 0 72 7q33 8 56 25q25 19 41 48q16 30 27 77h-117q-53 0 -93 18t-69 50
q-27 30 -43 74q-15 42 -15 92q0 49 12 96q12 45 38 82q25 36 68 57q42 21 104 21q61 0 104 -20t68 -58q26 -39 36 -94q11 -58 11 -126q0 -124 -16 -204q-16 -82 -51 -133t-88 -72q-54 -21 -130 -21q-16 0 -36 2q-13 1 -26 5q-13 5 -20 9v81q13 -7 32 -12q16 -4 35 -4z
M400 199l-1 -1q0 108 -33 159t-98 51q-35 0 -58 -13q-25 -14 -41 -36q-17 -23 -24 -54q-8 -34 -8 -69q0 -153 131 -153h128q2 25 3 54q1 19 1 62z" />
    <glyph glyph-name="uniFE86" unicode="&#x624;" horiz-adv-x="623" arabic-form="final" 
d="M54 662l40 2v3q-7 7 -13 21t-6 27q0 33 19 53q20 21 57 21q29 0 50 -18q22 -18 23 -54h-35q-2 14 -12 26q-11 12 -27 12t-26 -12q-11 -13 -11 -34q0 -23 12 -35t30 -12h72v-36h-173v36zM203 -236l-6 -2q-16 0 -38 2q-14 1 -29 5q-14 5 -24 9v81q14 -7 36 -12q20 -4 42 -4
q42 0 75 6t57 24q25 19 41 48q17 31 26 80h-118q-53 0 -93 18t-69 50q-27 30 -43 74q-15 42 -15 92q0 49 12 96q12 45 38 82q25 36 68 57q42 21 104 21q61 0 104 -20t68 -58q26 -39 36 -94q11 -58 11 -126q0 -40 -1 -58q-2 -36 -3 -53h141q6 0 14 -2q6 -2 6 -12v-56
q0 -11 -21 -11h-151q-12 -66 -33 -111q-21 -44 -54 -73q-34 -29 -78 -41q-45 -12 -103 -12zM262 81l126 -1q2 26 3 54q1 19 1 62q0 109 -31 159q-31 51 -99 51q-35 0 -58 -13q-25 -14 -41 -36q-17 -23 -24 -54q-8 -34 -8 -69q0 -151 131 -153z" />
    <glyph glyph-name="uniFE87" unicode="&#x625;" horiz-adv-x="215" arabic-form="isolated" 
d="M36 -222l40 2v3q-7 7 -13 21t-6 27q0 33 19 53q20 21 57 21q29 0 50 -18q22 -18 23 -54h-35q-2 14 -12 26q-11 12 -27 12t-26 -12q-11 -13 -11 -34q0 -23 12 -35t30 -12h72v-36h-173v36zM67 2v715h85v-715h-85z" />
    <glyph glyph-name="uniFE88" unicode="&#x625;" horiz-adv-x="240" arabic-form="final" 
d="M50 -222l40 2v3q-7 7 -13 21t-6 27q0 33 19 53q20 21 57 21q29 0 50 -18q22 -18 23 -54h-35q-2 14 -12 26q-11 12 -27 12t-26 -12q-11 -13 -11 -34q0 -23 12 -35t30 -12h72v-36h-173v36zM242 83h1q6 0 14 -2q6 -1 6 -12v-56q0 -11 -21 -11h-175v715h85v-634h90z" />
    <glyph glyph-name="uniFE89" unicode="&#x626;" horiz-adv-x="779" arabic-form="isolated" 
d="M38 365l40 2v3q-7 7 -13 21q-6 13 -6 27q0 33 19 53q20 21 57 21q29 0 50 -18q22 -18 23 -54h-35q-2 14 -12 26q-11 12 -27 12t-26 -12q-11 -13 -11 -34q0 -23 12 -35t30 -12h72v-36h-173v36zM397 -155l-5 5q56 0 99 7q45 7 81 23q34 15 54 39q20 25 20 57q0 20 -7 33
q-8 14 -25 24q-19 11 -49 21q-5 2 -32.5 11.5t-46.5 15.5q-81 27 -124 77t-43 120q0 40 11 81q10 38 35 69t63 50t96 19q87 0 138 -54q50 -53 58 -154h-75q-8 67 -40 96q-33 30 -79 30q-54 0 -87 -36t-33 -103q0 -26 12 -45q11 -19 33 -34q18 -13 53 -28q29 -13 71 -27
q85 -28 123 -68t38 -100q0 -43 -20 -81t-61 -66q-42 -29 -106 -45q-63 -16 -153 -16q-100 0 -167 24q-68 24 -110 71q-41 45 -61 113q-19 66 -21 149h80q0 -85 19 -138q19 -54 55 -85q35 -31 88 -43t118 -12z" />
    <glyph glyph-name="uniFE8A" unicode="&#x626;" horiz-adv-x="754" arabic-form="final" 
d="M36 303l40 2v3q-7 7 -13 21q-6 13 -6 27q0 33 19 53q20 21 57 21q29 0 50 -18q22 -18 23 -54h-35q-2 14 -12 26q-11 12 -27 12t-26 -12q-11 -13 -11 -34q0 -23 12 -35t30 -12h72v-36h-173v36zM399 -276l-2 -4q-98 0 -164 28q-68 29 -111 79t-64 123q-20 70 -22 159h80
q1 -154 69 -229q67 -75 213 -75q46 0 92 8q43 7 76 24q31 16 52 41q19 23 19 57q0 31 -18 49t-41 18q-17 0 -49 8q-29 7 -58 27v77q11 -7 31 -13q15 -5 40 -10q21 -5 42 -6q28 -2 36 -2h136q6 0 14 -2q6 -1 6 -12v-56q0 -11 -21 -11h-78q13 -15 21 -39q8 -26 8 -44
q0 -39 -21 -75t-60 -63t-96 -42t-130 -15z" />
    <glyph glyph-name="uniFE8B" unicode="&#x626;" horiz-adv-x="372" arabic-form="initial" 
d="M134 538l40 2v3q-7 7 -13 21t-6 27q0 33 19 53q20 21 57 21q29 0 50 -18q22 -18 23 -54h-35q-2 14 -12 26q-11 12 -27 12t-26 -12q-11 -13 -11 -34q0 -23 12 -35t30 -12h72v-36h-173v36zM201 83l1 345h85v-426h-284q-21 0 -21 11v56q0 11 6 12q8 2 14 2h199z" />
    <glyph glyph-name="uniFE8C" unicode="&#x626;" horiz-adv-x="475" arabic-form="medial" 
d="M167 572l40 2v3q-7 7 -13 21t-6 27q0 33 19 53q19 21 57 21q29 0 50 -18q22 -18 23 -54h-35q-2 14 -12 26t-27 12q-15 0 -26 -12q-11 -13 -11 -34q0 -23 12 -35t30 -12h72v-36h-173v36zM434 2l-2 1q-22 0 -43 7q-24 8 -42 19t-34 27q-14 14 -22 33q-22 -45 -62 -66
q-39 -21 -83 -21h-144q-21 0 -21 11v56q0 11 6 12q8 2 14 2h145q34 0 60 23q25 22 25 78v245h84v-210q0 -30 9 -55q8 -24 26 -43q16 -17 39 -28q21 -10 46 -10h43q6 0 14 -2q6 -1 6 -12v-56q0 -11 -21 -11h-43z" />
    <glyph glyph-name="uniFE8D" unicode="&#x627;" horiz-adv-x="215" arabic-form="isolated" 
d="M65 0v715h85v-715h-85z" />
    <glyph glyph-name="uniFE8E" unicode="&#x627;" horiz-adv-x="240" arabic-form="final" 
d="M240 81h1q6 0 14 -2q6 -1 6 -12v-56q0 -11 -21 -11h-175v715h85v-634h90z" />
    <glyph glyph-name="uniFE8F" unicode="&#x628;" horiz-adv-x="970" arabic-form="isolated" 
d="M467 -95h85v-117h-85v117zM820 81l-1 346h85v-426h-646q-44 0 -81 12t-66 39q-28 27 -45 71q-16 42 -16 108v67h78v-68q0 -77 33 -113t98 -36h561z" />
    <glyph glyph-name="uniFE90" unicode="&#x628;" horiz-adv-x="1056" arabic-form="final" 
d="M463 -95h85v-117h-85v117zM1022 0l-2 -1q-22 0 -43 7q-24 8 -42 19t-34 27q-14 14 -22 33q-22 -45 -62 -66q-39 -21 -83 -21h-475q-43 0 -81 12t-66 39t-45 71q-16 42 -16 108v67h78v-68q0 -77 33 -113t98 -36h476q34 0 60 23q25 22 25 78v245h84v-216q0 -28 9 -52
q8 -22 26 -40q17 -17 38 -26t45 -9h34q6 0 14 -2q6 -1 6 -12v-56q0 -11 -21 -11h-34z" />
    <glyph glyph-name="uniFE91" unicode="&#x628;" horiz-adv-x="351" arabic-form="initial" 
d="M201 -95h85v-117h-85v117zM199 81l1 345h85v-426h-284q-21 0 -21 11v56q0 11 6 12q8 2 14 2h199z" />
    <glyph glyph-name="uniFE92" unicode="&#x628;" horiz-adv-x="475" arabic-form="medial" 
d="M231 -95h85v-117h-85v117zM432 0l-2 1q-22 0 -43 7q-24 8 -42 19t-34 27q-14 14 -22 33q-22 -45 -62 -66q-39 -21 -83 -21h-144q-21 0 -21 11v56q0 11 6 12q8 2 14 2h145q34 0 60 23q25 22 25 78v245h84v-210q0 -29 9 -55q8 -24 26 -43q16 -17 39 -28q21 -10 46 -10h43
q6 0 14 -2q6 -1 6 -12v-56q0 -11 -21 -11h-43z" />
    <glyph glyph-name="uniFE93" unicode="&#x629;" horiz-adv-x="556" arabic-form="isolated" 
d="M340 715h85v-117h-85v117zM169 715h85v-117h-85v117zM278 -11v-1q-56 0 -99 18t-73 51t-45 79t-15 102t15 102q15 47 45 80t73 51t99 18t99 -18t73 -51t45 -79q15 -47 15 -102t-15 -102q-15 -46 -45 -79t-73 -51t-99 -18zM278 71l-2 -2q38 0 65 12q26 12 45 35
q18 22 27 54t9 69t-9 69t-27 54q-19 23 -45 35q-27 12 -64 12t-64 -12q-28 -12 -45 -34q-18 -23 -27 -54t-9 -69t9 -69t27 -54q17 -22 45 -34q27 -12 65 -12z" />
    <glyph glyph-name="uniFE94" unicode="&#x629;" horiz-adv-x="592" arabic-form="final" 
d="M323 715h85v-117h-85v117zM152 715h85v-117h-85v117zM564 0l-5 -3q-31 0 -57 9q-25 9 -46 24q-20 14 -34 36q-15 23 -23 45q-23 -32 -60 -56t-87 -24q-38 0 -75 12q-36 11 -67 38q-30 25 -48 66t-18 96q0 48 12 90t37 73t66 49q40 18 98 18h211v-267q0 -35 8 -61
q8 -25 21 -38q14 -15 31 -20q18 -6 37 -6h28q6 0 14 -2q6 -1 6 -12v-56q0 -11 -21 -11h-28zM248 114l-3 -4q22 0 48 8q23 7 42 23q18 15 30 39t12 57v151h-127q-29 0 -50 -10q-22 -10 -40 -30t-27 -46q-9 -27 -9 -60q0 -32 11 -57q10 -24 28 -40q18 -17 40 -24q21 -7 45 -7z
" />
    <glyph glyph-name="uniFE95" unicode="&#x62a;" horiz-adv-x="970" arabic-form="isolated" 
d="M518 628h85v-117h-85v117zM347 628h85v-117h-85v117zM820 81l-1 346h85v-426h-646q-44 0 -81 12t-66 39q-28 27 -45 71q-16 42 -16 108v67h78v-68q0 -77 33 -113t98 -36h561z" />
    <glyph glyph-name="uniFE96" unicode="&#x62a;" horiz-adv-x="1056" arabic-form="final" 
d="M506 627h85v-117h-85v117zM335 627h85v-117h-85v117zM1022 0l-2 -1q-22 0 -43 7q-24 8 -42 19t-34 27q-14 14 -22 33q-22 -45 -62 -66q-39 -21 -83 -21h-475q-43 0 -81 12t-66 39t-45 71q-16 42 -16 108v67h78v-68q0 -77 33 -113t98 -36h476q34 0 60 23q25 22 25 78v245
h84v-216q0 -28 9 -52q8 -22 26 -40q17 -17 38 -26t45 -9h34q6 0 14 -2q6 -1 6 -12v-56q0 -11 -21 -11h-34z" />
    <glyph glyph-name="uniFE97" unicode="&#x62a;" horiz-adv-x="363" arabic-form="initial" 
d="M213 715h85v-117h-85v117zM42 715h85v-117h-85v117zM199 81l1 345h85v-426h-284q-21 0 -21 11v56q0 11 6 12q8 2 14 2h199z" />
    <glyph glyph-name="uniFE98" unicode="&#x62a;" horiz-adv-x="475" arabic-form="medial" 
d="M309 715h85v-117h-85v117zM138 715h85v-117h-85v117zM432 0l-2 1q-22 0 -43 7q-24 8 -42 19t-34 27q-14 14 -22 33q-22 -45 -62 -66q-39 -21 -83 -21h-144q-21 0 -21 11v56q0 11 6 12q8 2 14 2h145q34 0 60 23q25 22 25 78v245h84v-210q0 -29 9 -55q8 -24 26 -43
q16 -17 39 -28q21 -10 46 -10h43q6 0 14 -2q6 -1 6 -12v-56q0 -11 -21 -11h-43z" />
    <glyph glyph-name="uniFE99" unicode="&#x62b;" horiz-adv-x="970" arabic-form="isolated" 
d="M440 781h85v-117h-85v117zM525 627h85v-117h-85v117zM354 627h85v-117h-85v117zM820 81l-1 346h85v-426h-646q-44 0 -81 12t-66 39q-28 27 -45 71q-16 42 -16 108v67h78v-68q0 -77 33 -113t98 -36h561z" />
    <glyph glyph-name="uniFE9A" unicode="&#x62b;" horiz-adv-x="1056" arabic-form="final" 
d="M430 781h85v-117h-85v117zM515 627h85v-117h-85v117zM344 627h85v-117h-85v117zM1022 0l-2 -1q-22 0 -43 7q-24 8 -42 19t-34 27q-14 14 -22 33q-22 -45 -62 -66q-39 -21 -83 -21h-475q-43 0 -81 12t-66 39t-45 71q-16 42 -16 108v67h78v-68q0 -77 33 -113t98 -36h476
q34 0 60 23q25 22 25 78v245h84v-216q0 -28 9 -52q8 -22 26 -40q17 -17 38 -26t45 -9h34q6 0 14 -2q6 -1 6 -12v-56q0 -11 -21 -11h-34z" />
    <glyph glyph-name="uniFE9B" unicode="&#x62b;" horiz-adv-x="364" arabic-form="initial" 
d="M129 869h85v-117h-85v117zM214 715h85v-117h-85v117zM43 715h85v-117h-85v117zM199 81l1 345h85v-426h-284q-21 0 -21 11v56q0 11 6 12q8 2 14 2h199z" />
    <glyph glyph-name="uniFE9C" unicode="&#x62b;" horiz-adv-x="475" arabic-form="medial" 
d="M233 869h85v-117h-85v117zM318 715h85v-117h-85v117zM147 715h85v-117h-85v117zM432 0l-2 1q-22 0 -43 7q-24 8 -42 19t-34 27q-14 14 -22 33q-22 -45 -62 -66q-39 -21 -83 -21h-144q-21 0 -21 11v56q0 11 6 12q8 2 14 2h145q34 0 60 23q25 22 25 78v245h84v-210
q0 -29 9 -55q8 -24 26 -43q16 -17 39 -28q21 -10 46 -10h43q6 0 14 -2q6 -1 6 -12v-56q0 -11 -21 -11h-43z" />
    <glyph glyph-name="uniFE9D" unicode="&#x62c;" horiz-adv-x="667" arabic-form="isolated" 
d="M310 -66h77v-105h-77v105zM250 81l262 -4q0 1 -1 3.5t-1.5 5t-1.5 6.5t-2 7q-4 17 -9 36t-9 42q-1 5 -7 41q-15 94 -57 141t-97 47q-71 0 -114 -39q-44 -40 -56 -102h-82q4 44 24 85t53 71t78 48t98 18t95 -21q43 -21 72 -58q30 -38 48 -88q19 -53 26 -111q9 -64 13 -88
q3 -18 11 -54q5 -21 9 -36t9 -33h-351q-67 0 -108 -32q-40 -31 -40 -78q0 -34 9 -63q9 -27 32 -63h-78q-19 26 -33 57q-13 30 -13 74q0 39 13 72q14 35 40 60q28 26 69 41q46 16 99 15z" />
    <glyph glyph-name="uniFE9E" unicode="&#x62c;" horiz-adv-x="761" arabic-form="final" 
d="M322 -66h77v-105h-77v105zM512 81l1 153q0 40 -12 72t-33 54t-49 34q-29 12 -60 12q-71 0 -120 -39t-61 -102h-82q5 46 25 85q22 42 55 71q34 30 81 48t102 18q57 0 102 -18q46 -18 75 -52q31 -36 47 -82q17 -49 17 -108v-45q0 -53 31 -78q32 -26 76 -26h56q6 0 14 -2
q6 -2 6 -12v-56q0 -11 -21 -11h-57q-12 0 -30 5q-17 5 -31 13q-15 9 -27 21t-18 27h-2q-2 -14 -7 -29q-6 -17 -20 -36h-309q-41 0 -69 -9t-46 -24t-26 -35q-8 -21 -8 -42q0 -34 9 -63q9 -27 32 -63h-78q-19 26 -33 57q-13 30 -13 74q0 39 13 72q14 35 40 60q28 26 69 41
q42 15 99 15h262z" />
    <glyph glyph-name="uniFE9F" unicode="&#x62c;" horiz-adv-x="728" arabic-form="initial" 
d="M290 -95h85v-117h-85v117zM355 410l-1 -1q-32 0 -63 -12q-32 -12 -58 -31q-27 -20 -45 -45q-19 -26 -23 -54h-82q4 44 27 85q23 42 58 71q36 30 84 48t104 18q62 0 110 -21q50 -22 83 -58q36 -39 56 -88q22 -53 29 -111q9 -64 13 -88q9 -48 10 -54q5 -21 9 -36t9 -33
h-673q-21 0 -21 11v56q0 11 6 12q8 2 14 2h576q0 1 -1 3.5t-1.5 5t-1.5 6.5t-2 7q-5 17 -9 36t-9 42q-1 5 -7 41q-15 95 -67 141q-53 47 -124 47z" />
    <glyph glyph-name="uniFEA0" unicode="&#x62c;" horiz-adv-x="787" arabic-form="medial" 
d="M301 -95h85v-117h-85v117zM547 81l-2 156q0 41 -18 72q-18 32 -46 54t-64 34t-72 12q-31 0 -63 -12t-58 -31q-27 -20 -45 -45q-19 -26 -23 -54h-82q4 44 27 85q23 42 58 71q36 30 84 48t104 18q61 0 114 -18t91 -52q39 -35 60 -82q21 -48 21 -108v-45q0 -53 31 -78
q32 -26 76 -26h47q6 0 14 -2q6 -2 6 -12v-56q0 -11 -21 -11h-48q-12 0 -29 5t-30 13q-14 8 -25 21t-17 27h-4q-2 -14 -7 -29q-6 -17 -20 -36h-605q-21 0 -21 11v56q0 11 6 12q8 2 14 2h547z" />
    <glyph glyph-name="uniFEA1" unicode="&#x62d;" horiz-adv-x="667" arabic-form="isolated" 
d="M250 81l262 -4q0 1 -1 3.5t-1.5 5t-1.5 6.5t-2 7q-4 17 -9 36t-9 42q-1 5 -7 41q-15 94 -57 141t-97 47q-71 0 -114 -39q-44 -40 -56 -102h-82q4 44 24 85t53 71t78 48t98 18t95 -21q43 -21 72 -58q30 -38 48 -88q19 -53 26 -111q9 -64 13 -88q3 -18 11 -54q5 -21 9 -36
t9 -33h-351q-67 0 -108 -32q-40 -31 -40 -78q0 -34 9 -63q9 -27 32 -63h-78q-19 26 -33 57q-13 30 -13 74q0 39 13 72q14 35 40 60q28 26 69 41q46 16 99 15z" />
    <glyph glyph-name="uniFEA2" unicode="&#x62d;" horiz-adv-x="761" arabic-form="final" 
d="M512 81l1 153q0 40 -12 72t-33 54t-49 34q-29 12 -60 12q-71 0 -120 -39t-61 -102h-82q5 46 25 85q22 42 55 71q34 30 81 48t102 18q57 0 102 -18q46 -18 75 -52q31 -36 47 -82q17 -49 17 -108v-45q0 -53 31 -78q32 -26 76 -26h56q6 0 14 -2q6 -2 6 -12v-56
q0 -11 -21 -11h-57q-12 0 -30 5q-17 5 -31 13q-15 9 -27 21t-18 27h-2q-2 -14 -7 -29q-6 -17 -20 -36h-309q-41 0 -69 -9t-46 -24t-26 -35q-8 -21 -8 -42q0 -34 9 -63q9 -27 32 -63h-78q-19 26 -33 57q-13 30 -13 74q0 39 13 72q14 35 40 60q28 26 69 41q42 15 99 15h262z
" />
    <glyph glyph-name="uniFEA3" unicode="&#x62d;" horiz-adv-x="728" arabic-form="initial" 
d="M355 410l-1 -1q-32 0 -63 -12q-32 -12 -58 -31q-27 -20 -45 -45q-19 -26 -23 -54h-82q4 44 27 85q23 42 58 71q36 30 84 48t104 18q62 0 110 -21q50 -22 83 -58q36 -39 56 -88q22 -53 29 -111q9 -64 13 -88q9 -48 10 -54q5 -21 9 -36t9 -33h-673q-21 0 -21 11v56
q0 11 6 12q8 2 14 2h576q0 1 -1 3.5t-1.5 5t-1.5 6.5t-2 7q-5 17 -9 36t-9 42q-1 5 -7 41q-15 95 -67 141q-53 47 -124 47z" />
    <glyph glyph-name="uniFEA4" unicode="&#x62d;" horiz-adv-x="787" arabic-form="medial" 
d="M547 81l-2 156q0 41 -18 72q-18 32 -46 54t-64 34t-72 12q-31 0 -63 -12t-58 -31q-27 -20 -45 -45q-19 -26 -23 -54h-82q4 44 27 85q23 42 58 71q36 30 84 48t104 18q61 0 114 -18t91 -52q39 -35 60 -82q21 -48 21 -108v-45q0 -53 31 -78q32 -26 76 -26h47q6 0 14 -2
q6 -2 6 -12v-56q0 -11 -21 -11h-48q-12 0 -29 5t-30 13q-14 8 -25 21t-17 27h-4q-2 -14 -7 -29q-6 -17 -20 -36h-605q-21 0 -21 11v56q0 11 6 12q8 2 14 2h547z" />
    <glyph glyph-name="uniFEA5" unicode="&#x62e;" horiz-adv-x="667" arabic-form="isolated" 
d="M278 715h85v-117h-85v117zM250 81l262 -4q0 1 -1 3.5t-1.5 5t-1.5 6.5t-2 7q-4 17 -9 36t-9 42q-1 5 -7 41q-15 94 -57 141t-97 47q-71 0 -114 -39q-44 -40 -56 -102h-82q4 44 24 85t53 71t78 48t98 18t95 -21q43 -21 72 -58q30 -38 48 -88q19 -53 26 -111q9 -64 13 -88
q3 -18 11 -54q5 -21 9 -36t9 -33h-351q-67 0 -108 -32q-40 -31 -40 -78q0 -34 9 -63q9 -27 32 -63h-78q-19 26 -33 57q-13 30 -13 74q0 39 13 72q14 35 40 60q28 26 69 41q46 16 99 15z" />
    <glyph glyph-name="uniFEA6" unicode="&#x62e;" horiz-adv-x="761" arabic-form="final" 
d="M317 715h85v-117h-85v117zM512 81l1 153q0 40 -12 72t-33 54t-49 34q-29 12 -60 12q-71 0 -120 -39t-61 -102h-82q5 46 25 85q22 42 55 71q34 30 81 48t102 18q57 0 102 -18q46 -18 75 -52q31 -36 47 -82q17 -49 17 -108v-45q0 -53 31 -78q32 -26 76 -26h56q6 0 14 -2
q6 -2 6 -12v-56q0 -11 -21 -11h-57q-12 0 -30 5q-17 5 -31 13q-15 9 -27 21t-18 27h-2q-2 -14 -7 -29q-6 -17 -20 -36h-309q-41 0 -69 -9t-46 -24t-26 -35q-8 -21 -8 -42q0 -34 9 -63q9 -27 32 -63h-78q-19 26 -33 57q-13 30 -13 74q0 39 13 72q14 35 40 60q28 26 69 41
q42 15 99 15h262z" />
    <glyph glyph-name="uniFEA7" unicode="&#x62e;" horiz-adv-x="728" arabic-form="initial" 
d="M317 715h85v-117h-85v117zM355 410l-1 -1q-32 0 -63 -12q-32 -12 -58 -31q-27 -20 -45 -45q-19 -26 -23 -54h-82q4 44 27 85q23 42 58 71q36 30 84 48t104 18q62 0 110 -21q50 -22 83 -58q36 -39 56 -88q22 -53 29 -111q9 -64 13 -88q9 -48 10 -54q5 -21 9 -36t9 -33
h-673q-21 0 -21 11v56q0 11 6 12q8 2 14 2h576q0 1 -1 3.5t-1.5 5t-1.5 6.5t-2 7q-5 17 -9 36t-9 42q-1 5 -7 41q-15 95 -67 141q-53 47 -124 47z" />
    <glyph glyph-name="uniFEA8" unicode="&#x62e;" horiz-adv-x="787" arabic-form="medial" 
d="M316 716h85v-117h-85v117zM547 81l-2 156q0 41 -18 72q-18 32 -46 54t-64 34t-72 12q-31 0 -63 -12t-58 -31q-27 -20 -45 -45q-19 -26 -23 -54h-82q4 44 27 85q23 42 58 71q36 30 84 48t104 18q61 0 114 -18t91 -52q39 -35 60 -82q21 -48 21 -108v-45q0 -53 31 -78
q32 -26 76 -26h47q6 0 14 -2q6 -2 6 -12v-56q0 -11 -21 -11h-48q-12 0 -29 5t-30 13q-14 8 -25 21t-17 27h-4q-2 -14 -7 -29q-6 -17 -20 -36h-605q-21 0 -21 11v56q0 11 6 12q8 2 14 2h547z" />
    <glyph glyph-name="uniFEA9" unicode="&#x62f;" horiz-adv-x="479" arabic-form="isolated" 
d="M50 0l-3 82h290v127q0 35 -9 70t-28 60q-20 26 -48 41t-69 15h-92v80h77q56 0 102 -15t81 -48t54 -84q19 -50 19 -123v-205h-374z" />
    <glyph glyph-name="uniFEAA" unicode="&#x62f;" horiz-adv-x="578" arabic-form="final" 
d="M578 81l-4 -1q6 0 14 -2q6 -2 6 -12v-56q0 -11 -21 -11h-48q-12 0 -29 5t-30 13q-14 8 -25 21t-17 27h-4q-2 -14 -7 -29q-6 -17 -20 -36h-346v81h290v127q0 36 -9 70q-9 35 -28 60q-20 26 -48 41t-69 15h-92v80h77q56 0 102 -15t81 -48t54 -84q19 -50 19 -123v-14
q0 -55 31 -82t76 -27h47z" />
    <glyph glyph-name="uniFEAB" unicode="&#x630;" horiz-adv-x="479" arabic-form="isolated" 
d="M126 716h85v-117h-85v117zM50 0l-3 82h290v127q0 35 -9 70t-28 60q-20 26 -48 41t-69 15h-92v80h77q56 0 102 -15t81 -48t54 -84q19 -50 19 -123v-205h-374z" />
    <glyph glyph-name="uniFEAC" unicode="&#x630;" horiz-adv-x="578" arabic-form="final" 
d="M133 715h85v-117h-85v117zM578 81l-4 -1q6 0 14 -2q6 -2 6 -12v-56q0 -11 -21 -11h-48q-12 0 -29 5t-30 13q-14 8 -25 21t-17 27h-4q-2 -14 -7 -29q-6 -17 -20 -36h-346v81h290v127q0 36 -9 70q-9 35 -28 60q-20 26 -48 41t-69 15h-92v80h77q56 0 102 -15t81 -48t54 -84
q19 -50 19 -123v-14q0 -55 31 -82t76 -27h47z" />
    <glyph glyph-name="uniFEAD" unicode="&#x631;" horiz-adv-x="320" arabic-form="isolated" 
d="M85 -156v-1q20 0 36 8t26 25q11 19 17 47q6 29 6 72v430h85v-430q0 -114 -36 -174t-122 -60q-21 0 -36 3q-17 3 -24 7q-11 5 -18 9v81q32 -17 66 -17z" />
    <glyph glyph-name="uniFEAE" unicode="&#x631;" horiz-adv-x="414" arabic-form="final" 
d="M414 81l1 -2q6 0 14 -2q6 -1 6 -12v-56q0 -11 -21 -11h-53q-14 0 -32 5q-17 5 -32 15t-27 24t-15 30v-78q0 -114 -36 -174t-122 -60q-21 0 -36 3q-17 3 -24 7q-11 4 -18 9v81q32 -17 66 -17q20 0 36 8t26 25q11 19 17 47q6 29 6 72v430h85v-235q0 -55 31 -82
q32 -27 76 -27h52z" />
    <glyph glyph-name="uniFEAF" unicode="&#x632;" horiz-adv-x="333" arabic-form="isolated" 
d="M170 715h85v-117h-85v117zM85 -156v-1q20 0 36 8t26 25q11 19 17 47q6 29 6 72v430h85v-430q0 -114 -36 -174t-122 -60q-21 0 -36 3q-17 3 -24 7q-11 5 -18 9v81q32 -17 66 -17z" />
    <glyph glyph-name="uniFEB0" unicode="&#x632;" horiz-adv-x="414" arabic-form="final" 
d="M170 715h85v-117h-85v117zM414 81l1 -2q6 0 14 -2q6 -1 6 -12v-56q0 -11 -21 -11h-53q-14 0 -32 5q-17 5 -32 15t-27 24t-15 30v-78q0 -114 -36 -174t-122 -60q-21 0 -36 3q-17 3 -24 7q-11 4 -18 9v81q32 -17 66 -17q20 0 36 8t26 25q11 19 17 47q6 29 6 72v430h85v-235
q0 -55 31 -82q32 -27 76 -27h52z" />
    <glyph glyph-name="uniFEB1" unicode="&#x633;" horiz-adv-x="1420" arabic-form="isolated" 
d="M380 -238l-2 2q-166 0 -256 109q-90 110 -90 322v66h83v-66q0 -174 62 -262q61 -87 198 -87q67 0 121 18q53 18 91 60q37 42 57 108q20 68 20 164v191h84v-206q0 -52 27 -76t79 -24t78 24t26 77v227h85v-224q0 -55 24 -77q25 -23 59 -23h141v345h86v-426h-226
q-12 0 -30 5q-15 4 -33 14q-16 9 -28 24q-11 14 -16 35h-2q-23 -43 -63 -62q-42 -20 -90 -20q-17 0 -37 3q-18 3 -36 11q-15 7 -30 20q-14 12 -21 30q-10 -60 -35 -118q-24 -55 -68 -96q-42 -39 -107 -64q-63 -24 -151 -24z" />
    <glyph glyph-name="uniFEB2" unicode="&#x633;" horiz-adv-x="1502" arabic-form="final" 
d="M380 -238l-8 -4q-166 0 -256 109q-90 110 -90 322v66h83v-66q0 -174 62 -262q61 -87 198 -87q67 0 121 18q53 18 91 60q37 42 57 108q20 68 20 164v191h84v-206q0 -52 27 -76t80 -24t78 24q26 24 26 77v227h85v-225q0 -53 31 -77t88 -24q53 0 78 24q26 24 26 77v248h85
v-246q0 -44 26 -72q26 -27 62 -27h62q6 0 14 -2q6 -1 6 -12v-56q0 -11 -21 -11h-62q-13 0 -30 6q-14 5 -31 17q-14 10 -27 26q-11 14 -16 35h-4q-22 -43 -63 -64q-40 -21 -90 -21q-22 0 -42 4q-25 5 -45 13q-22 9 -40 24t-27 36h-3q-22 -37 -62 -57q-38 -19 -86 -19
q-18 0 -37 3q-17 3 -37 11q-17 7 -31 21t-21 31q-10 -63 -35 -120q-24 -55 -68 -96q-42 -39 -107 -64q-63 -24 -151 -24z" />
    <glyph glyph-name="uniFEB3" unicode="&#x633;" horiz-adv-x="907" arabic-form="initial" 
d="M95 81l-2 -1q26 0 41 22t15 78v205h85v-208q0 -55 28 -77q29 -23 79 -23q53 0 78 24q26 24 26 77v227h85v-224q0 -55 24 -77q25 -23 60 -23h141v345h86v-426h-226q-12 0 -30 5q-16 4 -32 14q-15 9 -27 24q-11 14 -16 35h-3q-23 -43 -63 -62q-42 -20 -90 -20q-21 0 -40 4
t-39 14q-17 9 -31 24q-13 14 -19 36h-3q-26 -74 -113 -74h-108q-21 0 -21 11v56q0 11 6 12q8 2 14 2h95z" />
    <glyph glyph-name="uniFEB4" unicode="&#x633;" horiz-adv-x="987" arabic-form="medial" 
d="M95 81l-5 -5q26 0 41 22t15 78v205h85v-208q0 -52 27 -76t80 -24q52 0 78 24t26 77v227h85v-223q0 -53 32 -79q31 -25 87 -25q52 0 78 24t26 77v248h85v-246q0 -45 26 -73q25 -27 60 -27h62q6 0 14 -2q6 -1 6 -12v-56q0 -11 -21 -11h-62q-14 0 -30 6q-14 5 -31 17
q-14 10 -27 26q-11 14 -16 35h-4q-22 -43 -63 -64t-90 -21q-22 0 -42 4q-25 5 -45 13q-22 9 -40 24t-27 36h-3q-22 -37 -62 -57q-38 -19 -86 -19q-21 0 -40 4t-39 14q-17 9 -31 24q-13 14 -19 36h-3q-26 -74 -113 -74h-108q-21 0 -21 11v56q0 11 6 12q8 2 14 2h95z" />
    <glyph glyph-name="uniFEB5" unicode="&#x634;" horiz-adv-x="1420" arabic-form="isolated" 
d="M966 870h85v-117h-85v117zM1051 716h85v-117h-85v117zM880 716h85v-117h-85v117zM380 -238l-2 2q-166 0 -256 109q-90 110 -90 322v66h83v-66q0 -174 62 -262q61 -87 198 -87q67 0 121 18q53 18 91 60q37 42 57 108q20 68 20 164v191h84v-206q0 -52 27 -76t79 -24t78 24
t26 77v227h85v-224q0 -55 24 -77q25 -23 59 -23h141v345h86v-426h-226q-12 0 -30 5q-15 4 -33 14q-16 9 -28 24q-11 14 -16 35h-2q-23 -43 -63 -62q-42 -20 -90 -20q-17 0 -37 3q-18 3 -36 11q-15 7 -30 20q-14 12 -21 30q-10 -60 -35 -118q-24 -55 -68 -96
q-42 -39 -107 -64q-63 -24 -151 -24z" />
    <glyph glyph-name="uniFEB6" unicode="&#x634;" horiz-adv-x="1502" arabic-form="final" 
d="M971 869h85v-117h-85v117zM1056 715h85v-117h-85v117zM885 715h85v-117h-85v117zM380 -238l-8 -4q-166 0 -256 109q-90 110 -90 322v66h83v-66q0 -174 62 -262q61 -87 198 -87q67 0 121 18q53 18 91 60q37 42 57 108q20 68 20 164v191h84v-206q0 -52 27 -76t80 -24t78 24
q26 24 26 77v227h85v-225q0 -53 31 -77t88 -24q53 0 78 24q26 24 26 77v248h85v-246q0 -44 26 -72q26 -27 62 -27h62q6 0 14 -2q6 -1 6 -12v-56q0 -11 -21 -11h-62q-13 0 -30 6q-14 5 -31 17q-14 10 -27 26q-11 14 -16 35h-4q-22 -43 -63 -64q-40 -21 -90 -21q-22 0 -42 4
q-25 5 -45 13q-22 9 -40 24t-27 36h-3q-22 -37 -62 -57q-38 -19 -86 -19q-18 0 -37 3q-17 3 -37 11q-17 7 -31 21t-21 31q-10 -63 -35 -120q-24 -55 -68 -96q-42 -39 -107 -64q-63 -24 -151 -24z" />
    <glyph glyph-name="uniFEB7" unicode="&#x634;" horiz-adv-x="907" arabic-form="initial" 
d="M447 869h85v-117h-85v117zM532 715h85v-117h-85v117zM361 715h85v-117h-85v117zM95 81l-2 -1q26 0 41 22t15 78v205h85v-208q0 -55 28 -77q29 -23 79 -23q53 0 78 24q26 24 26 77v227h85v-224q0 -55 24 -77q25 -23 60 -23h141v345h86v-426h-226q-12 0 -30 5q-16 4 -32 14
q-15 9 -27 24q-11 14 -16 35h-3q-23 -43 -63 -62q-42 -20 -90 -20q-21 0 -40 4t-39 14q-17 9 -31 24q-13 14 -19 36h-3q-26 -74 -113 -74h-108q-21 0 -21 11v56q0 11 6 12q8 2 14 2h95z" />
    <glyph glyph-name="uniFEB8" unicode="&#x634;" horiz-adv-x="987" arabic-form="medial" 
d="M442 869h85v-117h-85v117zM527 715h85v-117h-85v117zM356 715h85v-117h-85v117zM95 81l-5 -5q26 0 41 22t15 78v205h85v-208q0 -52 27 -76t80 -24q52 0 78 24t26 77v227h85v-223q0 -53 32 -79q31 -25 87 -25q52 0 78 24t26 77v248h85v-246q0 -45 26 -73q25 -27 60 -27h62
q6 0 14 -2q6 -1 6 -12v-56q0 -11 -21 -11h-62q-14 0 -30 6q-14 5 -31 17q-14 10 -27 26q-11 14 -16 35h-4q-22 -43 -63 -64t-90 -21q-22 0 -42 4q-25 5 -45 13q-22 9 -40 24t-27 36h-3q-22 -37 -62 -57q-38 -19 -86 -19q-21 0 -40 4t-39 14q-17 9 -31 24q-13 14 -19 36h-3
q-26 -74 -113 -74h-108q-21 0 -21 11v56q0 11 6 12q8 2 14 2h95z" />
    <glyph glyph-name="uniFEB9" unicode="&#x635;" horiz-adv-x="1449" arabic-form="isolated" 
d="M380 -238l2 -1q-166 0 -256 109q-90 110 -90 322v65h84v-65q0 -174 62 -262q62 -87 197 -87q67 0 121 21t91 64q38 44 57 109q20 68 20 155v205h84v-203h5q33 49 72 95q42 50 90 89q49 40 107 66t122 26q115 0 181 -63t66 -184v-223h-669q-16 -50 -45 -93
q-28 -43 -70 -76t-99 -51t-132 -18zM1145 387h1q-39 0 -78 -18t-77 -47q-37 -28 -72 -63t-63 -69q-28 -33 -49 -64q-30 -43 -32 -46h539v145q0 42 -13 71q-14 31 -36 50q-23 20 -54 30q-33 11 -66 11z" />
    <glyph glyph-name="uniFEBA" unicode="&#x635;" horiz-adv-x="1549" arabic-form="final" 
d="M380 -238l3 -3q-166 0 -256 109q-90 110 -90 322v65h84v-65q0 -174 62 -262q61 -87 197 -87q67 0 121 21t91 64q38 44 57 109q20 68 20 155v205h84v-203h4q33 49 72 95q42 50 90 89q49 40 107 66t122 26q115 0 181 -63t66 -184v-32q0 -55 31 -82q32 -27 76 -27h49
q6 0 14 -2q6 -2 6 -12v-56q0 -11 -21 -11h-50q-12 0 -29 5t-30 13q-15 9 -27 21t-18 27h-3q-2 -14 -7 -29q-6 -17 -20 -36h-640q-16 -50 -45 -93q-28 -43 -70 -76t-99 -51t-132 -18zM1145 385h1q-39 0 -78 -18t-77 -47q-37 -28 -72 -63t-63 -69q-28 -33 -49 -64
q-30 -43 -32 -46h539v145q0 42 -13 71q-14 31 -36 50q-23 20 -54 30q-33 11 -66 11z" />
    <glyph glyph-name="uniFEBB" unicode="&#x635;" horiz-adv-x="914" arabic-form="initial" 
d="M859 0l-859 1q-21 0 -21 11v56q0 10 6 12q8 2 14 2h136v317h85v-198h4q32 45 72 93t90 87q49 38 106 64q56 25 120 25q115 0 181 -63t66 -184v-223zM608 389h1q-39 0 -78 -18t-77 -47q-38 -28 -72 -63t-63 -69q-28 -33 -49 -64q-30 -43 -32 -46h539v145q0 42 -13 71
q-14 31 -36 50q-22 20 -54 30q-33 11 -66 11z" />
    <glyph glyph-name="uniFEBC" unicode="&#x635;" horiz-adv-x="1015" arabic-form="medial" 
d="M0 0h-1q-21 0 -21 11v56q0 11 6 12q8 2 14 2h136v317h85v-198h4q31 45 72 93t90 87q49 38 106 64q56 25 120 25q115 0 181 -63t66 -184v-38q0 -53 31 -78q32 -26 76 -26h49q6 0 14 -2q6 -2 6 -12v-56q0 -11 -21 -11h-50q-12 0 -29 5t-30 13q-14 8 -25 21t-17 27h-4
q-2 -14 -7 -29q-6 -17 -20 -36h-831zM607 388h1q-39 0 -78 -18t-77 -47q-37 -29 -72 -63t-63 -69q-28 -33 -49 -64q-30 -43 -32 -46h539v145q0 42 -13 71q-14 31 -36 50q-23 19 -54 30q-33 11 -66 11z" />
    <glyph glyph-name="uniFEBD" unicode="&#x636;" horiz-adv-x="1449" arabic-form="isolated" 
d="M825 715h85v-117h-85v117zM380 -238l2 -1q-166 0 -256 109q-90 110 -90 322v65h84v-65q0 -174 62 -262q62 -87 197 -87q67 0 121 21t91 64q38 44 57 109q20 68 20 155v205h84v-203h5q33 49 72 95q42 50 90 89q49 40 107 66t122 26q115 0 181 -63t66 -184v-223h-669
q-16 -50 -45 -93q-28 -43 -70 -76t-99 -51t-132 -18zM1145 387h1q-39 0 -78 -18t-77 -47q-37 -28 -72 -63t-63 -69q-28 -33 -49 -64q-30 -43 -32 -46h539v145q0 42 -13 71q-14 31 -36 50q-23 20 -54 30q-33 11 -66 11z" />
    <glyph glyph-name="uniFEBE" unicode="&#x636;" horiz-adv-x="1549" arabic-form="final" 
d="M826 715h85v-117h-85v117zM380 -238l3 -3q-166 0 -256 109q-90 110 -90 322v65h84v-65q0 -174 62 -262q61 -87 197 -87q67 0 121 21t91 64q38 44 57 109q20 68 20 155v205h84v-203h4q33 49 72 95q42 50 90 89q49 40 107 66t122 26q115 0 181 -63t66 -184v-32
q0 -55 31 -82q32 -27 76 -27h49q6 0 14 -2q6 -2 6 -12v-56q0 -11 -21 -11h-50q-12 0 -29 5t-30 13q-15 9 -27 21t-18 27h-3q-2 -14 -7 -29q-6 -17 -20 -36h-640q-16 -50 -45 -93q-28 -43 -70 -76t-99 -51t-132 -18zM1145 385h1q-39 0 -78 -18t-77 -47q-37 -28 -72 -63
t-63 -69q-28 -33 -49 -64q-30 -43 -32 -46h539v145q0 42 -13 71q-14 31 -36 50q-23 20 -54 30q-33 11 -66 11z" />
    <glyph glyph-name="uniFEBF" unicode="&#x636;" horiz-adv-x="914" arabic-form="initial" 
d="M266 687h85v-117h-85v117zM859 0l-859 1q-21 0 -21 11v56q0 10 6 12q8 2 14 2h136v317h85v-198h4q32 45 72 93t90 87q49 38 106 64q56 25 120 25q115 0 181 -63t66 -184v-223zM608 389h1q-39 0 -78 -18t-77 -47q-38 -28 -72 -63t-63 -69q-28 -33 -49 -64q-30 -43 -32 -46
h539v145q0 42 -13 71q-14 31 -36 50q-22 20 -54 30q-33 11 -66 11z" />
    <glyph glyph-name="uniFEC0" unicode="&#x636;" horiz-adv-x="1015" arabic-form="medial" 
d="M267 687h85v-117h-85v117zM0 0h-1q-21 0 -21 11v56q0 11 6 12q8 2 14 2h136v317h85v-198h4q31 45 72 93t90 87q49 38 106 64q56 25 120 25q115 0 181 -63t66 -184v-38q0 -53 31 -78q32 -26 76 -26h49q6 0 14 -2q6 -2 6 -12v-56q0 -11 -21 -11h-50q-12 0 -29 5t-30 13
q-14 8 -25 21t-17 27h-4q-2 -14 -7 -29q-6 -17 -20 -36h-831zM607 388h1q-39 0 -78 -18t-77 -47q-37 -29 -72 -63t-63 -69q-28 -33 -49 -64q-30 -43 -32 -46h539v145q0 42 -13 71q-14 31 -36 50q-23 19 -54 30q-33 11 -66 11z" />
    <glyph glyph-name="uniFEC1" unicode="&#x637;" horiz-adv-x="888" arabic-form="isolated" 
d="M30 81l94 1v634h85v-494h4q31 44 72 87q42 45 87 80q45 34 101 58q55 23 113 23q115 0 181 -63t66 -184v-223h-803v81zM581 389h1q-39 0 -78 -18t-77 -47q-37 -28 -72 -63t-63 -69q-28 -33 -49 -64q-30 -43 -32 -46h539v145q0 42 -13 71q-14 31 -36 50q-23 20 -54 30
q-33 11 -66 11z" />
    <glyph glyph-name="uniFEC2" unicode="&#x637;" horiz-adv-x="970" arabic-form="final" 
d="M30 81h74v634h85v-494h4q31 43 72 87q42 45 87 80q45 34 101 58q55 23 113 23q115 0 181 -63t66 -184v-38q0 -51 31 -78q32 -27 76 -27h50q6 0 14 -2q6 -1 6 -12v-56q0 -11 -21 -11h-51q-12 0 -29 5q-15 5 -30 12q-13 7 -25 20q-11 13 -17 27h-4q-1 -7 -8 -28
q-5 -16 -20 -34h-755v81zM561 388h1q-39 0 -78 -18t-77 -47q-37 -29 -72 -63t-63 -69q-28 -33 -49 -64q-30 -43 -32 -46h539v145q0 42 -13 71q-14 31 -36 50q-23 19 -54 30q-33 11 -66 11z" />
    <glyph glyph-name="uniFEC3" unicode="&#x637;" horiz-adv-x="858" arabic-form="initial" 
d="M803 0l-803 1q-21 0 -21 11v56q0 10 6 12q8 2 14 2h95v634h85v-494h4q31 44 72 87q42 45 87 80q45 34 101 58q55 23 113 23q115 0 181 -63t66 -184v-223zM552 389h1q-39 0 -78 -18t-77 -47q-38 -28 -72 -63t-63 -69q-28 -33 -49 -64q-30 -43 -32 -46h539v145q0 42 -13 71
q-14 31 -36 50q-22 20 -54 30q-33 11 -66 11z" />
    <glyph glyph-name="uniFEC4" unicode="&#x637;" horiz-adv-x="960" arabic-form="medial" 
d="M960 81v-1q6 0 14 -2q6 -2 6 -12v-56q0 -11 -21 -11h-51q-12 0 -29 5q-15 4 -30 12q-13 7 -25 20q-11 13 -17 27h-4q-1 -7 -8 -28q-5 -16 -20 -34h-775q-21 0 -21 11v56q0 10 6 12q8 2 14 2h95v634h85v-494h4q31 44 72 87q42 45 87 80q45 34 101 58q55 23 113 23
q115 0 181 -63t66 -184v-38q0 -53 31 -78q32 -26 76 -26h50zM552 387h1q-39 0 -78 -18t-77 -47q-38 -28 -72 -63t-63 -69q-28 -33 -49 -64q-30 -43 -32 -46h539v145q0 42 -13 71q-14 31 -36 50q-22 20 -54 30q-33 11 -66 11z" />
    <glyph glyph-name="uniFEC5" unicode="&#x638;" horiz-adv-x="888" arabic-form="isolated" 
d="M400 687h85v-117h-85v117zM30 81l94 1v634h85v-494h4q31 44 72 87q42 45 87 80q45 34 101 58q55 23 113 23q115 0 181 -63t66 -184v-223h-803v81zM581 389h1q-39 0 -78 -18t-77 -47q-37 -28 -72 -63t-63 -69q-28 -33 -49 -64q-30 -43 -32 -46h539v145q0 42 -13 71
q-14 31 -36 50q-23 20 -54 30q-33 11 -66 11z" />
    <glyph glyph-name="uniFEC6" unicode="&#x638;" horiz-adv-x="970" arabic-form="final" 
d="M400 687h85v-117h-85v117zM30 81h74v634h85v-494h4q31 43 72 87q42 45 87 80q45 34 101 58q55 23 113 23q115 0 181 -63t66 -184v-38q0 -51 31 -78q32 -27 76 -27h50q6 0 14 -2q6 -1 6 -12v-56q0 -11 -21 -11h-51q-12 0 -29 5q-15 5 -30 12q-13 7 -25 20q-11 13 -17 27
h-4q-1 -7 -8 -28q-5 -16 -20 -34h-755v81zM561 388h1q-39 0 -78 -18t-77 -47q-37 -29 -72 -63t-63 -69q-28 -33 -49 -64q-30 -43 -32 -46h539v145q0 42 -13 71q-14 31 -36 50q-23 19 -54 30q-33 11 -66 11z" />
    <glyph glyph-name="uniFEC7" unicode="&#x638;" horiz-adv-x="858" arabic-form="initial" 
d="M379 687h85v-117h-85v117zM803 0l-803 1q-21 0 -21 11v56q0 10 6 12q8 2 14 2h95v634h85v-494h4q31 44 72 87q42 45 87 80q45 34 101 58q55 23 113 23q115 0 181 -63t66 -184v-223zM552 389h1q-39 0 -78 -18t-77 -47q-38 -28 -72 -63t-63 -69q-28 -33 -49 -64
q-30 -43 -32 -46h539v145q0 42 -13 71q-14 31 -36 50q-22 20 -54 30q-33 11 -66 11z" />
    <glyph glyph-name="uniFEC8" unicode="&#x638;" horiz-adv-x="960" arabic-form="medial" 
d="M381 687h85v-117h-85v117zM960 81v-1q6 0 14 -2q6 -2 6 -12v-56q0 -11 -21 -11h-51q-12 0 -29 5q-15 4 -30 12q-13 7 -25 20q-11 13 -17 27h-4q-1 -7 -8 -28q-5 -16 -20 -34h-775q-21 0 -21 11v56q0 10 6 12q8 2 14 2h95v634h85v-494h4q31 44 72 87q42 45 87 80
q45 34 101 58q55 23 113 23q115 0 181 -63t66 -184v-38q0 -53 31 -78q32 -26 76 -26h50zM552 387h1q-39 0 -78 -18t-77 -47q-38 -28 -72 -63t-63 -69q-28 -33 -49 -64q-30 -43 -32 -46h539v145q0 42 -13 71q-14 31 -36 50q-22 20 -54 30q-33 11 -66 11z" />
    <glyph glyph-name="uniFEC9" unicode="&#x639;" horiz-adv-x="577" arabic-form="isolated" 
d="M118 -117l-3 -4q0 -29 12 -60q11 -30 32 -60h-84q-18 23 -32 55q-15 34 -15 66q0 33 11 66q10 30 29 57q17 25 44 45q26 20 57 30v4q-15 12 -27 33t-21 45q-10 26 -14 50q-5 28 -5 47q0 53 15 97q15 43 42 73q26 29 66 46q38 16 88 16q49 0 84 -18q36 -19 59 -46
q25 -30 38 -64q14 -38 20 -72h-82q-6 55 -37 86q-32 32 -81 32q-24 0 -46 -9t-39 -27t-27 -46q-10 -27 -10 -67q0 -79 35 -129q34 -49 96 -49h209v-81h-290q-26 0 -48 -6t-39 -20q-17 -13 -27 -36q-10 -21 -10 -54z" />
    <glyph glyph-name="uniFECA" unicode="&#x639;" horiz-adv-x="748" arabic-form="final" 
d="M384 75l-2 -3q30 0 59 21q29 22 51 52q22 31 36 68t14 68q0 43 -21 69t-76 26h-240q12 -12 23 -37q6 -13 25 -60q3 -7 12.5 -31t15.5 -38q17 -40 31 -66q18 -33 34 -50q18 -19 38 -19zM255 78l-1 2q-16 16 -30 45t-27 63q-9 23 -27 71t-27 71q-12 31 -29 63
q-16 30 -33 47v18h380q41 0 74 -14q32 -14 53 -38q22 -25 32 -57q11 -35 11 -71q0 -22 -7 -46t-21 -52t-31 -52q-18 -26 -39 -45v-5h27h42h48h47h35h14q6 0 14 -2q6 -2 6 -12v-56q0 -11 -21 -11h-495q-66 0 -102 -30t-36 -88q0 -29 12 -60q11 -30 32 -60h-81q-18 23 -32 55
q-15 34 -15 66q0 45 13 80q14 37 39 62q26 26 66 41t96 15h13z" />
    <glyph glyph-name="uniFECB" unicode="&#x639;" horiz-adv-x="602" arabic-form="initial" 
d="M200 81l-2 4q-10 10 -22 28q-13 20 -23 42q-11 24 -18 51q-7 25 -7 54q0 55 16 97q16 43 45 73q28 29 69 46q39 16 90 16q50 0 84 -18q36 -19 59 -46q25 -30 38 -64q14 -38 20 -72h-82q-3 23 -12 44q-9 22 -24 38q-16 17 -36 26q-21 9 -45 9t-48 -9t-42 -27
q-19 -19 -29 -46q-11 -30 -11 -67q0 -41 10 -72q10 -32 29 -57q17 -23 44 -37q25 -13 56 -13h199v-81h-557q-21 0 -21 11v56q0 11 6 12q8 2 14 2h200z" />
    <glyph glyph-name="uniFECC" unicode="&#x639;" horiz-adv-x="737" arabic-form="medial" 
d="M392 75l-2 -3q30 0 59 21q29 22 51 52q22 31 36 68t14 68q0 43 -21 69t-76 26h-240q12 -12 23 -37q6 -13 25 -60q3 -7 12.5 -31t15.5 -38q17 -40 31 -66q18 -33 34 -50q18 -19 38 -19zM263 78l1 2q-16 16 -30 45t-27 63q-9 23 -27 71t-27 71q-12 31 -29 63q-16 30 -33 47
v18h380q41 0 74 -14q32 -14 53 -38q22 -25 32 -57q11 -35 11 -71q0 -22 -7 -46t-21 -52t-31 -52q-18 -26 -39 -45v-5h25h38h45h42h31h13q6 0 14 -2q6 -2 6 -12v-56q0 -11 -21 -11h-737q-21 0 -21 11v56q0 10 6 12q8 2 14 2h265z" />
    <glyph glyph-name="uniFECD" unicode="&#x63a;" horiz-adv-x="577" arabic-form="isolated" 
d="M279 727h85v-117h-85v117zM118 -117l-3 -4q0 -29 12 -60q11 -30 32 -60h-84q-18 23 -32 55q-15 34 -15 66q0 33 11 66q10 30 29 57q17 25 44 45q26 20 57 30v4q-15 12 -27 33t-21 45q-10 26 -14 50q-5 28 -5 47q0 53 15 97q15 43 42 73q26 29 66 46q38 16 88 16
q49 0 84 -18q36 -19 59 -46q25 -30 38 -64q14 -38 20 -72h-82q-6 55 -37 86q-32 32 -81 32q-24 0 -46 -9t-39 -27t-27 -46q-10 -27 -10 -67q0 -79 35 -129q34 -49 96 -49h209v-81h-290q-26 0 -48 -6t-39 -20q-17 -13 -27 -36q-10 -21 -10 -54z" />
    <glyph glyph-name="uniFECE" unicode="&#x63a;" horiz-adv-x="748" arabic-form="final" 
d="M384 75l-2 -3q30 0 59 21q29 22 51 52q22 31 36 68t14 68q0 43 -21 69t-76 26h-240q12 -12 23 -37q6 -13 25 -60q3 -7 12.5 -31t15.5 -38q17 -40 31 -66q18 -33 34 -50q18 -19 38 -19zM255 78l-1 2q-16 16 -30 45t-27 63q-9 23 -27 71t-27 71q-12 31 -29 63
q-16 30 -33 47v18h380q41 0 74 -14q32 -14 53 -38q22 -25 32 -57q11 -35 11 -71q0 -22 -7 -46t-21 -52t-31 -52q-18 -26 -39 -45v-5h27h42h48h47h35h14q6 0 14 -2q6 -2 6 -12v-56q0 -11 -21 -11h-495q-66 0 -102 -30t-36 -88q0 -29 12 -60q11 -30 32 -60h-81q-18 23 -32 55
q-15 34 -15 66q0 45 13 80q14 37 39 62q26 26 66 41t96 15h13zM360 710h85v-117h-85v117z" />
    <glyph glyph-name="uniFECF" unicode="&#x63a;" horiz-adv-x="602" arabic-form="initial" 
d="M304 715h85v-117h-85v117zM200 81l-2 4q-10 10 -22 28q-13 20 -23 42q-11 24 -18 51q-7 25 -7 54q0 55 16 97q16 43 45 73q28 29 69 46q39 16 90 16q50 0 84 -18q36 -19 59 -46q25 -30 38 -64q14 -38 20 -72h-82q-3 23 -12 44q-9 22 -24 38q-16 17 -36 26q-21 9 -45 9
t-48 -9t-42 -27q-19 -19 -29 -46q-11 -30 -11 -67q0 -41 10 -72q10 -32 29 -57q17 -23 44 -37q25 -13 56 -13h199v-81h-557q-21 0 -21 11v56q0 11 6 12q8 2 14 2h200z" />
    <glyph glyph-name="uniFED0" unicode="&#x63a;" horiz-adv-x="737" arabic-form="medial" 
d="M392 75l-2 -3q30 0 59 21q29 22 51 52q22 31 36 68t14 68q0 43 -21 69t-76 26h-240q12 -12 23 -37q6 -13 25 -60q3 -7 12.5 -31t15.5 -38q17 -40 31 -66q18 -33 34 -50q18 -19 38 -19zM263 78l1 2q-16 16 -30 45t-27 63q-9 23 -27 71t-27 71q-12 31 -29 63q-16 30 -33 47
v18h380q41 0 74 -14q32 -14 53 -38q22 -25 32 -57q11 -35 11 -71q0 -22 -7 -46t-21 -52t-31 -52q-18 -26 -39 -45v-5h25h38h45h42h31h13q6 0 14 -2q6 -2 6 -12v-56q0 -11 -21 -11h-737q-21 0 -21 11v56q0 10 6 12q8 2 14 2h265zM346 710h85v-117h-85v117z" />
    <glyph glyph-name="uniFED1" unicode="&#x641;" horiz-adv-x="1100" arabic-form="isolated" 
d="M783 715h85v-117h-85v117zM821 408l-2 -2q-65 0 -105 -45q-40 -44 -40 -118q0 -36 11 -67q10 -29 30 -52q19 -22 46 -34t59 -12q64 0 105 42q41 43 41 124q0 83 -40 123q-41 41 -105 41zM257 -2h-1q-44 0 -81 12t-66 39q-28 27 -45 71q-16 42 -16 108v67h78v-68
q0 -77 33 -113t98 -36h393v4q-7 7 -19 25q-11 17 -22 40t-18 48q-7 24 -7 48q0 120 63 183t172 63t172 -64q63 -65 63 -183q0 -119 -61 -181q-61 -63 -174 -63h-562z" />
    <glyph glyph-name="uniFED2" unicode="&#x641;" horiz-adv-x="1135" arabic-form="final" 
d="M783 715h85v-117h-85v117zM824 407h-2q-70 0 -108 -41q-37 -40 -37 -120q0 -79 38 -123t108 -44t108 44t38 123q0 80 -37 120q-38 41 -108 41zM257 0l3 -1q-44 0 -81 12t-66 39q-28 27 -45 71q-16 42 -16 108v67h78v-68q0 -77 33 -113t98 -36h395v4q-7 7 -19 25
q-11 17 -22 40q-11 22 -18 48q-7 24 -7 48q0 119 63 182t171 63q109 0 171 -61q63 -61 63 -184q0 -25 -7 -47q-7 -24 -18 -45q-12 -24 -22 -39q-14 -21 -19 -28v-4h142q6 0 14 -2q6 -1 6 -12v-56q0 -11 -21 -11h-876z" />
    <glyph glyph-name="uniFED3" unicode="&#x641;" horiz-adv-x="608" arabic-form="initial" 
d="M289 715h85v-117h-85v117zM0 0l1 -1q-21 0 -21 11v56q0 10 6 12q8 2 14 2h160v4q-7 7 -19 25q-11 17 -22 40t-18 48q-7 24 -7 48q0 120 63 183t172 63t172 -64q63 -65 63 -183q0 -119 -61 -181q-61 -63 -174 -63h-329zM330 407l-2 -2q-64 0 -105 -45q-40 -44 -40 -118
q0 -36 11 -67q10 -29 30 -52q19 -22 46 -34t59 -12q65 0 105 42q41 43 41 124q0 83 -40 123q-41 41 -105 41z" />
    <glyph glyph-name="uniFED4" unicode="&#x641;" horiz-adv-x="614" arabic-form="medial" 
d="M262 715h85v-117h-85v117zM303 407h-2q-70 0 -108 -41q-37 -40 -37 -120q0 -79 38 -123t108 -44t108 44t38 123q0 80 -37 120q-38 41 -108 41zM-2 0l5 -2q-21 0 -21 11v56q0 11 6 12q8 2 14 2h133v4q-7 7 -19 25q-11 17 -22 40q-10 22 -18 48q-7 24 -7 48q0 119 63 182
t171 63q109 0 171 -61q63 -61 63 -184q0 -25 -7 -47q-8 -24 -18 -45q-12 -24 -22 -39q-14 -21 -19 -28v-4h142q6 0 14 -2q6 -1 6 -12v-56q0 -11 -21 -11h-614z" />
    <glyph glyph-name="uniFED5" unicode="&#x642;" horiz-adv-x="802" arabic-form="isolated" 
d="M591 715h85v-117h-85v117zM420 715h85v-117h-85v117zM542 0l-6 -7q-51 0 -94 17q-41 16 -70 48t-44 75t-15 96q0 49 9 96q9 45 35 82q26 36 67 57q42 21 107 21t108 -21t69 -60q25 -39 36 -95q11 -58 11 -126q0 -117 -21 -204t-64 -145q-44 -58 -114 -87
q-72 -29 -169 -29q-100 0 -166 28q-68 29 -108 79q-41 52 -59 123q-17 70 -19 159h79q0 -81 17 -141q16 -57 50 -94q32 -35 86 -52q51 -16 125 -16q113 0 182 51q70 52 89 145h-121zM665 74l-1 115q-2 106 -30 157q-30 54 -105 54q-37 0 -62 -14q-24 -14 -39 -37
q-15 -24 -21 -55q-6 -32 -6 -66q0 -76 33 -115t102 -39h129z" />
    <glyph glyph-name="uniFED6" unicode="&#x642;" horiz-adv-x="896" arabic-form="final" 
d="M582 715h85v-117h-85v117zM411 715h85v-117h-85v117zM390 -278l-7 -6q-100 0 -166 28q-68 29 -108 79q-41 52 -59 123q-17 70 -19 159h79q0 -81 17 -141q16 -57 50 -94q32 -35 86 -52q51 -16 125 -16q113 0 182 51q70 52 89 145h-121q-51 0 -94 17q-41 16 -70 48t-44 75
q-15 44 -15 96q0 50 9 96q9 45 35 82q26 36 67 57q42 21 107 21t108 -21t69 -60q25 -39 36 -95q11 -58 11 -126q0 -38 -1 -56t-3 -52h144q6 0 14 -2q6 -2 6 -12v-55q0 -11 -21 -11h-156q-29 -140 -113 -209t-237 -69zM401 228l-1 -2q0 -76 33 -115t102 -39h129v117
q0 103 -30 157t-105 54q-37 0 -62 -14q-24 -14 -39 -37q-15 -24 -21 -55q-6 -32 -6 -66z" />
    <glyph glyph-name="uniFED7" unicode="&#x642;" horiz-adv-x="608" arabic-form="initial" 
d="M374 715h85v-117h-85v117zM203 715h85v-117h-85v117zM0 0l1 -1q-21 0 -21 11v56q0 10 6 12q8 2 14 2h160v4q-7 7 -19 25q-11 17 -22 40t-18 48q-7 24 -7 48q0 120 63 183t172 63t172 -64q63 -65 63 -183q0 -119 -61 -181q-61 -63 -174 -63h-329zM330 407l-2 -2
q-64 0 -105 -45q-40 -44 -40 -118q0 -36 11 -67q10 -29 30 -52q19 -22 46 -34t59 -12q65 0 105 42q41 43 41 124q0 83 -40 123q-41 41 -105 41z" />
    <glyph glyph-name="uniFED8" unicode="&#x642;" horiz-adv-x="614" arabic-form="medial" 
d="M347 715h85v-117h-85v117zM176 715h85v-117h-85v117zM303 407h-2q-70 0 -108 -41q-37 -40 -37 -120q0 -79 38 -123t108 -44t108 44t38 123q0 80 -37 120q-38 41 -108 41zM-2 0l5 -2q-21 0 -21 11v56q0 11 6 12q8 2 14 2h133v4q-7 7 -19 25q-11 17 -22 40q-10 22 -18 48
q-7 24 -7 48q0 119 63 182t171 63q109 0 171 -61q63 -61 63 -184q0 -25 -7 -47q-8 -24 -18 -45q-12 -24 -22 -39q-14 -21 -19 -28v-4h142q6 0 14 -2q6 -1 6 -12v-56q0 -11 -21 -11h-614z" />
    <glyph glyph-name="uniFED9" unicode="&#x643;" horiz-adv-x="731" arabic-form="isolated" 
d="M252 293v35h45v4q-4 5 -13 21q-7 13 -7 27q0 32 19 52q20 21 58 21q39 0 57 -18q19 -19 20 -53h-39q0 16 -10 26q-11 11 -27 11q-18 0 -27 -12t-9 -32q0 -19 11 -32q11 -12 26 -14h83v-36h-187zM259 -1l-1 1q-44 0 -81 12t-66 39q-28 27 -45 71q-16 42 -16 108v67h78v-68
q0 -77 33 -113t98 -36h324v634h83v-715h-407z" />
    <glyph glyph-name="uniFEDA" unicode="&#x643;" horiz-adv-x="820" arabic-form="final" 
d="M820 81l1 -2q6 0 14 -2q6 -1 6 -12v-56q0 -11 -21 -11h-48q-12 0 -29 5q-15 5 -30 12q-14 7 -27 20q-12 12 -18 27h-3q-1 -7 -8 -28q-5 -16 -20 -34h-379q-44 0 -81 12t-66 39q-28 27 -45 71q-16 42 -16 108v67h78v-68q0 -77 33 -113t98 -36h324v634h83v-524
q0 -55 31 -82q32 -27 76 -27h47zM253 291v35h45v4q-4 5 -13 21q-7 13 -7 27q0 32 19 52q19 21 58 21t57 -18q18 -19 20 -53h-39q0 16 -10 26q-11 11 -27 11q-18 0 -27 -12t-9 -32q0 -19 11 -32q11 -12 26 -14h83v-36h-187z" />
    <glyph glyph-name="uniFEDB" unicode="&#x643;" horiz-adv-x="649" arabic-form="initial" 
d="M506 81v137q0 48 -12 81q-12 32 -32 54q-20 21 -45 30t-54 9h-306v81l240 241h114l-237 -241h184q66 0 110 -19q45 -20 74 -53q29 -34 41 -80t12 -100v-221h-594q-21 0 -21 11v56q0 11 6 12q8 2 14 2h506z" />
    <glyph glyph-name="uniFEDC" unicode="&#x643;" horiz-adv-x="751" arabic-form="medial" 
d="M506 221v-5q0 48 -12 81q-12 32 -32 54q-20 21 -45 30t-54 9h-306v81l240 241h114l-237 -241h184q66 0 110 -19q45 -20 74 -53q29 -34 41 -80q12 -47 12 -100v-36q0 -54 31 -79t76 -25h50q6 0 14 -2q6 -1 6 -12v-56q0 -11 -21 -11h-51q-12 0 -29 5q-15 5 -30 12
q-13 7 -25 20q-11 13 -17 27h-4q-1 -7 -8 -28q-5 -16 -20 -34h-566q-21 0 -21 11v56q0 11 6 12q8 2 14 2h506v140z" />
    <glyph glyph-name="uniFEDD" unicode="&#x644;" horiz-adv-x="715" arabic-form="isolated" 
d="M650 715l-1 -512q0 -101 -15 -182t-51 -138t-97 -88t-153 -31t-150 31t-91 87q-33 55 -45 134q-12 78 -12 173h78q0 -97 12 -163q12 -65 39 -106q27 -40 69 -57q43 -17 105 -17q54 0 96 18q41 18 72 59q30 41 45 105t15 159v528h84z" />
    <glyph glyph-name="uniFEDE" unicode="&#x644;" horiz-adv-x="805" arabic-form="final" 
d="M769 0l1 2q-34 0 -70 18t-57 45q-9 -71 -30 -126q-21 -56 -58 -94q-38 -39 -91 -60q-54 -21 -129 -21q-92 0 -150 31t-91 87q-33 55 -45 134q-12 78 -12 173h78q0 -97 12 -163q12 -65 39 -106q27 -40 69 -57q43 -17 105 -17q54 0 96 18q41 18 72 59q30 41 45 105t15 159
v528h84v-505q0 -30 9 -54q8 -22 26 -40q17 -17 38 -26t45 -9h36q6 0 14 -2q6 -1 6 -12v-56q0 -11 -21 -11h-36z" />
    <glyph glyph-name="uniFEDF" unicode="&#x644;" horiz-adv-x="316" arabic-form="initial" 
d="M167 81l1 634h84v-715h-251q-21 0 -21 11v56q0 11 6 12q8 2 14 2h167z" />
    <glyph glyph-name="uniFEE0" unicode="&#x644;" horiz-adv-x="404" arabic-form="medial" 
d="M364 0l-2 1q-22 0 -43 7q-24 8 -42 19t-34 27q-14 14 -22 33q-22 -45 -62 -66q-39 -21 -83 -21h-76q-21 0 -21 11v56q0 11 6 12q8 2 14 2h77q34 0 60 23q25 22 25 78v534h84v-499q0 -29 9 -55q8 -24 26 -43q16 -17 39 -28q21 -10 46 -10h40q6 0 14 -2q6 -1 6 -12v-56
q0 -11 -21 -11h-40z" />
    <glyph glyph-name="uniFEE1" unicode="&#x645;" horiz-adv-x="646" arabic-form="isolated" 
d="M133 245v-2q0 120 63 183t172 63t172 -64q63 -65 63 -183q0 -119 -61 -181q-62 -63 -174 -63h-132q-30 0 -54 -8q-22 -7 -37 -21q-14 -12 -22 -32q-7 -17 -7 -37v-139h-84v138q0 81 42 126t133 54q-8 8 -20 26t-24 42q-11 23 -21 50q-9 25 -9 48zM367 406l-2 -2
q-65 0 -105 -45q-40 -44 -40 -118q0 -36 11 -67q10 -29 30 -52q19 -22 46 -34t59 -12q64 0 105 42q41 43 41 124q0 83 -40 123q-41 41 -105 41z" />
    <glyph glyph-name="uniFEE2" unicode="&#x645;" horiz-adv-x="744" arabic-form="final" 
d="M133 245l-1 -3q0 120 63 183t172 63t172 -64t63 -183q0 -81 31 -122q31 -42 79 -42h33q6 0 14 -2q6 -1 6 -12v-56q0 -11 -21 -11h-34q-22 0 -45 9q-22 9 -40 24t-32 35q-13 20 -21 42q-29 -54 -79 -81q-51 -27 -125 -27h-132q-30 0 -54 -8q-22 -7 -37 -21
q-14 -12 -22 -32q-7 -17 -7 -37v-139h-84v138q0 81 42 126t133 54q-8 8 -20 26t-24 42q-11 23 -21 50q-9 25 -9 48zM366 405l-2 -2q-64 0 -105 -45q-40 -44 -40 -118q0 -36 11 -67q10 -29 30 -52q19 -22 46 -34t59 -12q65 0 105 42q41 43 41 124q0 83 -40 123
q-41 41 -105 41z" />
    <glyph glyph-name="uniFEE3" unicode="&#x645;" horiz-adv-x="584" arabic-form="initial" 
d="M0 0l1 -1q-21 0 -21 11v56q0 10 6 12q8 2 14 2h136v4q-7 7 -19 25q-11 17 -22 40t-18 48q-7 24 -7 48q0 120 63 183t172 63t172 -64q63 -65 63 -183q0 -119 -61 -181q-61 -63 -174 -63h-305zM306 407l-2 -2q-64 0 -105 -45q-40 -44 -40 -118q0 -36 11 -67q10 -29 30 -52
q19 -22 46 -34t59 -12q65 0 105 42q41 43 41 124q0 83 -40 123q-41 41 -105 41z" />
    <glyph glyph-name="uniFEE4" unicode="&#x645;" horiz-adv-x="754" arabic-form="medial" 
d="M377 -30l-6 -3q-74 0 -127 29q-51 28 -79 83q-9 -20 -24 -35q-14 -14 -33 -25q-18 -11 -39 -15q-23 -5 -40 -5h-34q-21 0 -21 11v56q0 10 6 12q8 2 14 2h33q23 0 42 6t34 21t24 39q10 27 10 62v8q0 118 63 183q63 64 172 64t172 -64q63 -65 63 -183v-8q0 -35 10 -62
q9 -24 24 -39t35 -21t42 -6h33q6 0 14 -2q6 -2 6 -12v-56q0 -11 -21 -11h-34q-17 0 -39 5q-20 5 -38 15q-17 10 -33 26q-15 15 -24 35q-28 -54 -79 -82q-50 -28 -126 -28zM371 50l-2 -1q65 0 105 40q41 41 41 123q0 83 -40 123q-41 41 -105 41q-65 0 -105 -40t-40 -123
q0 -82 41 -123q40 -40 105 -40z" />
    <glyph glyph-name="uniFEE5" unicode="&#x646;" horiz-adv-x="816" arabic-form="isolated" 
d="M383 488h85v-117h-85v117zM380 -238v1q-166 0 -256 109q-90 110 -90 322v87h84v-87q0 -174 62 -262q62 -87 197 -87q67 0 121 21t91 64q38 44 57 109q20 68 20 155v108h84v-123q0 -75 -18 -150t-60 -135t-114 -96t-178 -36z" />
    <glyph glyph-name="uniFEE6" unicode="&#x646;" horiz-adv-x="906" arabic-form="final" 
d="M380 505h85v-117h-85v117zM380 -238l1 -1q-84 0 -147 25q-64 26 -108 78q-43 52 -66 134q-23 83 -23 194v87h84v-87q0 -95 15 -161q15 -65 47 -108q31 -41 80 -61q47 -19 116 -19q67 0 121 18q53 18 91 60q37 42 57 108q20 68 20 164v108h84v-106q0 -33 9 -55t26 -36
q16 -13 39 -19q22 -6 48 -6h33q6 0 14 -2q6 -1 6 -12v-56q0 -11 -21 -11h-34q-20 0 -39 6t-38 17q-17 10 -31 24t-18 28h-3q-11 -67 -34 -122q-24 -58 -67 -99q-44 -42 -108 -66q-65 -24 -154 -24z" />
    <glyph glyph-name="uniFEE7" unicode="&#x646;" horiz-adv-x="352" arabic-form="initial" 
d="M202 715h85v-117h-85v117zM199 81l1 345h85v-426h-284q-21 0 -21 11v56q0 11 6 12q8 2 14 2h199z" />
    <glyph glyph-name="uniFEE8" unicode="&#x646;" horiz-adv-x="475" arabic-form="medial" 
d="M231 715h85v-117h-85v117zM432 0l-2 1q-22 0 -43 7q-24 8 -42 19t-34 27q-14 14 -22 33q-22 -45 -62 -66q-39 -21 -83 -21h-144q-21 0 -21 11v56q0 11 6 12q8 2 14 2h145q34 0 60 23q25 22 25 78v245h84v-210q0 -29 9 -55q8 -24 26 -43q16 -17 39 -28q21 -10 46 -10h43
q6 0 14 -2q6 -1 6 -12v-56q0 -11 -21 -11h-43z" />
    <glyph glyph-name="uniFEE9" unicode="&#x647;" horiz-adv-x="871" arabic-form="isolated" 
d="M238 198l-3 -1q0 40 10 69q11 31 28 51q18 21 42 33q23 11 52 16q29 56 84 90q56 35 127 35q124 0 180 -66q56 -67 56 -187v-239h-606q-42 0 -66 -12t-24 -51v-18h-89v24q0 76 46 107q47 32 135 32h75q-20 16 -34 45q-13 27 -13 72zM551 197l1 -2q0 -45 -13 -72
q-14 -29 -34 -45h226v158q0 44 -12 77t-33 54q-20 20 -48 31q-26 10 -59 10q-37 0 -69 -15q-31 -15 -51 -38q41 -17 66 -55q26 -40 26 -103zM394 84l-4 -1q15 0 33 8q16 7 30 23q13 15 21 36q8 22 8 46q0 50 -27 77t-63 27t-63 -27t-27 -77q0 -24 8 -46q8 -21 21 -36
q13 -14 30 -22q18 -8 33 -8z" />
    <glyph glyph-name="uniFEEA" unicode="&#x647;" horiz-adv-x="592" arabic-form="final" 
d="M564 0l-5 -3q-31 0 -57 9q-25 9 -46 24q-20 14 -34 36q-15 23 -23 45q-23 -32 -60 -56t-87 -24q-38 0 -75 12q-36 11 -67 38q-30 25 -48 66t-18 96q0 48 12 90t37 73t66 49q40 18 98 18h211v-267q0 -35 8 -61q8 -25 21 -38q14 -15 31 -20q18 -6 37 -6h28q6 0 14 -2
q6 -1 6 -12v-56q0 -11 -21 -11h-28zM248 114l-3 -4q22 0 48 8q23 7 42 23q18 15 30 39t12 57v151h-127q-29 0 -50 -10q-22 -10 -40 -30t-27 -46q-9 -27 -9 -60q0 -32 11 -57q10 -24 28 -40q18 -17 40 -24q21 -7 45 -7z" />
    <glyph glyph-name="uniFEEB" unicode="&#x647;" horiz-adv-x="699" arabic-form="initial" 
d="M66 198q0 40 10 69q11 31 28 51q18 21 42 33q23 11 52 16q28 55 84 90t127 35q125 0 180 -66q56 -67 56 -187v-239h-644q-21 0 -21 11v56q0 11 6 12q8 2 14 2h113q-20 16 -34 45q-13 27 -13 72zM382 198l1 -2q0 -45 -13 -72q-14 -29 -34 -45h226v158q0 44 -12 77t-33 54
q-20 20 -48 31q-26 10 -59 10q-38 0 -69 -15t-51 -38q41 -17 66 -55q26 -40 26 -103zM225 85l-4 -1q15 0 33 8q16 7 30 23q14 15 21 36q8 22 8 46q0 50 -27 77t-63 27t-63 -27t-27 -77q0 -24 8 -46q7 -21 21 -36q13 -14 30 -22q18 -8 33 -8z" />
    <glyph glyph-name="uniFEEC" unicode="&#x647;" horiz-adv-x="801" arabic-form="medial" 
d="M801 81h-1q6 0 14 -2q6 -1 6 -12v-56q0 -11 -21 -11h-51q-12 0 -29 5t-30 13q-14 8 -25 21t-17 27h-4q-2 -14 -7 -29q-6 -17 -20 -36h-616q-21 0 -21 11v56q0 10 6 12q8 2 14 2h113q-20 16 -34 45q-13 27 -13 72q0 40 10 69q11 31 28 51q18 21 42 33q23 11 52 16
q29 56 84 90q56 35 127 35q124 0 180 -66q56 -67 56 -187v-54q0 -51 31 -78t76 -27h50zM381 198l1 -2q0 -45 -13 -72q-14 -29 -34 -45h226v158q0 44 -12 77t-33 54q-20 20 -48 31q-26 10 -59 10q-37 0 -69 -15q-31 -15 -51 -38q41 -17 66 -55q26 -40 26 -103zM224 85l-4 -1
q15 0 33 8q16 7 30 23q13 15 21 36q8 22 8 46q0 50 -27 77t-63 27t-63 -27t-27 -77q0 -24 8 -46q8 -21 21 -36q13 -14 30 -22q18 -8 33 -8z" />
    <glyph glyph-name="uniFEED" unicode="&#x648;" horiz-adv-x="531" arabic-form="isolated" 
d="M186 -158q43 0 72 7q33 8 56 25q25 19 41 48q16 30 27 77h-117q-53 0 -93 18t-69 50q-27 30 -43 74q-15 42 -15 92q0 49 12 96q12 45 38 82q25 36 68 57q42 21 104 21q61 0 104 -20t68 -58q26 -39 36 -94q11 -58 11 -126q0 -124 -16 -204q-16 -82 -51 -133t-88 -72
q-54 -21 -130 -21q-16 0 -36 2q-13 1 -26 5q-13 5 -20 9v81q13 -7 32 -12q16 -4 35 -4zM398 197l-1 -1q0 108 -33 159t-98 51q-35 0 -58 -13q-25 -14 -41 -36q-17 -23 -24 -54q-8 -34 -8 -69q0 -153 131 -153h128q2 25 3 54q1 19 1 62z" />
    <glyph glyph-name="uniFEEE" unicode="&#x648;" horiz-adv-x="623" arabic-form="final" 
d="M201 -238l-6 -2q-16 0 -38 2q-14 1 -29 5q-14 5 -24 9v81q14 -7 36 -12q20 -4 42 -4q42 0 75 6t57 24q25 19 41 48q17 31 26 80h-118q-53 0 -93 18t-69 50q-27 30 -43 74q-15 42 -15 92q0 49 12 96q12 45 38 82q25 36 68 57q42 21 104 21q61 0 104 -20t68 -58
q26 -39 36 -94q11 -58 11 -126q0 -40 -1 -58q-2 -36 -3 -53h141q6 0 14 -2q6 -2 6 -12v-56q0 -11 -21 -11h-151q-12 -66 -33 -111q-21 -44 -54 -73q-34 -29 -78 -41q-45 -12 -103 -12zM260 79l126 -1q2 26 3 54q1 19 1 62q0 109 -31 159q-31 51 -99 51q-35 0 -58 -13
q-25 -14 -41 -36q-17 -23 -24 -54q-8 -34 -8 -69q0 -151 131 -153z" />
    <glyph glyph-name="uniFEEF" unicode="&#x649;" horiz-adv-x="779" arabic-form="isolated" 
d="M395 -157l-5 5q56 0 99 7q45 7 81 23q34 15 54 39q20 25 20 57q0 20 -7 33q-8 14 -25 24q-19 11 -49 21q-5 2 -32.5 11.5t-46.5 15.5q-81 27 -124 77t-43 120q0 40 11 81q10 38 35 69t63 50t96 19q87 0 138 -54q50 -53 58 -154h-75q-8 67 -40 96q-33 30 -79 30
q-54 0 -87 -36t-33 -103q0 -26 12 -45q11 -19 33 -34q19 -13 53 -28q29 -13 71 -27q85 -28 123 -68t38 -100q0 -43 -20 -81t-61 -66q-42 -29 -106 -45q-63 -16 -153 -16q-100 0 -167 24q-68 24 -110 71q-41 45 -61 113q-19 66 -21 149h80q0 -85 19 -138q19 -54 55 -85
q35 -31 88 -43t118 -12z" />
    <glyph glyph-name="uniFEF0" unicode="&#x649;" horiz-adv-x="752" arabic-form="final" 
d="M395 -278l-2 -4q-98 0 -164 28q-68 29 -111 79t-64 123q-20 70 -22 159h80q1 -154 69 -229q67 -75 213 -75q46 0 92 8q43 7 76 24q31 16 52 41q19 23 19 57q0 31 -18 49t-41 18q-17 0 -49 8q-29 7 -58 27v77q11 -7 31 -13q15 -5 40 -10q21 -5 42 -6q28 -2 36 -2h136
q6 0 14 -2q6 -1 6 -12v-56q0 -11 -21 -11h-78q13 -15 21 -39q8 -26 8 -44q0 -39 -21 -75t-60 -63t-96 -42t-130 -15z" />
    <glyph glyph-name="uniFEF1" unicode="&#x64a;" horiz-adv-x="779" arabic-form="isolated" 
d="M472 -352h85v-117h-85v117zM301 -352h85v-117h-85v117zM395 -157l-5 5q56 0 99 7q45 7 81 23q34 15 54 39q20 25 20 57q0 20 -7 33q-8 14 -25 24q-19 11 -49 21q-5 2 -32.5 11.5t-46.5 15.5q-81 27 -124 77t-43 120q0 40 11 81q10 38 35 69t63 50t96 19q87 0 138 -54
q50 -53 58 -154h-75q-8 67 -40 96q-33 30 -79 30q-54 0 -87 -36t-33 -103q0 -26 12 -45q11 -19 33 -34q19 -13 53 -28q29 -13 71 -27q85 -28 123 -68t38 -100q0 -43 -20 -81t-61 -66q-42 -29 -106 -45q-63 -16 -153 -16q-100 0 -167 24q-68 24 -110 71q-41 45 -61 113
q-19 66 -21 149h80q0 -85 19 -138q19 -54 55 -85q35 -31 88 -43t118 -12z" />
    <glyph glyph-name="uniFEF2" unicode="&#x64a;" horiz-adv-x="752" arabic-form="final" 
d="M449 -415h85v-117h-85v117zM278 -415h85v-117h-85v117zM395 -278l-2 -4q-98 0 -164 28q-68 29 -111 79t-64 123q-20 70 -22 159h80q1 -154 69 -229q67 -75 213 -75q46 0 92 8q43 7 76 24q31 16 52 41q19 23 19 57q0 31 -18 49t-41 18q-17 0 -49 8q-29 7 -58 27v77
q11 -7 31 -13q15 -5 40 -10q21 -5 42 -6q28 -2 36 -2h136q6 0 14 -2q6 -1 6 -12v-56q0 -11 -21 -11h-78q13 -15 21 -39q8 -26 8 -44q0 -39 -21 -75t-60 -63t-96 -42t-130 -15z" />
    <glyph glyph-name="uniFEF3" unicode="&#x64a;" horiz-adv-x="349" arabic-form="initial" 
d="M189 -95h85v-117h-85v117zM18 -95h85v-117h-85v117zM199 81l1 345h85v-426h-284q-21 0 -21 11v56q0 11 6 12q8 2 14 2h199z" />
    <glyph glyph-name="uniFEF4" unicode="&#x64a;" horiz-adv-x="475" arabic-form="medial" 
d="M319 -95h85v-117h-85v117zM148 -95h85v-117h-85v117zM432 0l-2 1q-22 0 -43 7q-24 8 -42 19t-34 27q-14 14 -22 33q-22 -45 -62 -66q-39 -21 -83 -21h-144q-21 0 -21 11v56q0 11 6 12q8 2 14 2h145q34 0 60 23q25 22 25 78v245h84v-210q0 -29 9 -55q8 -24 26 -43
q16 -17 39 -28q21 -10 46 -10h43q6 0 14 -2q6 -1 6 -12v-56q0 -11 -21 -11h-43z" />
    <glyph glyph-name="uniFEF5" unicode="&#xfef5;" horiz-adv-x="630" arabic-form="isolated" 
d="M234 81h247v634h84v-715h-545v81h130v449h84v-449zM122 704v-3q19 0 32 -4l30 -9l30 -9q13 -4 30 -4q42 0 42 31h32q0 -35 -20 -57q-20 -21 -48 -21q-14 0 -31 5q-20 6 -30 10t-30 10q-17 5 -31 5q-42 0 -42 -32h-32q0 35 20 57q20 21 48 21z" />
    <glyph glyph-name="uniFEF6" unicode="&#xfef6;" horiz-adv-x="719" arabic-form="final" 
d="M679 0l-3 1q-22 0 -43 7q-24 8 -42 19t-34 27q-14 14 -22 33q-22 -45 -62 -66q-39 -21 -83 -21h-371v81h130v449h84v-449h158q34 0 60 23q25 22 25 78v534h84v-499q0 -29 9 -55q8 -24 26 -43q16 -17 39 -28q21 -10 46 -10h40q6 0 14 -2q6 -1 6 -12v-56q0 -11 -21 -11h-40
zM127 711v-3q19 0 32 -4l30 -9l30 -9q13 -4 30 -4q42 0 42 31h32q0 -35 -20 -57q-19 -21 -48 -21q-14 0 -31 5q-20 6 -30 10t-30 10q-17 5 -31 5q-42 0 -42 -32h-32q0 35 20 57q19 21 48 21z" />
    <glyph glyph-name="uniFEF7" unicode="&#xfef7;" horiz-adv-x="630" arabic-form="isolated" 
d="M234 81h247v634h84v-715h-545v81h130v449h84v-449zM110 701l40 2v3q-7 7 -13 21q-6 13 -6 27q0 33 19 53q20 21 57 21q29 0 50 -18q22 -18 23 -54h-35q-2 14 -12 26q-11 12 -27 12t-26 -12q-11 -13 -11 -34q0 -23 12 -35t30 -12h72v-36h-173v36z" />
    <glyph glyph-name="uniFEF8" unicode="&#xfef8;" horiz-adv-x="719" arabic-form="final" 
d="M679 0l-3 1q-22 0 -43 7q-24 8 -42 19t-34 27q-14 14 -22 33q-22 -45 -62 -66q-39 -21 -83 -21h-371v81h130v449h84v-449h158q34 0 60 23q25 22 25 78v534h84v-499q0 -29 9 -55q8 -24 26 -43q16 -17 39 -28q21 -10 46 -10h40q6 0 14 -2q6 -1 6 -12v-56q0 -11 -21 -11h-40
zM111 715l40 2v3q-7 7 -13 21q-6 13 -6 27q0 33 19 53q19 21 57 21q29 0 50 -18q22 -18 23 -54h-35q-2 14 -12 26t-27 12q-15 0 -26 -12q-11 -13 -11 -34q0 -23 12 -35t30 -12h72v-36h-173v36z" />
    <glyph glyph-name="uniFEF9" unicode="&#xfef9;" horiz-adv-x="630" arabic-form="isolated" 
d="M234 81h247v634h84v-715h-545v81h130v449h84v-449zM110 -236l40 2v3q-7 7 -13 21t-6 27q0 33 19 53q20 21 57 21q29 0 50 -18q22 -18 23 -54h-35q-2 14 -12 26q-11 12 -27 12t-26 -12q-11 -13 -11 -34q0 -23 12 -35t30 -12h72v-36h-173v36z" />
    <glyph glyph-name="uniFEFA" unicode="&#xfefa;" horiz-adv-x="719" arabic-form="final" 
d="M679 0l-3 1q-22 0 -43 7q-24 8 -42 19t-34 27q-14 14 -22 33q-22 -45 -62 -66q-39 -21 -83 -21h-371v81h130v449h84v-449h158q34 0 60 23q25 22 25 78v534h84v-499q0 -29 9 -55q8 -24 26 -43q16 -17 39 -28q21 -10 46 -10h40q6 0 14 -2q6 -1 6 -12v-56q0 -11 -21 -11h-40
zM103 -221l40 2v3q-7 7 -13 21q-6 13 -6 27q0 33 19 53q19 21 57 21q29 0 50 -18q22 -18 23 -54h-35q-2 14 -12 26t-27 12q-15 0 -26 -12q-11 -13 -11 -34q0 -23 12 -35t30 -12h72v-36h-173v36z" />
    <glyph glyph-name="uniFEFB" unicode="&#xfefb;" horiz-adv-x="630" arabic-form="isolated" 
d="M234 81h247v634h84v-715h-545v81h130v449h84v-449z" />
    <glyph glyph-name="uniFEFC" unicode="&#xfefc;" horiz-adv-x="719" arabic-form="final" 
d="M679 0l-3 1q-22 0 -43 7q-24 8 -42 19t-34 27q-14 14 -22 33q-22 -45 -62 -66q-39 -21 -83 -21h-371v81h130v449h84v-449h158q34 0 60 23q25 22 25 78v534h84v-499q0 -29 9 -55q8 -24 26 -43q16 -17 39 -28q21 -10 46 -10h40q6 0 14 -2q6 -1 6 -12v-56q0 -11 -21 -11h-40
z" />
    <glyph glyph-name=".notdef" horiz-adv-x="499" 
d="M499 699v-699h-499v699h499zM450 48v601h-402v-601h402zM219 228h-7q0 5 -1 8t-1 9v20q0 7 2 21t4 21q3 11 6 18q10 20 25 35q11 11 31 33q15 17 27 33t12 36q0 16 -6 31t-15 27q-8 11 -23 19q-13 7 -30 7q-20 0 -33 -7q-14 -8 -23 -21q-9 -14 -15 -30q-5 -15 -7 -33
l-48 7q3 29 12 53q9 25 25 42q16 18 40 28q23 10 55 10q30 0 51 -10q23 -11 38 -27q15 -17 24 -40q9 -24 9 -51q0 -24 -6 -42q-6 -19 -16 -33q-12 -17 -22 -27q-8 -8 -24 -22q-12 -11 -21 -21q-8 -10 -13 -24q-1 -6 -3 -15q-2 -12 -2 -19v-21v-15h-45zM209 114v65h55v-65
h-55z" />
    <glyph glyph-name=".null" horiz-adv-x="500" 
 />
    <glyph glyph-name=".null" horiz-adv-x="500" 
 />
    <glyph glyph-name="nonmarkingreturn" unicode="&#xd;" 
 />
    <glyph glyph-name="space" unicode=" " horiz-adv-x="225" 
 />
    <glyph glyph-name="exclam" unicode="!" horiz-adv-x="259" 
d="M82 714h95v-220l-25 -311h-45l-25 311v220zM74 111h111v-111h-111v111z" />
    </font>
</defs>
</svg>
