<?xml version="1.0" standalone="no"?>
<!DOCTYPE svg PUBLIC "-//W3C//DTD SVG 1.1//EN" "http://www.w3.org/Graphics/SVG/1.1/DTD/svg11.dtd" >
<svg xmlns="http://www.w3.org/2000/svg" xmlns:xlink="http://www.w3.org/1999/xlink" version="1.1">
<metadata>
Created by FontForge 20170731 at Sun Jul 12 09:15:34 2015
 By Aleksey,,,
Copyright (c) 2014 by Abjd / Ali Almasri. All rights reserved.
</metadata>
<defs>
<font id="Swissra-Medium" horiz-adv-x="0" >
  <font-face 
    font-family="Swissra Med"
    font-weight="500"
    font-stretch="normal"
    units-per-em="1000"
    panose-1="0 0 0 0 0 0 0 0 0 0"
    ascent="663"
    descent="-337"
    bbox="-273 -552 1579 1091"
    underline-thickness="24"
    underline-position="-109"
    unicode-range="U+000D-FEFC"
  />
<missing-glyph horiz-adv-x="499" 
d="M499 699v-699h-499v699h499zM450 48v601h-402v-601h402zM219 228h-7q0 5 -1 8t-1 9v20q0 7 2 21t4 21q3 11 6 18q10 20 25 35q11 11 31 33q15 17 27 33t12 36q0 16 -6 31t-15 27q-8 11 -23 19q-13 7 -30 7q-20 0 -33 -7q-14 -8 -23 -21q-9 -14 -15 -30q-5 -15 -7 -33
l-48 7q3 29 12 53q9 25 25 42q16 18 40 28q23 10 55 10q30 0 51 -10q23 -11 38 -27q15 -17 24 -40q9 -24 9 -51q0 -24 -6 -42q-6 -19 -16 -33q-12 -17 -22 -27q-8 -8 -24 -22q-12 -11 -21 -21q-8 -10 -13 -24q-1 -6 -3 -15q-2 -12 -2 -19v-21v-15h-45zM209 114v65h55v-65
h-55z" />
    <glyph glyph-name="uniFB50" unicode="&#x671;" horiz-adv-x="234" arabic-form="isolated" 
d="M162 947l-2 -1q38 0 55 -21q16 -20 16 -53v-52h-210v42h30q12 18 24 32q15 16 28 27t30 19q14 7 29 7zM182 861l-1 11q0 16 -9 24q-10 8 -20 8q-20 0 -35 -15q-17 -17 -23 -28h88zM57 0v715h114v-715h-114z" />
    <glyph glyph-name="uniFB51" unicode="&#x671;" horiz-adv-x="264" arabic-form="final" 
d="M151 947l-2 -1q39 0 55 -21q16 -20 16 -53v-52h-210v42h30q12 18 24 32q15 16 28 27t30 19q14 7 29 7zM171 861l-1 11q0 16 -9 24q-10 8 -20 8q-20 0 -35 -15q-17 -17 -23 -28h88zM261 103h1q6 0 14 -2q6 -1 6 -12v-78q0 -11 -21 -11h-204v715h114v-612h90z" />
    <glyph glyph-name="uniFB56" unicode="&#x67e;" horiz-adv-x="979" arabic-form="isolated" 
d="M530 -59h72v-76h-72v76zM476 -158h71v-77h-71v77zM421 -59h70v-76h-70v76zM919 0l-659 1q-44 0 -84 12t-72 39q-30 26 -49 71q-18 43 -18 108v67h104v-68q0 -127 118 -127h546v323h114v-426z" />
    <glyph glyph-name="uniFB57" unicode="&#x67e;" horiz-adv-x="1056" arabic-form="final" 
d="M518 -59h72v-76h-72v76zM464 -158h71v-77h-71v77zM409 -59h70v-76h-70v76zM259 0h-2q-43 0 -84 12t-72 39q-30 26 -49 71q-18 44 -18 108v67h104v-68q0 -127 118 -127h477q10 0 22 3q13 3 23 12t18 24q7 14 7 38v245h114v-210q0 -27 10 -47t26 -36q14 -14 33 -22t35 -8
h33q6 0 14 -2q6 -1 6 -12v-78q0 -11 -21 -11h-33q-22 0 -42 9q-21 10 -36 22q-18 15 -29 30q-12 17 -18 33q-25 -47 -71 -70q-44 -22 -89 -22h-476z" />
    <glyph glyph-name="uniFB58" unicode="&#x67e;" horiz-adv-x="367" arabic-form="initial" 
d="M187 -59h72v-76h-72v76zM133 -158h71v-77h-71v77zM78 -59h70v-76h-70v76zM185 103l1 323h114v-426h-299q-21 0 -21 11v78q0 11 6 12q8 2 14 2h185z" />
    <glyph glyph-name="uniFB59" unicode="&#x67e;" horiz-adv-x="475" arabic-form="medial" 
d="M300 -59h72v-76h-72v76zM246 -158h71v-77h-71v77zM191 -59h70v-76h-70v76zM432 0l-2 -1q-22 0 -42 9q-21 10 -36 22q-18 15 -29 30q-12 16 -18 33q-25 -47 -71 -70q-44 -22 -89 -22h-144q-21 0 -21 11v78q0 10 6 12q8 2 14 2h145q10 0 22 3q13 3 23 12t18 24q7 14 7 38
v245h114v-210q0 -27 10 -47t26 -36q14 -14 33 -22t35 -8h43q6 0 14 -2q6 -1 6 -12v-78q0 -11 -21 -11h-43z" />
    <glyph glyph-name="uniFB66" unicode="&#x679;" horiz-adv-x="979" arabic-form="isolated" 
d="M919 0l-659 1q-44 0 -84 12t-72 39q-30 26 -49 71q-18 43 -18 108v67h104v-68q0 -127 118 -127h546v323h114v-426zM505 554h1q38 0 55 -21q16 -20 16 -53v-52h-210v42h23v143h48v-97h4q15 15 30 26q16 12 33 12zM528 469l-1 11q0 16 -9 24q-10 8 -20 8q-20 0 -35 -15
q-17 -17 -23 -28h88z" />
    <glyph glyph-name="uniFB67" unicode="&#x679;" horiz-adv-x="1056" arabic-form="final" 
d="M259 0h-2q-43 0 -84 12t-72 39q-30 26 -49 71q-18 44 -18 108v67h104v-68q0 -127 118 -127h477q10 0 22 3q13 3 23 12t18 24q7 14 7 38v245h114v-210q0 -27 10 -47t26 -36q14 -14 33 -22t35 -8h33q6 0 14 -2q6 -1 6 -12v-78q0 -11 -21 -11h-33q-22 0 -42 9q-21 10 -36 22
q-18 15 -29 30q-12 17 -18 33q-25 -47 -71 -70q-44 -22 -89 -22h-476zM495 553h1q38 0 55 -21q16 -20 16 -53v-52h-210v42h23v143h48v-97h4q15 15 30 26q16 12 33 12zM518 468l-1 11q0 17 -9 24q-10 8 -20 8q-20 0 -35 -15q-17 -17 -23 -28h88z" />
    <glyph glyph-name="uniFB68" unicode="&#x679;" horiz-adv-x="359" arabic-form="initial" 
d="M228 714h1q39 0 55 -21q16 -20 16 -53v-52h-210v42h23v143h48v-97h4q15 15 30 26q17 12 33 12zM251 629l-1 11q0 16 -9 24q-10 8 -20 8q-20 0 -35 -15q-17 -17 -23 -28h88zM185 104l1 323h114v-426h-299q-21 0 -21 11v78q0 10 6 12q8 2 14 2h185z" />
    <glyph glyph-name="uniFB69" unicode="&#x679;" horiz-adv-x="475" arabic-form="medial" 
d="M300 712h1q39 0 55 -21q16 -20 16 -53v-52h-210v42h23v143h48v-97h4q15 15 30 26q17 12 33 12zM323 627l-1 11q0 16 -9 24q-10 8 -20 8q-20 0 -35 -15q-17 -17 -23 -28h88zM432 1l-2 -1q-22 0 -42 9q-21 10 -36 22q-18 15 -29 30q-12 17 -18 33q-25 -47 -71 -70
q-44 -22 -89 -22h-144q-21 0 -21 11v78q0 11 6 12q8 2 14 2h145q10 0 22 3q13 3 23 12t18 24q7 14 7 38v245h114v-210q0 -27 10 -47t26 -36q14 -14 33 -22t35 -8h43q6 0 14 -2q6 -2 6 -12v-78q0 -11 -21 -11h-43z" />
    <glyph glyph-name="uniFB6A" unicode="&#x6a4;" horiz-adv-x="1111" arabic-form="isolated" 
d="M768 869h114v-117h-114v117zM683 715h114v-117h-114v117zM852 715h114v-117h-114v117zM819 392v-2q-65 0 -98 -40t-33 -106q0 -65 33 -106q33 -40 98 -40t98 40q33 41 33 106q0 66 -33 107t-98 41zM635 101l8 5q-9 4 -21 18t-21 33q-7 16 -16 42q-7 21 -7 45q0 60 18 105
q18 46 51 77q33 32 78 48q44 16 99 16q54 0 99 -15q46 -15 78 -46q33 -31 51 -78t18 -108t-18 -108q-18 -46 -51 -76t-79 -45t-102 -15h-560q-44 0 -84 12t-72 39q-30 26 -49 71q-18 43 -18 108v67h104v-68q0 -127 118 -127h376z" />
    <glyph glyph-name="uniFB6B" unicode="&#x6a4;" horiz-adv-x="1133" arabic-form="final" 
d="M774 869h114v-117h-114v117zM689 715h114v-117h-114v117zM858 715h114v-117h-114v117zM819 392v-2q-65 0 -98 -40t-33 -106q0 -65 33 -106q33 -40 98 -40t98 40q33 41 33 106q0 66 -33 107t-98 41zM259 -2l8 1q-43 0 -84 12t-72 39q-30 26 -49 71q-18 43 -18 108v67h104
v-68q0 -127 118 -127h376v4q-9 5 -21 18t-21 33q-7 16 -16 42q-7 21 -7 45q0 60 18 105q18 46 51 77t78 48q44 16 99 16t99 -16q45 -17 78 -48t51 -77q18 -45 18 -105q0 -24 -7 -45q-9 -26 -16 -42q-9 -20 -21 -33t-21 -18v-4h130q6 0 14 -2q6 -1 6 -12v-78q0 -11 -21 -11
h-874z" />
    <glyph glyph-name="uniFB6C" unicode="&#x6a4;" horiz-adv-x="622" arabic-form="initial" 
d="M287 869h114v-117h-114v117zM202 715h114v-117h-114v117zM371 715h114v-117h-114v117zM0 0h8q-21 0 -21 11v78q0 11 6 12q8 2 14 2h146v4q-9 5 -21 18t-21 33q-7 16 -16 42q-7 21 -7 45q0 60 18 105q18 46 51 77t78 48q44 16 99 16q54 0 99 -15q46 -15 78 -46
q33 -32 51 -78t18 -108t-18 -108t-51 -76t-79 -45t-102 -15h-330zM338 392v-2q-65 0 -98 -40t-33 -106q0 -65 33 -106q33 -40 98 -40t98 40q33 41 33 106q0 66 -33 107t-98 41z" />
    <glyph glyph-name="uniFB6D" unicode="&#x6a4;" horiz-adv-x="614" arabic-form="medial" 
d="M255 869h114v-117h-114v117zM170 715h114v-117h-114v117zM339 715h114v-117h-114v117zM303 392v-2q-65 0 -98 -40t-33 -106q0 -65 33 -106q33 -40 98 -40t98 40q33 41 33 106q0 66 -33 107t-98 41zM0 -2h8q-21 0 -21 11v78q0 11 6 12q8 2 14 2h119v4q-9 5 -21 18t-21 33
q-7 16 -16 42q-7 21 -7 45q0 60 18 105q18 46 51 77t78 48q44 16 99 16t99 -16q45 -17 78 -48t51 -77q18 -45 18 -105q0 -24 -7 -45q-9 -26 -16 -42q-9 -20 -21 -33t-21 -18v-4h127q6 0 14 -2q6 -1 6 -12v-78q0 -11 -21 -11h-614z" />
    <glyph glyph-name="uniFB7A" unicode="&#x686;" horiz-adv-x="681" arabic-form="isolated" 
d="M384 -59h72v-76h-72v76zM330 -158h71v-77h-71v77zM275 -59h70v-76h-70v76zM25 -107h-1q0 41 15 78t45 66q31 29 75 47q45 18 102 18h246q-7 20 -15 51q-7 28 -15 68q-9 47 -21 78t-30 51q-19 20 -42 29q-24 9 -58 9q-29 0 -54 -11q-24 -11 -42 -27q-19 -17 -29 -39
q-11 -23 -15 -43h-110q3 50 24 90q21 41 55 69q36 29 78 44q43 15 93 15q74 0 119 -19q48 -20 77 -55t46 -87q16 -49 25 -115q7 -46 12 -78q5 -34 9 -56l4 -20t4 -22q2 -12 8 -36h-358q-29 0 -53 -9t-42 -24q-17 -14 -28 -35q-10 -19 -10 -42q0 -34 9 -63q9 -27 32 -63h-109
q-19 26 -33 57q-13 30 -13 74z" />
    <glyph glyph-name="uniFB7B" unicode="&#x686;" horiz-adv-x="773" arabic-form="final" 
d="M357 -38h71v-76h-71v76zM302 -138h71v-76h-71v76zM247 -38h71v-76h-71v76zM506 103l-2 117q-2 86 -41 127q-41 42 -117 42q-59 0 -96 -34q-38 -35 -48 -87h-111q3 50 24 90t56 69t80 44t95 15q69 0 119 -19q52 -20 87 -55q36 -36 54 -87t18 -115v-18q0 -27 9 -45
q8 -17 23 -28q14 -11 33 -15q17 -4 42 -4h41q6 0 14 -2q6 -2 6 -12v-78q0 -11 -21 -11h-42q-12 0 -29 5q-15 4 -30 12q-13 7 -25 20q-11 13 -17 27h-4q-1 -7 -8 -28q-5 -16 -20 -34h-324q-29 0 -53 -9t-42 -24q-17 -14 -28 -35q-10 -19 -10 -42q0 -35 9 -63q9 -27 32 -63
h-109q-19 25 -33 57q-13 30 -13 74q0 40 15 78t45 66q31 29 75 47q45 18 102 18h244z" />
    <glyph glyph-name="uniFB7C" unicode="&#x686;" horiz-adv-x="734" arabic-form="initial" 
d="M384 -59h72v-76h-72v76zM330 -158h71v-77h-71v77zM275 -59h70v-76h-70v76zM350 391l3 -2q-29 0 -57 -9q-29 -9 -52 -25t-40 -39q-16 -22 -21 -48h-111q3 50 28 90q26 41 64 69q41 30 88 44q50 15 100 15q68 0 119 -19q53 -20 90 -55q37 -36 60 -87t30 -115
q2 -16 4.5 -32.5t4.5 -32.5t3 -23q2 -13 4.5 -31.5t3.5 -22.5q3 -21 6 -36q1 -5 8 -33h-684q-21 0 -21 11v78q0 10 6 12q8 2 14 2h554q0 2 -2 8t-3 10q-3 11 -6 29q-2 11 -6 35t-5 36q-4 44 -21 75q-17 33 -40 53q-25 22 -55 32q-33 11 -66 11z" />
    <glyph glyph-name="uniFB7D" unicode="&#x686;" horiz-adv-x="787" arabic-form="medial" 
d="M358 -59h72v-76h-72v76zM304 -158h71v-77h-71v77zM249 -59h70v-76h-70v76zM530 103l-2 116q0 43 -15 74q-15 32 -41 53q-27 22 -58 32q-35 11 -69 11q-32 0 -61 -10q-31 -11 -54 -28q-24 -18 -40 -40q-16 -23 -21 -45h-110q5 48 28 87q23 40 63 70q40 31 89 47
q51 17 105 17q60 0 117 -20q54 -19 97 -56q42 -36 66 -87t24 -114v-24q0 -26 9 -42t24 -27q14 -10 34 -13q19 -3 42 -3h31q6 0 14 -2q6 -1 6 -12v-78q0 -11 -21 -11h-32q-12 0 -29 5q-15 5 -30 12q-13 7 -25 20q-11 13 -17 27h-4q-1 -7 -8 -28q-5 -16 -20 -34h-621
q-21 0 -21 11v78q0 11 6 12q8 2 14 2h530z" />
    <glyph glyph-name="uniFB88" unicode="&#x688;" horiz-adv-x="524" arabic-form="isolated" 
d="M256 712h1q39 0 55 -21q16 -20 16 -53v-52h-210v42h23v143h48v-97h4q15 15 30 26q17 12 33 12zM279 627l-1 11q0 16 -9 24q-10 8 -20 8q-20 0 -35 -15q-17 -17 -23 -28h88zM75 104l287 1v105q0 36 -9 66q-9 32 -28 53q-20 23 -48 35q-29 12 -69 12h-87v100h87
q56 0 104 -15t84 -48t57 -84t21 -123v-205h-399v103z" />
    <glyph glyph-name="uniFB89" unicode="&#x688;" horiz-adv-x="619" arabic-form="final" 
d="M256 714h1q39 0 55 -21q16 -20 16 -53v-52h-210v42h23v143h48v-97h4q15 15 30 26q17 12 33 12zM279 629l-1 11q0 16 -9 24q-10 8 -20 8q-20 0 -35 -15q-17 -17 -23 -28h88zM619 104h2q6 0 14 -2q6 -2 6 -12v-78q0 -11 -21 -11h-32q-12 0 -29 5q-15 4 -30 12q-13 7 -25 20
q-11 13 -17 27h-4q-1 -7 -8 -28q-5 -16 -20 -34h-371v103h285v105q0 36 -9 66q-9 32 -28 53q-20 23 -48 35t-69 12h-86v100h86q56 0 104 -15t84 -48t57 -84t21 -123v-16q0 -50 32 -69q30 -18 75 -18h31z" />
    <glyph glyph-name="uniFB8A" unicode="&#x698;" horiz-adv-x="330" arabic-form="isolated" 
d="M170 869h114v-117h-114v117zM85 715h114v-117h-114v117zM254 715h114v-117h-114v117zM85 -141v-3q15 0 30 5q13 4 22 20q10 16 14 42q5 30 5 71v430h114v-430q0 -113 -39 -173t-133 -60q-20 0 -37 3q-19 3 -27 7q-14 5 -24 9v96q32 -17 75 -17z" />
    <glyph glyph-name="uniFB8B" unicode="&#x698;" horiz-adv-x="414" arabic-form="final" 
d="M168 869h114v-117h-114v117zM83 715h114v-117h-114v117zM252 715h114v-117h-114v117zM272 -4l-2 -5q0 -113 -39 -173t-133 -60q-20 0 -37 3q-19 3 -27 7q-14 4 -24 9v96q32 -17 75 -17q15 0 30 5q13 4 22 20q10 16 14 42q5 30 5 71v430h114v-237q0 -25 9 -42t24 -27
q14 -10 34 -13q19 -3 42 -3h35q6 0 14 -2q6 -2 6 -12v-78q0 -11 -21 -11h-36q-12 0 -29 5q-15 4 -30 12q-13 7 -25 20q-11 13 -17 27h-4v-67z" />
    <glyph glyph-name="uniFB8C" unicode="&#x691;" horiz-adv-x="330" arabic-form="isolated" 
d="M249 714h1q38 0 55 -21q16 -20 16 -53v-52h-210v42h23v143h48v-97h4q15 15 30 26q16 12 33 12zM272 629l-1 11q0 16 -9 24q-10 8 -20 8q-20 0 -35 -15q-17 -17 -23 -28h88zM85 -140v-3q15 0 30 5q13 4 22 20q10 16 14 42q5 30 5 71v430h114v-430q0 -113 -39 -173
t-133 -60q-20 0 -37 3q-19 3 -27 7q-14 4 -24 9v96q32 -17 75 -17z" />
    <glyph glyph-name="uniFB8D" unicode="&#x691;" horiz-adv-x="414" arabic-form="final" 
d="M237 714h1q38 0 55 -21q16 -20 16 -53v-52h-210v42h23v143h48v-97h4q15 15 30 26q16 12 33 12zM260 629l-1 11q0 16 -9 24q-10 8 -20 8q-20 0 -35 -15q-17 -17 -23 -28h88zM272 -3l-2 -5q0 -113 -39 -173t-133 -60q-20 0 -37 3q-19 3 -27 7q-14 5 -24 9v96q32 -17 75 -17
q15 0 30 5q13 4 22 20q10 16 14 42q5 30 5 71v430h114v-237q0 -26 9 -42t24 -27q14 -10 34 -13q19 -3 42 -3h35q6 0 14 -2q6 -1 6 -12v-78q0 -11 -21 -11h-36q-12 0 -29 5q-15 5 -30 12q-13 7 -25 20q-11 13 -17 27h-4v-67z" />
    <glyph glyph-name="uniFB8E" unicode="&#x6a9;" horiz-adv-x="901" arabic-form="isolated" 
d="M259 0h1q-44 0 -84 12t-72 39q-30 26 -49 71q-18 44 -18 108v67h104v-68q0 -127 118 -127h474v118q0 80 -36 116t-94 36h-266v101l240 241h138l-237 -241h120q70 0 117 -16q48 -17 78 -48q31 -32 44 -79q14 -50 14 -109v-221h-592z" />
    <glyph glyph-name="uniFB8F" unicode="&#x6a9;" horiz-adv-x="991" arabic-form="final" 
d="M991 103l2 3q6 0 14 -2q6 -2 6 -12v-78q0 -11 -21 -11h-34q-16 0 -29 4q-16 5 -29 12q-15 8 -26 18q-12 11 -18 24h-5q-1 -8 -8 -27q-6 -18 -19 -33h-564q-44 0 -84 12t-72 39q-30 26 -49 71q-18 43 -18 108v67h104v-68q0 -127 118 -127h474v118q0 80 -36 116t-94 36
h-266v101l240 241h138l-237 -241h120q70 0 117 -16q48 -16 78 -48q31 -32 44 -79q14 -50 14 -109v-26q0 -51 24 -72t62 -21h54z" />
    <glyph glyph-name="uniFB90" unicode="&#x6a9;" horiz-adv-x="659" arabic-form="initial" 
d="M491 103l1 117q0 80 -36 116t-94 36h-316v101l240 241h138l-237 -241h170q70 0 117 -16q48 -17 78 -48q31 -32 44 -79q14 -50 14 -109v-221h-609q-21 0 -21 11v78q0 11 6 12q8 2 14 2h491z" />
    <glyph glyph-name="uniFB91" unicode="&#x6a9;" horiz-adv-x="749" arabic-form="medial" 
d="M749 103l2 2q6 0 14 -2q6 -1 6 -12v-78q0 -11 -21 -11h-34q-16 0 -29 4q-16 5 -29 12q-15 8 -26 18q-12 10 -18 24h-5q-1 -8 -8 -27q-6 -18 -19 -33h-581q-21 0 -21 11v78q0 11 6 12q8 2 14 2h491v118q0 80 -36 116t-94 36h-316v101l240 241h138l-237 -241h170
q70 0 117 -16q48 -16 78 -48q31 -32 44 -79q14 -50 14 -109v-26q0 -51 24 -72t62 -21h54z" />
    <glyph glyph-name="uniFB92" unicode="&#x6af;" horiz-adv-x="901" arabic-form="isolated" 
d="M250 466h-107l238 249h109zM259 0h1q-44 0 -84 12t-72 39q-30 26 -49 71q-18 44 -18 108v67h104v-68q0 -127 118 -127h474v118q0 80 -36 116t-94 36h-266v101l240 241h138l-237 -241h120q70 0 117 -16q48 -17 78 -48q31 -32 44 -79q14 -50 14 -109v-221h-592z" />
    <glyph glyph-name="uniFB93" unicode="&#x6af;" horiz-adv-x="991" arabic-form="final" 
d="M250 466h-107l238 249h109zM991 103l2 3q6 0 14 -2q6 -2 6 -12v-78q0 -11 -21 -11h-34q-16 0 -29 4q-16 5 -29 12q-15 8 -26 18q-12 11 -18 24h-5q-1 -8 -8 -27q-6 -18 -19 -33h-564q-44 0 -84 12t-72 39q-30 26 -49 71q-18 43 -18 108v67h104v-68q0 -127 118 -127h474
v118q0 80 -36 116t-94 36h-266v101l240 241h138l-237 -241h120q70 0 117 -16q48 -16 78 -48q31 -32 44 -79q14 -50 14 -109v-26q0 -51 24 -72t62 -21h54z" />
    <glyph glyph-name="uniFB94" unicode="&#x6af;" horiz-adv-x="819" arabic-form="initial" 
d="M125 466h-107l238 249h109zM651 103l1 117q0 80 -36 116t-94 36h-316v101l240 241h138l-237 -241h170q70 0 117 -16q48 -17 78 -48q31 -32 44 -79q14 -50 14 -109v-221h-769q-21 0 -21 11v78q0 11 6 12q8 2 14 2h651z" />
    <glyph glyph-name="uniFB95" unicode="&#x6af;" horiz-adv-x="912" arabic-form="medial" 
d="M912 103l2 2q6 0 14 -2q6 -1 6 -12v-78q0 -11 -21 -11h-34q-16 0 -29 4q-16 5 -29 12q-15 8 -26 18q-12 10 -18 24h-5q-1 -8 -8 -27q-6 -18 -19 -33h-744q-21 0 -21 11v78q0 11 6 12q8 2 14 2h654v118q0 80 -36 116t-94 36h-316v101l240 241h138l-237 -241h170
q70 0 117 -16q48 -16 78 -48q31 -32 44 -79q14 -50 14 -109v-26q0 -51 24 -72t62 -21h54zM130 468h-107l238 249h109z" />
    <glyph glyph-name="uniFB9E" unicode="&#x6ba;" horiz-adv-x="853" arabic-form="isolated" 
d="M389 -238l-2 1q-170 0 -265 110q-94 109 -94 321v87h111v-87q0 -87 15 -150q15 -62 45 -103q30 -40 77 -60q45 -19 110 -19q64 0 114 19q51 19 87 60q35 40 55 103q19 61 19 150v108h114v-123q0 -77 -19 -150q-20 -76 -64 -135q-45 -60 -118 -96q-74 -36 -185 -36z" />
    <glyph glyph-name="uniFB9F" unicode="&#x6ba;" horiz-adv-x="915" arabic-form="final" 
d="M389 -238l-3 -2q-170 0 -265 110q-94 109 -94 321v87h111v-87q0 -87 15 -150q15 -62 45 -103q30 -40 77 -60q45 -19 110 -19q64 0 114 19q51 20 87 60q35 40 55 103q19 61 19 150v108h114v-106q0 -27 9 -45q8 -17 23 -28q14 -10 33 -15q17 -4 42 -4h33q6 0 14 -2
q6 -1 6 -12v-78q0 -11 -21 -11h-34q-37 0 -71 20q-32 19 -40 54h-4q-10 -62 -36 -117q-25 -55 -71 -99q-45 -44 -111 -69q-65 -25 -157 -25z" />
    <glyph glyph-name="uniFBA5" unicode="&#x6c0;" horiz-adv-x="604" arabic-form="final" 
d="M210 667l33 1v4q-7 7 -12 20q-4 11 -4 23q0 35 21 54q20 19 59 19q30 0 53 -16q25 -17 26 -54h-45q-2 15 -10 23q-9 9 -23 9t-23 -10t-9 -30t10 -31q11 -12 28 -12h74v-41h-178v41zM575 1l-2 -2q-31 0 -57 9q-25 9 -46 24q-20 14 -34 36q-15 23 -23 45q-23 -32 -60 -56
t-87 -24q-38 0 -77 12q-38 12 -72 38q-33 25 -54 66t-21 96q0 46 14 90q13 41 42 73q28 31 72 49q43 18 100 18h226v-267q0 -58 21 -81t59 -23h28q6 0 14 -2q6 -2 6 -12v-78q0 -11 -21 -11h-28zM262 133l-1 1q47 0 82 29q34 28 34 87v123h-112q-46 0 -79 -34
q-33 -35 -33 -94q0 -58 31 -85q32 -27 78 -27z" />
    <glyph glyph-name="uniFBA6" unicode="&#x6c1;" horiz-adv-x="586" arabic-form="isolated" 
d="M541 240q0 -62 -18 -108t-51 -78t-78 -48q-44 -16 -101 -16t-101 16q-45 16 -78 48t-51 78t-18 108t18 108t51 78t78 48q44 16 101 16t101 -16q45 -16 78 -48t51 -78t18 -108zM162 240q0 -64 33 -106t98 -42t98 42t33 106t-33 106t-98 42t-98 -42t-33 -106z" />
    <glyph glyph-name="uniFBA7" unicode="&#x6c1;" horiz-adv-x="601" arabic-form="final" 
d="M601 103v4q6 0 14 -2q6 -1 6 -12v-78q0 -11 -21 -11h-38q-37 0 -72 11q-33 11 -57 30t-39 48q-15 28 -15 65v198h-119q-29 0 -49 -10q-21 -11 -33 -28q-12 -18 -18 -42t-6 -51v-121h-112v123q0 49 15 92q15 44 45 77q31 34 75 53q46 20 107 20h208v-262q0 -59 18 -81
q18 -23 62 -23h29z" />
    <glyph glyph-name="uniFBA8" unicode="&#x6c1;" horiz-adv-x="359" arabic-form="initial" 
d="M0 0l2 -2q-21 0 -21 11v78q0 11 6 12q8 2 14 2h185v323h114v-426h-96v-86q0 -32 12 -44t44 -12h34v-69h-34q-69 0 -104 28q-36 29 -36 99v52q0 25 1 34h-121z" />
    <glyph glyph-name="uniFBA9" unicode="&#x6c1;" horiz-adv-x="800" arabic-form="medial" 
d="M800 103l3 3q6 0 14 -2q6 -2 6 -12v-78q0 -11 -21 -11h-35q-29 0 -60 17q-29 16 -43 45h-4q-1 -7 -8 -28q-5 -16 -20 -34h-631q-21 0 -21 11v78q0 10 6 12q8 2 14 2h82q-14 16 -21 39q-7 21 -7 54q0 36 11 66q10 28 29 50q18 21 42 33q26 13 51 17q29 58 84 92
q56 35 137 35q134 0 192 -63q59 -64 59 -190v-44q0 -27 9 -45q8 -17 23 -28q13 -10 33 -15q17 -4 42 -4h34zM395 201l-1 -3q0 -33 -7 -54q-8 -24 -19 -39h180v136q0 83 -37 120t-99 37q-37 0 -64 -12t-44 -32q40 -17 65 -54q26 -38 26 -99zM226 292h-2q-36 0 -58 -24
q-22 -23 -22 -69q0 -45 24 -73t58 -28q35 0 57 28q23 29 23 73q0 46 -22 69q-22 24 -58 24z" />
    <glyph glyph-name="uniFBAA" unicode="&#x6be;" horiz-adv-x="891" arabic-form="isolated" 
d="M144 -64v-19h-119v24q0 45 14 78q13 31 39 51t61 27q38 8 80 8h45q-14 17 -21 39q-7 21 -7 54q0 36 11 66q10 28 29 50q18 21 42 33q25 13 51 17q29 58 84 92q56 35 137 35q134 0 192 -63q59 -64 59 -190v-239h-621q-42 0 -59 -12t-17 -51zM574 197l-1 -3q0 -33 -7 -54
q-8 -24 -19 -39h180v136q0 83 -37 120t-99 37q-37 0 -64 -12t-44 -32q40 -17 65 -54q26 -38 26 -99zM405 288h-2q-35 0 -58 -24q-22 -23 -22 -69q0 -45 24 -73t58 -28q35 0 57 28q23 29 23 73q0 46 -22 69q-23 24 -58 24z" />
    <glyph glyph-name="uniFBAB" unicode="&#x6be;" horiz-adv-x="983" arabic-form="final" 
d="M983 103q6 0 14 -2q6 -1 6 -12v-78q0 -11 -21 -11h-36q-27 0 -58 17q-29 16 -43 45h-4q-1 -11 -8 -29q-6 -15 -20 -33h-593q-42 0 -59 -12t-17 -51v-18h-119v24q0 45 14 78q13 31 39 51t61 27q38 8 80 8h45q-14 17 -21 39q-7 21 -7 54q0 36 11 66q10 28 29 50
q18 21 42 33q25 13 51 17q29 58 84 92q56 35 137 35q134 0 192 -63q59 -64 59 -190v-50q0 -50 32 -69q30 -18 75 -18h35zM574 198l-1 -3q0 -33 -7 -54q-8 -24 -19 -39h180v136q0 83 -37 120t-99 37q-37 0 -64 -12t-44 -32q40 -17 65 -54q26 -38 26 -99zM405 289h-2
q-35 0 -58 -24q-22 -23 -22 -69q0 -44 24 -73q24 -28 58 -28q35 0 57 28q23 29 23 73q0 46 -22 69q-23 24 -58 24z" />
    <glyph glyph-name="uniFBAC" unicode="&#x6be;" horiz-adv-x="709" arabic-form="initial" 
d="M55 198l1 3q0 36 11 66q10 28 29 50q18 21 42 33q25 13 51 17q29 58 84 92q56 35 137 35q134 0 192 -63q59 -64 59 -190v-239h-659q-21 0 -21 11v78q0 11 6 12q8 2 14 2h82q-13 17 -21 39q-7 21 -7 54zM393 201l-1 -3q0 -33 -7 -54q-8 -24 -19 -39h180v136q0 83 -37 120
t-99 37q-37 0 -64 -12t-44 -32q40 -17 65 -54q26 -38 26 -99zM224 292h-2q-36 0 -58 -24q-22 -23 -22 -69q0 -45 24 -73t58 -28q35 0 57 28q23 29 23 73q0 46 -22 69q-23 24 -58 24z" />
    <glyph glyph-name="uniFBAD" unicode="&#x6be;" horiz-adv-x="800" arabic-form="medial" 
d="M800 103l3 3q6 0 14 -2q6 -2 6 -12v-78q0 -11 -21 -11h-35q-29 0 -60 17q-29 16 -43 45h-4q-1 -7 -8 -28q-5 -16 -20 -34h-631q-21 0 -21 11v78q0 10 6 12q8 2 14 2h82q-14 16 -21 39q-7 21 -7 54q0 36 11 66q10 28 29 50q18 21 42 33q26 13 51 17q29 58 84 92
q56 35 137 35q134 0 192 -63q59 -64 59 -190v-44q0 -27 9 -45q8 -17 23 -28q13 -10 33 -15q17 -4 42 -4h34zM395 201l-1 -3q0 -33 -7 -54q-8 -24 -19 -39h180v136q0 83 -37 120t-99 37q-37 0 -64 -12t-44 -32q40 -17 65 -54q26 -38 26 -99zM226 292h-2q-36 0 -58 -24
q-22 -23 -22 -69q0 -45 24 -73t58 -28q35 0 57 28q23 29 23 73q0 46 -22 69q-22 24 -58 24z" />
    <glyph glyph-name="uniFBAE" unicode="&#x6d2;" horiz-adv-x="897" arabic-form="isolated" 
d="M468 364h-165q-34 0 -61 -10q-28 -10 -49 -31t-33 -51t-12 -69v-99h486q59 0 84 34t25 94v67h109v-68q0 -119 -51 -174q-51 -56 -137 -56h-629v196q0 65 15 114t48 84q32 34 84 52q51 18 124 18h162v-101z" />
    <glyph glyph-name="uniFBAF" unicode="&#x6d2;" horiz-adv-x="897" arabic-form="final" 
d="M468 0h-165q-34 0 -61 -10q-28 -11 -49 -31q-21 -21 -33 -51t-12 -69v-14h486q59 0 84 34t25 94v67h109v-68q0 -118 -51 -174t-137 -56h-629v111q0 65 15 114t48 84q32 34 84 52q51 18 124 18h162v-101z" />
    <glyph glyph-name="uniFBB0" unicode="&#x6d3;" horiz-adv-x="897" arabic-form="isolated" 
d="M295 622l33 1v4q-7 7 -12 20q-4 11 -4 23q0 34 21 54q20 19 59 19q30 0 53 -16q25 -17 26 -54h-45q-2 15 -10 23q-9 9 -23 9t-23 -10q-9 -11 -9 -30q0 -20 10 -31q11 -12 28 -12h74v-41h-178v41zM467 365h-165q-34 0 -61 -10q-28 -10 -49 -31t-33 -51t-12 -69v-99h486
q59 0 84 34t25 94v67h109v-68q0 -118 -51 -174t-137 -56h-629v196q0 64 15 114t48 84q32 34 84 52q51 18 124 18h162v-101z" />
    <glyph glyph-name="uniFBB1" unicode="&#x6d3;" horiz-adv-x="897" arabic-form="final" 
d="M283 254l33 1v4q-7 7 -12 20q-4 11 -4 23q0 34 21 54q20 19 59 19q30 0 53 -16q25 -17 26 -54h-45q-2 15 -10 23q-9 9 -23 9t-23 -10q-9 -11 -9 -30q0 -20 10 -31q10 -12 28 -12h74v-41h-178v41zM467 1h-165q-34 0 -61 -10q-28 -11 -49 -31q-21 -21 -33 -51t-12 -69v-14
h486q59 0 84 34t25 94v67h109v-68q0 -119 -51 -174q-51 -56 -137 -56h-629v111q0 64 15 114t48 84q32 34 84 52q51 18 124 18h162v-101z" />
    <glyph glyph-name="uniFBE8" unicode="&#x649;" horiz-adv-x="359" arabic-form="initial" 
d="M185 103l1 323h114v-426h-299q-21 0 -21 11v78q0 11 6 12q8 2 14 2h185z" />
    <glyph glyph-name="uniFBE9" unicode="&#x649;" horiz-adv-x="475" arabic-form="medial" 
d="M432 0l-2 -1q-22 0 -42 9q-21 10 -36 22q-18 15 -29 30q-12 16 -18 33q-25 -47 -71 -70q-44 -22 -89 -22h-144q-21 0 -21 11v78q0 10 6 12q8 2 14 2h145q10 0 22 3q13 3 23 12t18 24q7 14 7 38v245h114v-210q0 -27 10 -47t26 -36q14 -14 33 -22t35 -8h43q6 0 14 -2
q6 -1 6 -12v-78q0 -11 -21 -11h-43z" />
    <glyph glyph-name="uniFBFC" unicode="&#x6cc;" horiz-adv-x="798" arabic-form="isolated" 
d="M402 -179l-7 -4q44 0 90 8q43 7 76 24q33 16 52 43q20 28 20 63q0 19 -6 34t-24 27q-19 12 -49 24q-63 24 -79 29q-81 27 -124 77t-43 120q0 46 13 85q14 41 40 70q27 30 69 48t99 18q95 0 147 -54q53 -54 60 -154h-99q-9 49 -35 81t-72 32q-47 0 -75 -34t-28 -90
q0 -26 12 -45q13 -20 33 -35t53 -27q31 -12 72 -24q89 -27 123 -72q35 -46 35 -106q0 -52 -20 -97q-19 -44 -63 -75t-111 -48q-65 -16 -162 -16q-108 0 -177 31q-72 32 -113 85q-42 54 -60 126q-17 70 -19 155h103q0 -83 16 -138q17 -58 49 -93t84 -52q49 -16 120 -16z" />
    <glyph glyph-name="uniFBFD" unicode="&#x6cc;" horiz-adv-x="758" arabic-form="final" 
d="M401 -278l1 -6q-105 0 -174 28q-71 29 -114 79q-44 51 -63 123t-21 159h103q2 -79 19 -131q18 -54 53 -89t84 -51q48 -16 114 -16q48 0 90 6t72 21t48 39t18 59q0 6 -3 15t-9 18t-15 15t-19 6q-5 0 -25 2q-14 1 -31 6t-33 12q-19 9 -30 16v99q11 -7 33 -13q14 -4 44 -10
q23 -5 45 -6q30 -2 37 -2h136q6 0 14 -2q6 -1 6 -12v-78q0 -11 -21 -11h-70q14 -16 23 -39q9 -24 9 -44q0 -37 -21 -72q-22 -36 -61 -62q-40 -26 -100 -43q-58 -16 -139 -16z" />
    <glyph glyph-name="uniFBFE" unicode="&#x6cc;" horiz-adv-x="359" arabic-form="initial" 
d="M10 -95h114v-117h-114v117zM179 -95h114v-117h-114v117zM185 103l1 323h114v-426h-299q-21 0 -21 11v78q0 11 6 12q8 2 14 2h185z" />
    <glyph glyph-name="uniFBFF" unicode="&#x6cc;" horiz-adv-x="475" arabic-form="medial" 
d="M27 -95h114v-117h-114v117zM196 -95h114v-117h-114v117zM432 0l-2 -1q-22 0 -42 9q-21 10 -36 22q-18 15 -29 30q-12 16 -18 33q-25 -47 -71 -70q-44 -22 -89 -22h-144q-21 0 -21 11v78q0 10 6 12q8 2 14 2h145q10 0 22 3q13 3 23 12t18 24q7 14 7 38v245h114v-210
q0 -27 10 -47t26 -36q14 -14 33 -22t35 -8h43q6 0 14 -2q6 -1 6 -12v-78q0 -11 -21 -11h-43z" />
    <glyph glyph-name="uniFC31" unicode="&#xfc31;" horiz-adv-x="1250" arabic-form="isolated" 
d="M401 -278l7 -6q-105 0 -174 28q-71 29 -114 79q-44 51 -63 123t-21 159h103q2 -79 19 -131q18 -54 53 -89t84 -51q48 -16 114 -16q48 0 90 6t72 21t48 39t18 59q0 6 -3 15t-9 18t-15 15t-19 6q-5 0 -25 2q-14 1 -31 6t-33 12q-19 9 -30 16v99q11 -7 33 -13q14 -4 44 -10
q23 -5 45 -6q30 -2 37 -2h6h130h6h10v4q-9 5 -21 18t-21 33q-7 16 -16 42q-7 21 -7 45q0 60 18 105q18 46 51 77t78 48q44 16 99 16q54 0 99 -15q46 -15 78 -46q33 -32 51 -78t18 -108t-18 -108t-51 -76t-79 -45t-102 -15h-270q14 -16 23 -39q9 -24 9 -44q0 -37 -21 -72
q-22 -36 -61 -62q-40 -26 -100 -43q-58 -16 -139 -16zM965 386v-2q-65 0 -98 -40t-33 -106t33 -106t98 -40t98 40t33 106t-33 107t-98 41zM919 708h114v-117h-114v117z" />
    <glyph glyph-name="uniFC32" unicode="&#xfc32;" horiz-adv-x="1250" arabic-form="isolated" 
d="M401 -278l7 -6q-105 0 -174 28q-71 29 -114 79q-44 51 -63 123t-21 159h103q2 -79 19 -131q18 -54 53 -89t84 -51q48 -16 114 -16q48 0 90 6t72 21t48 39t18 59q0 6 -3 15t-9 18t-15 15t-19 6q-5 0 -25 2q-14 1 -31 6t-33 12q-19 9 -30 16v99q11 -7 33 -13q14 -4 44 -10
q23 -5 45 -6q30 -2 37 -2h6h130h6h10v4q-9 5 -21 18t-21 33q-7 16 -16 42q-7 21 -7 45q0 60 18 105q18 46 51 77t78 48q44 16 99 16q54 0 99 -15q46 -15 78 -46q33 -32 51 -78t18 -108t-18 -108t-51 -76t-79 -45t-102 -15h-270q14 -16 23 -39q9 -24 9 -44q0 -37 -21 -72
q-22 -36 -61 -62q-40 -26 -100 -43q-58 -16 -139 -16zM965 386v-2q-65 0 -98 -40t-33 -106t33 -106t98 -40t98 40t33 106t-33 107t-98 41zM919 708h114v-117h-114v117zM266 -360h114v-117h-114v117zM435 -360h114v-117h-114v117z" />
    <glyph glyph-name="uniFC35" unicode="&#xfc35;" horiz-adv-x="1250" arabic-form="isolated" 
d="M401 -278l7 -6q-105 0 -174 28q-71 29 -114 79q-44 51 -63 123t-21 159h103q2 -79 19 -131q18 -54 53 -89t84 -51q48 -16 114 -16q48 0 90 6t72 21t48 39t18 59q0 6 -3 15t-9 18t-15 15t-19 6q-5 0 -25 2q-14 1 -31 6t-33 12q-19 9 -30 16v99q11 -7 33 -13q14 -4 44 -10
q23 -5 45 -6q30 -2 37 -2h6h130h6h10v4q-9 5 -21 18t-21 33q-7 16 -16 42q-7 21 -7 45q0 60 18 105q18 46 51 77t78 48q44 16 99 16q54 0 99 -15q46 -15 78 -46q33 -32 51 -78t18 -108t-18 -108t-51 -76t-79 -45t-102 -15h-270q14 -16 23 -39q9 -24 9 -44q0 -37 -21 -72
q-22 -36 -61 -62q-40 -26 -100 -43q-58 -16 -139 -16zM965 386v-2q-65 0 -98 -40t-33 -106t33 -106t98 -40t98 40t33 106t-33 107t-98 41zM839 707h114v-117h-114v117zM1008 707h114v-117h-114v117z" />
    <glyph glyph-name="uniFC36" unicode="&#xfc36;" horiz-adv-x="1250" arabic-form="isolated" 
d="M401 -278l7 -6q-105 0 -174 28q-71 29 -114 79q-44 51 -63 123t-21 159h103q2 -79 19 -131q18 -54 53 -89t84 -51q48 -16 114 -16q48 0 90 6t72 21t48 39t18 59q0 6 -3 15t-9 18t-15 15t-19 6q-5 0 -25 2q-14 1 -31 6t-33 12q-19 9 -30 16v99q11 -7 33 -13q14 -4 44 -10
q23 -5 45 -6q30 -2 37 -2h6h130h6h10v4q-9 5 -21 18t-21 33q-7 16 -16 42q-7 21 -7 45q0 60 18 105q18 46 51 77t78 48q44 16 99 16q54 0 99 -15q46 -15 78 -46q33 -32 51 -78t18 -108t-18 -108t-51 -76t-79 -45t-102 -15h-270q14 -16 23 -39q9 -24 9 -44q0 -37 -21 -72
q-22 -36 -61 -62q-40 -26 -100 -43q-58 -16 -139 -16zM965 386v-2q-65 0 -98 -40t-33 -106t33 -106t98 -40t98 40t33 106t-33 107t-98 41zM839 707h114v-117h-114v117zM1008 707h114v-117h-114v117zM266 -360h114v-117h-114v117zM435 -360h114v-117h-114v117z" />
    <glyph glyph-name="uniFC3D" unicode="&#xfc3d;" horiz-adv-x="1241" arabic-form="isolated" 
d="M402 -278v-7q-105 0 -174 28q-71 29 -114 79q-44 51 -63 123t-21 159h103q2 -79 19 -131q18 -54 53 -89q35 -34 84 -51q48 -16 114 -16q48 0 90 6t72 21t48 39t18 59q0 6 -3 15t-9 18t-15 15t-19 6q-5 0 -25 2q-14 1 -31 6q-17 4 -33 12q-19 9 -30 16v99q11 -7 33 -13
q14 -4 44 -10q23 -4 45 -6q30 -2 37 -2h136h6h309v118q0 80 -36 116t-94 36h-316v101l240 241h138l-237 -241h170q70 0 117 -16q48 -17 78 -48q31 -32 44 -79q14 -50 14 -109v-221h-429h-4h-70q14 -16 23 -39q9 -24 9 -44q0 -37 -21 -72q-22 -36 -61 -62q-40 -26 -100 -43
q-58 -16 -139 -16z" />
    <glyph glyph-name="uniFC3E" unicode="&#xfc3e;" horiz-adv-x="1241" arabic-form="isolated" 
d="M402 -278v-7q-105 0 -174 28q-71 29 -114 79q-44 51 -63 123t-21 159h103q2 -79 19 -131q18 -54 53 -89q35 -34 84 -51q48 -16 114 -16q48 0 90 6t72 21t48 39t18 59q0 6 -3 15t-9 18t-15 15t-19 6q-5 0 -25 2q-14 1 -31 6q-17 4 -33 12q-19 9 -30 16v99q11 -7 33 -13
q14 -4 44 -10q23 -4 45 -6q30 -2 37 -2h136h6h309v118q0 80 -36 116t-94 36h-316v101l240 241h138l-237 -241h170q70 0 117 -16q48 -17 78 -48q31 -32 44 -79q14 -50 14 -109v-221h-429h-4h-70q14 -16 23 -39q9 -24 9 -44q0 -37 -21 -72q-22 -36 -61 -62q-40 -26 -100 -43
q-58 -16 -139 -16zM249 -359h114v-117h-114v117zM418 -359h114v-117h-114v117z" />
    <glyph glyph-name="uniFC43" unicode="&#xfc43;" horiz-adv-x="926" arabic-form="isolated" 
d="M401 -278l1 -4q-105 0 -174 28q-71 29 -114 79q-44 51 -63 123t-21 159h103q2 -79 19 -131q18 -54 53 -89t84 -51q48 -16 114 -16q48 0 90 6t72 21t48 39t18 59q0 6 -3 15t-9 18t-15 15t-19 6q-5 0 -25 2q-14 1 -31 6t-33 12q-19 9 -30 16v99q9 -6 29 -13q14 -5 39 -10
q14 -3 42 -7q21 -3 38 -3h140v612h114v-715h-104h-4h-70q14 -16 23 -39q9 -24 9 -44q0 -37 -21 -72q-22 -36 -61 -62q-40 -26 -100 -43q-58 -16 -139 -16z" />
    <glyph glyph-name="uniFC44" unicode="&#xfc44;" horiz-adv-x="926" arabic-form="isolated" 
d="M401 -278l1 -4q-105 0 -174 28q-71 29 -114 79q-44 51 -63 123t-21 159h103q2 -79 19 -131q18 -54 53 -89t84 -51q48 -16 114 -16q48 0 90 6t72 21t48 39t18 59q0 6 -3 15t-9 18t-15 15t-19 6q-5 0 -25 2q-14 1 -31 6t-33 12q-19 9 -30 16v99q9 -6 29 -13q14 -5 39 -10
q14 -3 42 -7q21 -3 38 -3h140v612h114v-715h-104h-4h-70q14 -16 23 -39q9 -24 9 -44q0 -37 -21 -72q-22 -36 -61 -62q-40 -26 -100 -43q-58 -16 -139 -16zM270 -356h114v-117h-114v117zM439 -356h114v-117h-114v117z" />
    <glyph glyph-name="uniFC53" unicode="&#xfc53;" horiz-adv-x="1305" arabic-form="isolated" 
d="M401 -278l1 -1q-105 0 -174 28q-71 29 -114 79q-44 51 -63 123t-21 159h103q2 -79 19 -131q18 -54 53 -89q35 -34 84 -51q48 -16 114 -16q48 0 90 6t72 21t48 39t18 59q0 6 -3 15t-9 18t-15 15t-19 6q-5 0 -25 2q-14 1 -31 6q-17 4 -33 12q-19 9 -30 16v99q9 -6 29 -13
q14 -5 39 -10q14 -3 42 -7q21 -3 38 -3h66q-14 16 -21 39q-7 21 -7 54q0 36 11 66q10 28 29 50q18 21 42 33q26 13 51 17q29 58 84 92q56 35 137 35q134 0 192 -63q59 -64 59 -190v-239h-493h-4h-70q14 -16 23 -39q9 -24 9 -44q0 -37 -21 -72q-22 -36 -61 -62
q-40 -26 -100 -43q-58 -16 -139 -16zM989 197l-1 -3q0 -33 -7 -54q-8 -24 -19 -39h180v136q0 83 -37 120t-99 37q-37 0 -64 -12t-44 -32q40 -17 65 -54q26 -38 26 -99zM820 288h-2q-36 0 -58 -24q-22 -23 -22 -69q0 -45 24 -73t58 -28q35 0 57 28q23 29 23 73q0 46 -22 69
q-22 24 -58 24z" />
    <glyph glyph-name="uniFC54" unicode="&#xfc54;" horiz-adv-x="1305" arabic-form="isolated" 
d="M401 -278l1 -1q-105 0 -174 28q-71 29 -114 79q-44 51 -63 123t-21 159h103q2 -79 19 -131q18 -54 53 -89q35 -34 84 -51q48 -16 114 -16q48 0 90 6t72 21t48 39t18 59q0 6 -3 15t-9 18t-15 15t-19 6q-5 0 -25 2q-14 1 -31 6q-17 4 -33 12q-19 9 -30 16v99q9 -6 29 -13
q14 -5 39 -10q14 -3 42 -7q21 -3 38 -3h66q-14 16 -21 39q-7 21 -7 54q0 36 11 66q10 28 29 50q18 21 42 33q26 13 51 17q29 58 84 92q56 35 137 35q134 0 192 -63q59 -64 59 -190v-239h-493h-4h-70q14 -16 23 -39q9 -24 9 -44q0 -37 -21 -72q-22 -36 -61 -62
q-40 -26 -100 -43q-58 -16 -139 -16zM989 197l-1 -3q0 -33 -7 -54q-8 -24 -19 -39h180v136q0 83 -37 120t-99 37q-37 0 -64 -12t-44 -32q40 -17 65 -54q26 -38 26 -99zM820 288h-2q-36 0 -58 -24q-22 -23 -22 -69q0 -45 24 -73t58 -28q35 0 57 28q23 29 23 73q0 46 -22 69
q-22 24 -58 24zM225 -356h114v-117h-114v117zM394 -356h114v-117h-114v117z" />
    <glyph glyph-name="uni064C0651" unicode="&#xfc5e;" arabic-form="isolated" 
d="M-46 904q17 0 32 9q12 7 28 23q-7 1 -16 6q-10 5 -17 12t-12 17t-5 21q0 26 15 38t36 12q24 0 38 -13q15 -13 15 -43q0 -20 -10 -39t-27 -36q-16 -16 -36 -25q-19 -9 -41 -9q-21 0 -37 16t-16 45h-18v22h22q12 0 17 -4q6 -4 6 -18t6 -24t20 -10zM-8 991l-2 -2
q0 -12 11 -21q11 -10 26 -11q3 5 7 15q3 8 3 14q0 13 -6 22t-18 9q-9 0 -15 -7q-6 -8 -6 -19zM-63 733l-1 -2q-17 0 -29 9q-13 10 -20 37l-10 40l34 10l9 -32q4 -12 11 -21q6 -8 15 -8q11 0 21 8q9 8 9 20v3q0 3 -1 6q0 1 -1.5 6t-2.5 8t-3.5 11.5t-3.5 12.5l33 10l8 -32
q3 -12 13 -21q8 -7 17 -7q14 0 20 8q6 7 6 18v3q0 3 -1 6q0 1 -1.5 6t-2.5 8t-7 25l34 9q2 -10 8 -30q1 -3 2.5 -9t2.5 -8q2 -8 2 -9v-6q0 -22 -17 -36t-42 -14q-12 0 -24 6q-11 5 -19 20q0 -25 -17 -40t-42 -15z" />
    <glyph glyph-name="uni064D0651" unicode="&#xfc5f;" arabic-form="isolated" 
d="M-68 924l-1 -2q-17 0 -29 9q-13 10 -20 37l-10 40l34 10l9 -32q4 -12 11 -21q6 -8 15 -8q11 0 21 8q9 7 9 20v3q0 3 -1 6q0 1 -1.5 6t-2.5 8t-3.5 11.5t-3.5 12.5l33 10l8 -32q3 -12 13 -21q8 -7 17 -7q14 0 20 8t6 18v3q0 3 -1 6q0 1 -1.5 6t-2.5 8t-7 25l34 9
q2 -10 8 -30q1 -3 2.5 -9t2.5 -8q2 -8 2 -9v-6q0 -22 -17 -36t-42 -14q-12 0 -24 6q-11 5 -19 20q0 -25 -17 -40q-16 -15 -42 -15zM-73 744l-11 42l202 54l11 -42zM-92 818l-11 42l202 54l11 -42z" />
    <glyph glyph-name="uni064E0651" unicode="&#xfc60;" arabic-form="isolated" 
d="M-48 739l-1 -2q-17 0 -29 9q-13 10 -20 37l-10 40l34 10l9 -32q4 -12 11 -21q6 -8 15 -8q11 0 21 8q9 8 9 20v3q0 3 -1 6q0 1 -1.5 6t-2.5 8t-3.5 11.5t-3.5 12.5l33 10l8 -32q3 -12 13 -21q8 -7 17 -7q14 0 20 8q6 7 6 18v3q0 3 -1 6q0 1 -1.5 6t-2.5 8t-7 25l34 9
q2 -10 8 -30q1 -3 2.5 -9t2.5 -8q2 -8 2 -9v-6q0 -22 -17 -36t-42 -14q-12 0 -24 6q-11 5 -19 20q0 -25 -17 -40q-16 -15 -42 -15zM-109 874l-11 42l202 54l11 -42z" />
    <glyph glyph-name="uni064F0651" unicode="&#xfc61;" arabic-form="isolated" 
d="M-69 686l-1 -2q-17 0 -29 9q-13 10 -20 37l-10 40l34 10l9 -32q4 -12 11 -21q6 -8 15 -8q11 0 21 8q9 7 9 20v3q0 3 -1 6q0 1 -1.5 6t-2.5 8t-3.5 11.5t-3.5 12.5l33 10l8 -32q3 -12 13 -21q8 -7 17 -7q14 0 20 8t6 18v3q0 3 -1 6q0 1 -1.5 6t-2.5 8t-7 25l34 9
q2 -10 8 -30q1 -3 2.5 -9t2.5 -8q2 -8 2 -9v-6q0 -22 -17 -36t-42 -14q-12 0 -24 6q-11 5 -19 20q0 -25 -17 -40t-42 -15zM-68 859l-2 -2q20 0 39 12q18 11 36 29q-8 1 -20 8q-11 6 -21 15q-10 8 -16 21q-6 12 -6 27q0 32 18 47t45 15q28 0 48 -17q19 -16 19 -54
q0 -24 -12 -48q-11 -22 -32 -43q-19 -19 -45 -31q-25 -12 -51 -12v33zM-24 964v-1q0 -15 14 -26t32 -14q6 14 8 20q3 9 3 17q0 16 -8 27q-7 10 -21 10q-12 0 -20 -9q-8 -10 -8 -24z" />
    <glyph glyph-name="uni06500651" unicode="&#xfc62;" arabic-form="isolated" 
d="M-61 856l-1 -2q-17 0 -29 9q-13 10 -20 37l-10 40l34 10l9 -32q4 -12 11 -21q6 -8 15 -8q11 0 21 8q9 7 9 20v3q0 3 -1 6q0 1 -1.5 6t-2.5 8t-3.5 11.5t-3.5 12.5l33 10l8 -32q3 -12 13 -21q8 -7 17 -7q14 0 20 8t6 18v3q0 3 -1 6q0 1 -1.5 6t-2.5 8t-7 25l34 9
q2 -10 8 -30q1 -3 2.5 -9t2.5 -8q2 -8 2 -9v-6q0 -22 -17 -36t-42 -14q-12 0 -24 6q-11 5 -19 20q0 -25 -17 -40t-42 -15zM-88 740l-11 42l202 54l11 -42z" />
    <glyph glyph-name="uni06510670" unicode="&#xfc63;" arabic-form="isolated" 
d="M-47 760l-4 -2q-24 0 -42 12t-18 50v44h43v-37q0 -14 5 -24q5 -9 17 -9q10 2 18 9q7 7 7 25v38h44v-39q0 -17 7 -24t18 -7q10 0 15 9q5 10 5 23v38h43v-44q0 -39 -18 -51t-43 -12q-16 0 -30 9t-18 30q-6 -21 -19 -29q-13 -9 -30 -9zM-25 1013h37v-116h-37v116z" />
    <glyph glyph-name="uniFC86" unicode="&#xfc86;" horiz-adv-x="1010" arabic-form="final" 
d="M970 0v-6q-22 0 -42 9q-21 10 -36 22q-18 15 -29 30q-12 17 -18 33q-25 -46 -69 -69t-87 -24q14 -16 23 -39q9 -24 9 -44q0 -38 -21 -72q-22 -36 -61 -62q-40 -26 -100 -43q-58 -16 -139 -16q-105 0 -174 28q-71 29 -114 79q-44 51 -63 123t-21 159h103q2 -79 19 -131
q18 -54 53 -89q35 -34 84 -51q48 -16 114 -16q48 0 90 6t72 21t48 39t18 59q0 6 -3 15t-9 18t-15 15t-19 6q-5 0 -25 2q-14 1 -31 6q-17 4 -33 12q-19 9 -30 16v99q9 -6 29 -13q14 -5 39 -10q14 -3 42 -7q21 -3 38 -3h71q10 0 22 3q13 3 23 12t18 24q7 14 7 38v534h114v-504
q0 -26 10 -45t26 -33q15 -13 33 -21q17 -7 35 -7h40q6 0 14 -2q6 -1 6 -12v-78q0 -11 -21 -11h-40z" />
    <glyph glyph-name="uniFC87" unicode="&#xfc87;" horiz-adv-x="1010" arabic-form="final" 
d="M970 0v-6q-22 0 -42 9q-21 10 -36 22q-18 15 -29 30q-12 17 -18 33q-25 -46 -69 -69t-87 -24q14 -16 23 -39q9 -24 9 -44q0 -38 -21 -72q-22 -36 -61 -62q-40 -26 -100 -43q-58 -16 -139 -16q-105 0 -174 28q-71 29 -114 79q-44 51 -63 123t-21 159h103q2 -79 19 -131
q18 -54 53 -89q35 -34 84 -51q48 -16 114 -16q48 0 90 6t72 21t48 39t18 59q0 6 -3 15t-9 18t-15 15t-19 6q-5 0 -25 2q-14 1 -31 6q-17 4 -33 12q-19 9 -30 16v99q9 -6 29 -13q14 -5 39 -10q14 -3 42 -7q21 -3 38 -3h71q10 0 22 3q13 3 23 12t18 24q7 14 7 38v534h114v-504
q0 -26 10 -45t26 -33q15 -13 33 -21q17 -7 35 -7h40q6 0 14 -2q6 -1 6 -12v-78q0 -11 -21 -11h-40zM246 -358h114v-117h-114v117zM415 -358h114v-117h-114v117z" />
    <glyph glyph-name="uniFDF2" unicode="&#xfdf2;" horiz-adv-x="1499" arabic-form="isolated" 
d="M577 0l-7 -5q-32 0 -57 9t-46 24q-20 14 -34 36q-15 23 -23 45q-23 -32 -60 -56q-38 -24 -87 -24q-38 0 -77 12q-38 12 -72 38q-33 25 -54 66t-21 96q0 46 14 90q13 41 42 73q28 31 72 49t100 18h226v-267q0 -58 21 -81t59 -23h94q10 0 22 3q13 3 23 12t18 24q7 14 7 38
v534h114v-504q0 -25 10 -44t26 -33q15 -14 33 -21q19 -8 35 -8h102v612h114v-715h-216q-23 0 -42 9q-21 10 -36 22q-18 15 -29 30q-12 17 -18 33q-25 -47 -71 -70q-44 -22 -89 -22h-93zM259 129l-1 1q47 0 82 29q34 28 34 87v123h-112q-46 0 -79 -34q-33 -35 -33 -94
q0 -58 31 -85t78 -27zM1317 -4v715h114v-715h-114z" />
    <glyph glyph-name="uniFDFA" unicode="&#xfdfa;" horiz-adv-x="1057" arabic-form="isolated" 
d="M1017 437l-3 -5q0 -14 -16 -39q-15 -24 -31 -31q-45 -21 -116 -21h-23q-7 0 -25 2q-24 -47 -38 -47q-4 0 -4 6q0 16 22 47q-41 17 -48 27q-40 -26 -50 -26q8 -143 25 -176q18 -35 84 -40l2 2q-21 15 -21 43q0 33 32 76q24 32 61 32q28 0 54 -17q24 -16 24 -31
q-26 9 -51 9q-35 0 -65 -14q-26 -14 -26 -27q0 -14 25 -39q26 -26 45 -29q19 2 68 18q52 17 66 25l-17 -37q-26 -14 -75 -28q-41 -12 -78 -19q-32 -6 -39 -6l1 1q-97 0 -119 73q-30 -65 -57 -65q-25 0 -66 44q-64 -56 -197 -56q-10 0 -38 2q-22 2 -32 3q4 -32 9 -52
q9 -36 23 -50q44 -44 176 -44q112 0 165 32q15 37 28 37q4 0 4 -8q0 -14 -12 -44q6 -13 27 -13q25 0 48 12q21 66 33 66q4 0 4 -11q0 -19 -10 -43q30 -13 45 -13q8 0 8 4q0 5 -8 39l17 36q12 -36 12 -52q0 -67 -44 -67q-23 0 -48 19q-17 -26 -60 -26q-48 0 -48 26
q-18 -14 -64 -24q-52 -11 -120 -11q-98 0 -144 28q-58 35 -60 126l-22 -32q-16 -25 -26 -27q12 -22 12 -42q0 -26 -16 -42q-8 -8 -21 -8q-18 0 -61 23q-14 -31 -42 -48q-7 -4 -24 -4q-16 -1 -21 -3l-11 -4q-6 0 -6 5q0 6 24 15q10 4 24 11q8 4 14 8l34 26q-10 17 -10 40
q0 22 18 41q18 21 34 21q2 0 6 -2q19 -10 30 -10q18 0 36 23l23 42q-38 12 -55 27q-28 25 -39 84h-2q-29 -50 -78 -50q-18 0 -39 8q-16 6 -16 12q0 25 43 58q41 31 84 45l-2 17l20 33q5 -60 10 -89q6 -36 13 -51q14 -32 55 -45l-13 132l19 43l17 -180q52 -6 95 -6
q104 0 177 40q12 38 19 38q4 0 4 -9t-4 -24q37 -35 59 -35q27 0 42 43l-13 161h-5q-70 0 -84 74h-2q-2 -6 -4 -14.5t-3 -10.5q-3 -9 -6 -16q-11 -25 -27 -30l2 -2q5 1 15 1q56 0 56 -40q0 -29 -25 -45q-85 -59 -160 -59q-46 0 -75 23q-28 22 -28 66q0 32 16 67q-29 8 -39 42
h-2q-16 -51 -55 -51q-47 0 -47 69v8l-27 -24q-7 -7 -39 -7q-49 0 -49 18q0 11 13 31q14 22 24 27l76 37v10l17 36l4 -120q1 -42 32 -42q16 0 29 10q15 11 17 23l-16 114l18 39l28 -161q9 -21 33 -21q23 0 23 13q0 22 -16 74l-10 32l-9 33l13 33q40 -123 40 -156
q0 -17 -10 -44q-12 -28 -24 -28q-5 0 -9 3q-7 -21 -7 -39q0 -75 91 -75q70 0 141 48q2 2 2 3q0 6 -38 12l-61 10q-4 3 -4 8q0 10 17 32q59 25 64 54q1 2 1 6v8q0 43 -5 106q-5 58 -15 125l17 56q24 -209 38 -255q18 -57 72 -66l-5 96l21 45l8 -140q13 4 29 14q15 9 31 22
l30 -21q17 -12 39 -15q10 10 27 24t39 30q52 38 70 38t41 -14q26 -15 26 -33zM1005 -3v1q0 -50 -39 -108q-42 -64 -89 -64q-24 0 -60 16q-37 15 -37 23q0 4 5 4q6 0 27 -7q24 -8 36 -8h2q66 0 138 106l-7 22q-20 -26 -37 -26q-7 0 -13 3q-7 3 -11 9q-6 8 -8 13q-4 9 -4 18
q0 23 15 51q16 31 27 31q14 0 33 -24q22 -26 22 -60zM755 523v-1q0 -11 26 -25l-9 -24q-33 11 -33 39q0 30 26 44q65 38 117 63q47 23 95 40l-9 -25q-34 -12 -117 -51q-96 -47 -96 -60zM473 442q-3 -67 -13 -73l-25 242l22 57zM599 32l-26 -31l-48 35l-28 -36l-50 36l29 35
l47 -35l27 33zM986 415l1 -1q0 7 -18 16q-17 9 -27 9q-22 0 -60 -24q-33 -21 -48 -34h8h12q13 0 41 2q21 1 42 6q49 9 49 26zM630 -127h-1q0 -22 -2 -30q-6 -13 -25 -13q-10 0 -14 4q-15 -16 -30 -16q-8 0 -18 9q-8 8 -12 8q-7 0 -36 -17q-28 -18 -69 -18q-44 0 -44 8
q0 7 32 7h30q11 0 17 2q15 3 36 16q29 19 40 19q7 0 18 -8t12 -8q15 0 18 17q1 13 11 13q4 0 4 -6v-4q0 -4 -1 -5q3 -4 11 -6q12 0 12 12q0 16 11 16zM812 699l-6 -22l-195 -96l4 25zM78 205l-1 -1q0 -10 31 -10q34 0 60 24l-2 38q-88 -34 -88 -51zM320 658v1q0 -32 -21 -32
q-11 0 -21 8q-18 -15 -30 -15q-21 0 -21 27q0 19 3 27l6 6v-7q0 -30 17 -30q11 0 18 16l-2 23l9 14l4 -30q1 -16 15 -16q13 0 12 15l-3 22l7 10q7 -18 7 -39zM110 439l1 1q0 -10 25 -10q29 0 51 13l-1 39l-21 -9l-21 -9q-13 -6 -25 -14q-9 -6 -9 -11zM153 5v1q-14 0 -14 -12
t26 -27q27 -15 39 -15q7 0 7 6q-5 20 -24 33q-19 14 -34 14zM961 -5q13 0 15 11q-6 32 -26 32q-16 0 -20 -25q4 -18 31 -18z" />
    <glyph glyph-name="uniFE80" unicode="&#x621;" horiz-adv-x="541" arabic-form="isolated" 
d="M25 0l-4 99h109v7q-8 8 -18 21q-9 11 -19 30q-9 16 -15 35q-6 18 -6 36q0 43 17 82q16 37 47 63q30 25 69 39q40 14 83 14q89 0 142 -46q55 -47 59 -144h-99q-2 24 -10 39q-10 18 -22 29q-13 12 -32 18q-18 6 -37 6q-41 0 -69 -24t-28 -74q0 -26 6 -48t20 -41
q13 -17 33 -28q19 -10 45 -10h202v-103h-473z" />
    <glyph glyph-name="uniFE81" unicode="&#x622;" horiz-adv-x="234" arabic-form="isolated" 
d="M52 887v-3q19 0 32 -4l30 -9l30 -9q13 -4 30 -4q42 0 42 31h32q0 -35 -20 -57q-20 -21 -48 -21q-14 0 -31 5q-20 6 -30 10t-30 10q-17 5 -31 5q-42 0 -42 -32h-32q0 35 20 57q20 21 48 21zM60 -3v715h114v-715h-114z" />
    <glyph glyph-name="uniFE82" unicode="&#x622;" horiz-adv-x="264" arabic-form="final" 
d="M70 886v-3q19 0 32 -4l30 -9l30 -9q13 -4 30 -4q42 0 42 31h32q0 -35 -20 -57q-20 -21 -48 -21q-14 0 -31 5q-20 6 -30 10t-30 10q-17 5 -31 5q-42 0 -42 -32h-32q0 35 20 57q20 21 48 21zM264 100h1q6 0 14 -2q6 -2 6 -12v-78q0 -11 -21 -11h-204v715h114v-612h90z" />
    <glyph glyph-name="uniFE83" unicode="&#x623;" horiz-adv-x="234" arabic-form="isolated" 
d="M38 862l33 1v4q-7 7 -12 20q-4 11 -4 23q0 34 21 54q20 19 59 19q30 0 53 -16q25 -17 26 -54h-45q-2 15 -10 23q-9 9 -23 9t-23 -10q-9 -11 -9 -30q0 -20 10 -31q10 -12 28 -12h74v-41h-178v41zM59 1v715h114v-715h-114z" />
    <glyph glyph-name="uniFE84" unicode="&#x623;" horiz-adv-x="264" arabic-form="final" 
d="M43 825l33 1v4q-7 7 -12 20q-4 11 -4 23q0 35 21 54q20 19 59 19q30 0 53 -16q25 -17 26 -54h-45q-2 15 -10 23q-9 9 -23 9t-23 -10t-9 -30t10 -31q11 -12 28 -12h74v-41h-178v41zM263 104h1q6 0 14 -2q6 -2 6 -12v-78q0 -11 -21 -11h-204v715h114v-612h90z" />
    <glyph glyph-name="uniFE85" unicode="&#x624;" horiz-adv-x="555" arabic-form="isolated" 
d="M46 667l33 1v4q-7 7 -12 20q-4 11 -4 23q0 35 21 54q20 19 59 19q30 0 53 -16q25 -17 26 -54h-45q-2 15 -10 23q-9 9 -23 9t-23 -10t-9 -30t10 -31q11 -12 28 -12h74v-41h-178v41zM197 -139l-5 -2q34 0 67 5q30 4 53 20q22 15 39 42q16 26 25 72h-100q-51 0 -96 17
q-44 17 -75 48t-49 75t-18 96q0 47 11 96q11 47 37 82q27 36 72 57t113 21q66 0 114 -20t74 -58q27 -39 39 -94q12 -56 12 -126q0 -116 -15 -197q-15 -80 -51 -133q-36 -52 -93 -76t-141 -24q-16 0 -38 2q-14 1 -29 5q-13 5 -24 9v99q17 -8 34 -12q16 -4 44 -4zM155 233
l2 -2q0 -68 29 -100q28 -31 90 -31h112q3 42 3 94q0 95 -25 144t-93 49q-35 0 -57 -12t-36 -33q-13 -20 -19 -49t-6 -60z" />
    <glyph glyph-name="uniFE86" unicode="&#x624;" horiz-adv-x="635" arabic-form="final" 
d="M51 667l33 1v4q-7 7 -12 20q-4 11 -4 23q0 35 21 54q20 19 59 19q30 0 53 -16q25 -17 26 -54h-45q-2 15 -10 23q-9 9 -23 9t-23 -10t-9 -30t10 -31q10 -12 28 -12h74v-41h-178v41zM212 -237l1 -3q-16 0 -38 2q-14 1 -29 5q-14 5 -24 9v99q35 -16 77 -16q39 0 69 6
q32 6 53 22q24 17 38 43q15 27 24 69h-103q-51 0 -96 17q-44 16 -75 48t-48 75q-17 45 -17 96q0 49 12 96q12 46 39 82t72 57t113 21q67 0 113 -20q45 -20 72 -58q28 -40 38 -94q11 -58 11 -126q0 -49 -3 -90h126q6 0 14 -2q6 -1 6 -12v-78q0 -11 -21 -11h-136
q-10 -66 -33 -111q-22 -44 -57 -73t-84 -41q-50 -12 -114 -12zM161 232l3 3q0 -62 26 -97q25 -34 90 -34h115q3 42 3 94q0 43 -5 83q-5 36 -18 60t-36 36t-57 12q-35 0 -57 -13t-37 -36q-15 -22 -21 -51t-6 -57z" />
    <glyph glyph-name="uniFE87" unicode="&#x625;" horiz-adv-x="234" arabic-form="isolated" 
d="M34 -217l33 1v4q-7 7 -12 20q-4 11 -4 23q0 35 21 54q20 19 59 19q30 0 53 -16q25 -17 26 -54h-45q-2 15 -10 23q-9 9 -23 9t-23 -10t-9 -30t10 -31q11 -12 28 -12h74v-41h-178v41zM59 1v715h114v-715h-114z" />
    <glyph glyph-name="uniFE88" unicode="&#x625;" horiz-adv-x="264" arabic-form="final" 
d="M48 -217l33 1v4q-7 7 -12 20q-4 11 -4 23q0 35 21 54q20 19 59 19q30 0 53 -16q25 -17 26 -54h-45q-2 15 -10 23q-9 9 -23 9t-23 -10t-9 -30t10 -31q10 -12 28 -12h74v-41h-178v41zM263 104h1q6 0 14 -2q6 -2 6 -12v-78q0 -11 -21 -11h-204v715h114v-612h90z" />
    <glyph glyph-name="uniFE89" unicode="&#x626;" horiz-adv-x="798" arabic-form="isolated" 
d="M35 370l33 1v4q-7 7 -12 20q-4 11 -4 23q0 34 21 54q20 19 59 19q30 0 53 -16q25 -17 26 -54h-45q-2 15 -10 23q-9 9 -23 9t-23 -10q-9 -11 -9 -30q0 -20 10 -31q10 -12 28 -12h74v-41h-178v41zM401 -178l-7 -4q44 0 90 8q43 7 76 24q33 16 52 43q20 28 20 63q0 19 -6 34
t-24 27q-19 12 -49 24q-63 24 -79 29q-81 27 -124 77t-43 120q0 46 13 85q14 41 40 70q27 30 69 48t99 18q94 0 147 -54t60 -154h-99q-9 49 -35 81t-72 32q-47 0 -75 -34t-28 -90q0 -25 12 -45q13 -20 33 -35t53 -27q32 -12 72 -24q88 -27 123 -72q35 -46 35 -106
q0 -52 -20 -97q-20 -43 -63 -75t-111 -48q-65 -16 -162 -16q-108 0 -177 31q-72 32 -113 85q-42 54 -60 126q-17 70 -19 155h103q0 -83 16 -138q17 -58 49 -93t84 -52q49 -16 120 -16z" />
    <glyph glyph-name="uniFE8A" unicode="&#x626;" horiz-adv-x="758" arabic-form="final" 
d="M31 308l33 1v4q-7 7 -12 20q-4 11 -4 23q0 34 21 54q20 19 59 19q30 0 53 -16q25 -17 26 -54h-45q-2 15 -10 23q-9 9 -23 9t-23 -10q-9 -11 -9 -30q0 -20 10 -31q11 -12 28 -12h74v-41h-178v41zM400 -277l1 -6q-105 0 -174 28q-71 29 -114 79q-43 51 -63 123t-21 159h103
q2 -79 19 -131q18 -54 53 -89q34 -34 84 -51q48 -16 114 -16q48 0 90 6t72 21t48 39t18 59q0 6 -3 15t-9 18t-15 15t-19 6q-5 0 -25 2q-14 1 -31 6q-16 4 -33 12q-19 9 -30 16v99q11 -7 33 -13q14 -4 44 -10q22 -4 45 -6q30 -2 37 -2h136q6 0 14 -2q6 -2 6 -12v-78
q0 -11 -21 -11h-70q14 -16 23 -39q9 -24 9 -44q0 -38 -21 -72q-22 -36 -61 -62q-40 -26 -100 -43q-58 -16 -139 -16z" />
    <glyph glyph-name="uniFE8B" unicode="&#x626;" horiz-adv-x="369" arabic-form="initial" 
d="M131 543l33 1v4q-7 7 -12 20q-4 11 -4 23q0 35 21 54q20 19 59 19q30 0 53 -16q25 -17 26 -54h-45q-2 15 -10 23q-9 9 -23 9t-23 -10t-9 -30t10 -31q11 -12 28 -12h74v-41h-178v41zM184 104l1 323h114v-426h-299q-21 0 -21 11v78q0 10 6 12q8 2 14 2h185z" />
    <glyph glyph-name="uniFE8C" unicode="&#x626;" horiz-adv-x="475" arabic-form="medial" 
d="M164 577l33 1v4q-7 7 -12 20q-4 11 -4 23q0 35 21 54q20 19 59 19q30 0 53 -16q25 -17 26 -54h-45q-2 15 -10 23q-9 9 -23 9t-23 -10t-9 -30t10 -31q10 -12 28 -12h74v-41h-178v41zM431 1l-2 -1q-23 0 -42 9q-21 10 -36 22q-18 15 -29 30q-12 17 -18 33q-25 -47 -71 -70
q-44 -22 -89 -22h-144q-21 0 -21 11v78q0 11 6 12q8 2 14 2h145q10 0 22 3q13 3 23 12q11 9 18 24q7 14 7 38v245h114v-210q0 -27 10 -47t26 -36q14 -14 33 -22t35 -8h43q6 0 14 -2q6 -2 6 -12v-78q0 -11 -21 -11h-43z" />
    <glyph glyph-name="uniFE8D" unicode="&#x627;" horiz-adv-x="234" arabic-form="isolated" 
d="M60 0v715h114v-715h-114z" />
    <glyph glyph-name="uniFE8E" unicode="&#x627;" horiz-adv-x="264" arabic-form="final" 
d="M264 103h1q6 0 14 -2q6 -1 6 -12v-78q0 -11 -21 -11h-204v715h114v-612h90z" />
    <glyph glyph-name="uniFE8F" unicode="&#x628;" horiz-adv-x="979" arabic-form="isolated" 
d="M452 -95h114v-117h-114v117zM919 0l-659 1q-44 0 -84 12t-72 39q-30 26 -49 71q-18 43 -18 108v67h104v-68q0 -127 118 -127h546v323h114v-426z" />
    <glyph glyph-name="uniFE90" unicode="&#x628;" horiz-adv-x="1056" arabic-form="final" 
d="M448 -95h114v-117h-114v117zM259 0h-2q-43 0 -84 12t-72 39q-30 26 -49 71q-18 44 -18 108v67h104v-68q0 -127 118 -127h477q10 0 22 3q13 3 23 12t18 24q7 14 7 38v245h114v-210q0 -27 10 -47t26 -36q14 -14 33 -22t35 -8h33q6 0 14 -2q6 -1 6 -12v-78q0 -11 -21 -11
h-33q-22 0 -42 9q-21 10 -36 22q-18 15 -29 30q-12 17 -18 33q-25 -47 -71 -70q-44 -22 -89 -22h-476z" />
    <glyph glyph-name="uniFE91" unicode="&#x628;" horiz-adv-x="360" arabic-form="initial" 
d="M186 -95h114v-117h-114v117zM185 103l1 323h114v-426h-299q-21 0 -21 11v78q0 11 6 12q8 2 14 2h185z" />
    <glyph glyph-name="uniFE92" unicode="&#x628;" horiz-adv-x="475" arabic-form="medial" 
d="M216 -95h114v-117h-114v117zM432 0l-2 -1q-22 0 -42 9q-21 10 -36 22q-18 15 -29 30q-12 16 -18 33q-25 -47 -71 -70q-44 -22 -89 -22h-144q-21 0 -21 11v78q0 10 6 12q8 2 14 2h145q10 0 22 3q13 3 23 12t18 24q7 14 7 38v245h114v-210q0 -27 10 -47t26 -36
q14 -14 33 -22t35 -8h43q6 0 14 -2q6 -1 6 -12v-78q0 -11 -21 -11h-43z" />
    <glyph glyph-name="uniFE93" unicode="&#x629;" horiz-adv-x="586" arabic-form="isolated" 
d="M158 715h114v-117h-114v117zM327 715h114v-117h-114v117zM541 240q0 -62 -18 -108t-51 -78t-78 -48q-44 -16 -101 -16t-101 16q-45 16 -78 48t-51 78t-18 108t18 108t51 78t78 48q44 16 101 16t101 -16q45 -16 78 -48t51 -78t18 -108zM162 240q0 -64 33 -106t98 -42
t98 42t33 106t-33 106t-98 42t-98 -42t-33 -106z" />
    <glyph glyph-name="uniFE94" unicode="&#x629;" horiz-adv-x="604" arabic-form="final" 
d="M141 715h114v-117h-114v117zM310 715h114v-117h-114v117zM576 0l-2 -2q-32 0 -57 9t-46 24q-20 14 -34 36q-15 23 -23 45q-23 -32 -60 -56q-38 -24 -87 -24q-38 0 -77 12q-38 12 -72 38q-33 26 -54 66t-21 96q0 46 14 90q13 41 42 73q28 31 72 49q43 18 100 18h226v-267
q0 -59 21 -81q21 -23 59 -23h28q6 0 14 -2q6 -1 6 -12v-78q0 -11 -21 -11h-28zM263 132l-1 1q47 0 82 29q34 28 34 87v123h-112q-46 0 -79 -34t-33 -94q0 -58 31 -85t78 -27z" />
    <glyph glyph-name="uniFE95" unicode="&#x62a;" horiz-adv-x="979" arabic-form="isolated" 
d="M336 628h114v-117h-114v117zM505 628h114v-117h-114v117zM919 0l-659 1q-44 0 -84 12t-72 39q-30 26 -49 71q-18 43 -18 108v67h104v-68q0 -127 118 -127h546v323h114v-426z" />
    <glyph glyph-name="uniFE96" unicode="&#x62a;" horiz-adv-x="1056" arabic-form="final" 
d="M324 627h114v-117h-114v117zM493 627h114v-117h-114v117zM259 0h-2q-43 0 -84 12t-72 39q-30 26 -49 71q-18 44 -18 108v67h104v-68q0 -127 118 -127h477q10 0 22 3q13 3 23 12t18 24q7 14 7 38v245h114v-210q0 -27 10 -47t26 -36q14 -14 33 -22t35 -8h33q6 0 14 -2
q6 -1 6 -12v-78q0 -11 -21 -11h-33q-22 0 -42 9q-21 10 -36 22q-18 15 -29 30q-12 17 -18 33q-25 -47 -71 -70q-44 -22 -89 -22h-476z" />
    <glyph glyph-name="uniFE97" unicode="&#x62a;" horiz-adv-x="370" arabic-form="initial" 
d="M31 715h114v-117h-114v117zM200 715h114v-117h-114v117zM185 103l1 323h114v-426h-299q-21 0 -21 11v78q0 11 6 12q8 2 14 2h185z" />
    <glyph glyph-name="uniFE98" unicode="&#x62a;" horiz-adv-x="475" arabic-form="medial" 
d="M127 715h114v-117h-114v117zM296 715h114v-117h-114v117zM432 0l-2 -1q-22 0 -42 9q-21 10 -36 22q-18 15 -29 30q-12 16 -18 33q-25 -47 -71 -70q-44 -22 -89 -22h-144q-21 0 -21 11v78q0 10 6 12q8 2 14 2h145q10 0 22 3q13 3 23 12t18 24q7 14 7 38v245h114v-210
q0 -27 10 -47t26 -36q14 -14 33 -22t35 -8h43q6 0 14 -2q6 -1 6 -12v-78q0 -11 -21 -11h-43z" />
    <glyph glyph-name="uniFE99" unicode="&#x62b;" horiz-adv-x="979" arabic-form="isolated" 
d="M428 781h114v-117h-114v117zM343 627h114v-117h-114v117zM512 627h114v-117h-114v117zM919 0l-659 1q-44 0 -84 12t-72 39q-30 26 -49 71q-18 43 -18 108v67h104v-68q0 -127 118 -127h546v323h114v-426z" />
    <glyph glyph-name="uniFE9A" unicode="&#x62b;" horiz-adv-x="1056" arabic-form="final" 
d="M418 781h114v-117h-114v117zM333 627h114v-117h-114v117zM502 627h114v-117h-114v117zM259 0h-2q-43 0 -84 12t-72 39q-30 26 -49 71q-18 44 -18 108v67h104v-68q0 -127 118 -127h477q10 0 22 3q13 3 23 12t18 24q7 14 7 38v245h114v-210q0 -27 10 -47t26 -36
q14 -14 33 -22t35 -8h33q6 0 14 -2q6 -1 6 -12v-78q0 -11 -21 -11h-33q-22 0 -42 9q-21 10 -36 22q-18 15 -29 30q-12 17 -18 33q-25 -47 -71 -70q-44 -22 -89 -22h-476z" />
    <glyph glyph-name="uniFE9B" unicode="&#x62b;" horiz-adv-x="371" arabic-form="initial" 
d="M117 869h114v-117h-114v117zM32 715h114v-117h-114v117zM201 715h114v-117h-114v117zM185 103l1 323h114v-426h-299q-21 0 -21 11v78q0 11 6 12q8 2 14 2h185z" />
    <glyph glyph-name="uniFE9C" unicode="&#x62b;" horiz-adv-x="475" arabic-form="medial" 
d="M221 869h114v-117h-114v117zM136 715h114v-117h-114v117zM305 715h114v-117h-114v117zM432 0l-2 -1q-22 0 -42 9q-21 10 -36 22q-18 15 -29 30q-12 16 -18 33q-25 -47 -71 -70q-44 -22 -89 -22h-144q-21 0 -21 11v78q0 10 6 12q8 2 14 2h145q10 0 22 3q13 3 23 12t18 24
q7 14 7 38v245h114v-210q0 -27 10 -47t26 -36q14 -14 33 -22t35 -8h43q6 0 14 -2q6 -1 6 -12v-78q0 -11 -21 -11h-43z" />
    <glyph glyph-name="uniFE9D" unicode="&#x62c;" horiz-adv-x="681" arabic-form="isolated" 
d="M296 -66h103v-105h-103v105zM25 -107h-1q0 41 15 78t45 66q31 29 75 47q45 18 102 18h246q-7 20 -15 51q-7 28 -15 68q-9 47 -21 78t-30 51q-19 20 -42 29q-24 9 -58 9q-29 0 -54 -11q-24 -11 -42 -27q-19 -17 -29 -39q-11 -23 -15 -43h-110q3 50 24 90q21 41 55 69
q36 29 78 44q43 15 93 15q74 0 119 -19q48 -20 77 -55t46 -87q16 -49 25 -115q7 -46 12 -78q5 -34 9 -56l4 -20t4 -22q2 -12 8 -36h-358q-29 0 -53 -9t-42 -24q-17 -14 -28 -35q-10 -19 -10 -42q0 -34 9 -63q9 -27 32 -63h-109q-19 26 -33 57q-13 30 -13 74z" />
    <glyph glyph-name="uniFE9E" unicode="&#x62c;" horiz-adv-x="773" arabic-form="final" 
d="M316 -66h103v-105h-103v105zM506 103l-2 117q-2 86 -41 127q-41 42 -117 42q-59 0 -96 -34q-38 -35 -48 -87h-111q3 50 24 90t56 69t80 44t95 15q69 0 119 -19q52 -20 87 -55q36 -36 54 -87t18 -115v-18q0 -27 9 -45q8 -17 23 -28q14 -11 33 -15q17 -4 42 -4h41
q6 0 14 -2q6 -2 6 -12v-78q0 -11 -21 -11h-42q-12 0 -29 5q-15 4 -30 12q-13 7 -25 20q-11 13 -17 27h-4q-1 -7 -8 -28q-5 -16 -20 -34h-324q-29 0 -53 -9t-42 -24q-17 -14 -28 -35q-10 -19 -10 -42q0 -35 9 -63q9 -27 32 -63h-109q-19 25 -33 57q-13 30 -13 74q0 40 15 78
t45 66q31 29 75 47q45 18 102 18h244z" />
    <glyph glyph-name="uniFE9F" unicode="&#x62c;" horiz-adv-x="734" arabic-form="initial" 
d="M275 -95h114v-117h-114v117zM350 391l3 -2q-29 0 -57 -9q-29 -9 -52 -25t-40 -39q-16 -22 -21 -48h-111q3 50 28 90q26 41 64 69q41 30 88 44q50 15 100 15q68 0 119 -19q53 -20 90 -55q37 -36 60 -87t30 -115q2 -16 4.5 -32.5t4.5 -32.5t3 -23q2 -13 4.5 -31.5
t3.5 -22.5q3 -21 6 -36q1 -5 8 -33h-684q-21 0 -21 11v78q0 10 6 12q8 2 14 2h554q0 2 -2 8t-3 10q-3 11 -6 29q-2 11 -6 35t-5 36q-4 44 -21 75q-17 33 -40 53q-25 22 -55 32q-33 11 -66 11z" />
    <glyph glyph-name="uniFEA0" unicode="&#x62c;" horiz-adv-x="787" arabic-form="medial" 
d="M286 -95h114v-117h-114v117zM530 103l-2 116q0 43 -15 74q-15 32 -41 53q-27 22 -58 32q-35 11 -69 11q-32 0 -61 -10q-31 -11 -54 -28q-24 -18 -40 -40q-16 -23 -21 -45h-110q5 48 28 87q23 40 63 70q40 31 89 47q51 17 105 17q60 0 117 -20q54 -19 97 -56
q42 -36 66 -87t24 -114v-24q0 -26 9 -42t24 -27q14 -10 34 -13q19 -3 42 -3h31q6 0 14 -2q6 -1 6 -12v-78q0 -11 -21 -11h-32q-12 0 -29 5q-15 5 -30 12q-13 7 -25 20q-11 13 -17 27h-4q-1 -7 -8 -28q-5 -16 -20 -34h-621q-21 0 -21 11v78q0 11 6 12q8 2 14 2h530z" />
    <glyph glyph-name="uniFEA1" unicode="&#x62d;" horiz-adv-x="681" arabic-form="isolated" 
d="M25 -107h-1q0 41 15 78t45 66q31 29 75 47q45 18 102 18h246q-7 20 -15 51q-7 28 -15 68q-9 47 -21 78t-30 51q-19 20 -42 29q-24 9 -58 9q-29 0 -54 -11q-24 -11 -42 -27q-19 -17 -29 -39q-11 -23 -15 -43h-110q3 50 24 90q21 41 55 69q36 29 78 44q43 15 93 15
q74 0 119 -19q48 -20 77 -55t46 -87q16 -49 25 -115q7 -46 12 -78q5 -34 9 -56l4 -20t4 -22q2 -12 8 -36h-358q-29 0 -53 -9t-42 -24q-17 -14 -28 -35q-10 -19 -10 -42q0 -34 9 -63q9 -27 32 -63h-109q-19 26 -33 57q-13 30 -13 74z" />
    <glyph glyph-name="uniFEA2" unicode="&#x62d;" horiz-adv-x="773" arabic-form="final" 
d="M506 103l-2 117q-2 86 -41 127q-41 42 -117 42q-59 0 -96 -34q-38 -35 -48 -87h-111q3 50 24 90t56 69t80 44t95 15q69 0 119 -19q52 -20 87 -55q36 -36 54 -87t18 -115v-18q0 -27 9 -45q8 -17 23 -28q14 -11 33 -15q17 -4 42 -4h41q6 0 14 -2q6 -2 6 -12v-78
q0 -11 -21 -11h-42q-12 0 -29 5q-15 4 -30 12q-13 7 -25 20q-11 13 -17 27h-4q-1 -7 -8 -28q-5 -16 -20 -34h-324q-29 0 -53 -9t-42 -24q-17 -14 -28 -35q-10 -19 -10 -42q0 -35 9 -63q9 -27 32 -63h-109q-19 25 -33 57q-13 30 -13 74q0 40 15 78t45 66q31 29 75 47
q45 18 102 18h244z" />
    <glyph glyph-name="uniFEA3" unicode="&#x62d;" horiz-adv-x="734" arabic-form="initial" 
d="M350 391l3 -2q-29 0 -57 -9q-29 -9 -52 -25t-40 -39q-16 -22 -21 -48h-111q3 50 28 90q26 41 64 69q41 30 88 44q50 15 100 15q68 0 119 -19q53 -20 90 -55q37 -36 60 -87t30 -115q2 -16 4.5 -32.5t4.5 -32.5t3 -23q2 -13 4.5 -31.5t3.5 -22.5q3 -21 6 -36q1 -5 8 -33
h-684q-21 0 -21 11v78q0 10 6 12q8 2 14 2h554q0 2 -2 8t-3 10q-3 11 -6 29q-2 11 -6 35t-5 36q-4 44 -21 75q-17 33 -40 53q-25 22 -55 32q-33 11 -66 11z" />
    <glyph glyph-name="uniFEA4" unicode="&#x62d;" horiz-adv-x="787" arabic-form="medial" 
d="M530 103l-2 116q0 43 -15 74q-15 32 -41 53q-27 22 -58 32q-35 11 -69 11q-32 0 -61 -10q-31 -11 -54 -28q-24 -18 -40 -40q-16 -23 -21 -45h-110q5 48 28 87q23 40 63 70q40 31 89 47q51 17 105 17q60 0 117 -20q54 -19 97 -56q42 -36 66 -87t24 -114v-24q0 -26 9 -42
t24 -27q14 -10 34 -13q19 -3 42 -3h31q6 0 14 -2q6 -1 6 -12v-78q0 -11 -21 -11h-32q-12 0 -29 5q-15 5 -30 12q-13 7 -25 20q-11 13 -17 27h-4q-1 -7 -8 -28q-5 -16 -20 -34h-621q-21 0 -21 11v78q0 11 6 12q8 2 14 2h530z" />
    <glyph glyph-name="uniFEA5" unicode="&#x62e;" horiz-adv-x="681" arabic-form="isolated" 
d="M324 715h114v-117h-114v117zM25 -107h-1q0 41 15 78t45 66q31 29 75 47q45 18 102 18h246q-7 20 -15 51q-7 28 -15 68q-9 47 -21 78t-30 51q-19 20 -42 29q-24 9 -58 9q-29 0 -54 -11q-24 -11 -42 -27q-19 -17 -29 -39q-11 -23 -15 -43h-110q3 50 24 90q21 41 55 69
q36 29 78 44q43 15 93 15q74 0 119 -19q48 -20 77 -55t46 -87q16 -49 25 -115q7 -46 12 -78q5 -34 9 -56l4 -20t4 -22q2 -12 8 -36h-358q-29 0 -53 -9t-42 -24q-17 -14 -28 -35q-10 -19 -10 -42q0 -34 9 -63q9 -27 32 -63h-109q-19 26 -33 57q-13 30 -13 74z" />
    <glyph glyph-name="uniFEA6" unicode="&#x62e;" horiz-adv-x="773" arabic-form="final" 
d="M317 693h114v-117h-114v117zM506 103l-2 117q-2 86 -41 127q-41 42 -117 42q-59 0 -96 -34q-38 -35 -48 -87h-111q3 50 24 90t56 69t80 44t95 15q69 0 119 -19q52 -20 87 -55q36 -36 54 -87t18 -115v-18q0 -27 9 -45q8 -17 23 -28q14 -11 33 -15q17 -4 42 -4h41
q6 0 14 -2q6 -2 6 -12v-78q0 -11 -21 -11h-42q-12 0 -29 5q-15 4 -30 12q-13 7 -25 20q-11 13 -17 27h-4q-1 -7 -8 -28q-5 -16 -20 -34h-324q-29 0 -53 -9t-42 -24q-17 -14 -28 -35q-10 -19 -10 -42q0 -35 9 -63q9 -27 32 -63h-109q-19 25 -33 57q-13 30 -13 74q0 40 15 78
t45 66q31 29 75 47q45 18 102 18h244z" />
    <glyph glyph-name="uniFEA7" unicode="&#x62e;" horiz-adv-x="734" arabic-form="initial" 
d="M302 715h114v-117h-114v117zM350 391l3 -2q-29 0 -57 -9q-29 -9 -52 -25t-40 -39q-16 -22 -21 -48h-111q3 50 28 90q26 41 64 69q41 30 88 44q50 15 100 15q68 0 119 -19q53 -20 90 -55q37 -36 60 -87t30 -115q2 -16 4.5 -32.5t4.5 -32.5t3 -23q2 -13 4.5 -31.5
t3.5 -22.5q3 -21 6 -36q1 -5 8 -33h-684q-21 0 -21 11v78q0 10 6 12q8 2 14 2h554q0 2 -2 8t-3 10q-3 11 -6 29q-2 11 -6 35t-5 36q-4 44 -21 75q-17 33 -40 53q-25 22 -55 32q-33 11 -66 11z" />
    <glyph glyph-name="uniFEA8" unicode="&#x62e;" horiz-adv-x="787" arabic-form="medial" 
d="M301 716h114v-117h-114v117zM530 103l-2 116q0 43 -15 74q-15 32 -41 53q-27 22 -58 32q-35 11 -69 11q-32 0 -61 -10q-31 -11 -54 -28q-24 -18 -40 -40q-16 -23 -21 -45h-110q5 48 28 87q23 40 63 70q40 31 89 47q51 17 105 17q60 0 117 -20q54 -19 97 -56
q42 -36 66 -87t24 -114v-24q0 -26 9 -42t24 -27q14 -10 34 -13q19 -3 42 -3h31q6 0 14 -2q6 -1 6 -12v-78q0 -11 -21 -11h-32q-12 0 -29 5q-15 5 -30 12q-13 7 -25 20q-11 13 -17 27h-4q-1 -7 -8 -28q-5 -16 -20 -34h-621q-21 0 -21 11v78q0 11 6 12q8 2 14 2h530z" />
    <glyph glyph-name="uniFEA9" unicode="&#x62f;" horiz-adv-x="486" arabic-form="isolated" 
d="M37 103l287 1v105q0 36 -9 66q-9 32 -28 53q-20 23 -48 35q-29 12 -69 12h-87v100h87q56 0 104 -15t84 -48t57 -84t21 -123v-205h-399v103z" />
    <glyph glyph-name="uniFEAA" unicode="&#x62f;" horiz-adv-x="574" arabic-form="final" 
d="M574 103h2q6 0 14 -2q6 -1 6 -12v-78q0 -11 -21 -11h-32q-12 0 -29 5q-15 5 -30 12q-13 7 -25 20q-11 13 -17 27h-4q-1 -7 -8 -28q-5 -16 -20 -34h-371v103h285v105q0 36 -9 66q-9 32 -28 53q-20 23 -48 35q-29 12 -69 12h-86v100h86q56 0 104 -15t84 -48t57 -84t21 -123
v-16q0 -50 32 -69q30 -18 75 -18h31z" />
    <glyph glyph-name="uniFEAB" unicode="&#x630;" horiz-adv-x="486" arabic-form="isolated" 
d="M101 716h114v-117h-114v117zM37 103l287 1v105q0 36 -9 66q-9 32 -28 53q-20 23 -48 35q-29 12 -69 12h-87v100h87q56 0 104 -15t84 -48t57 -84t21 -123v-205h-399v103z" />
    <glyph glyph-name="uniFEAC" unicode="&#x630;" horiz-adv-x="574" arabic-form="final" 
d="M108 715h114v-117h-114v117zM574 103h2q6 0 14 -2q6 -1 6 -12v-78q0 -11 -21 -11h-32q-12 0 -29 5q-15 5 -30 12q-13 7 -25 20q-11 13 -17 27h-4q-1 -7 -8 -28q-5 -16 -20 -34h-371v103h285v105q0 36 -9 66q-9 32 -28 53q-20 23 -48 35q-29 12 -69 12h-86v100h86
q56 0 104 -15t84 -48t57 -84t21 -123v-16q0 -50 32 -69q30 -18 75 -18h31z" />
    <glyph glyph-name="uniFEAD" unicode="&#x631;" horiz-adv-x="330" arabic-form="isolated" 
d="M85 -141v-3q15 0 30 5q13 4 22 20q10 16 14 42q5 30 5 71v430h114v-430q0 -113 -39 -173t-133 -60q-20 0 -37 3q-19 3 -27 7q-14 5 -24 9v96q32 -17 75 -17z" />
    <glyph glyph-name="uniFEAE" unicode="&#x631;" horiz-adv-x="414" arabic-form="final" 
d="M272 -4l-2 -5q0 -113 -39 -173t-133 -60q-20 0 -37 3q-19 3 -27 7q-14 4 -24 9v96q32 -17 75 -17q15 0 30 5q13 4 22 20q10 16 14 42q5 30 5 71v430h114v-237q0 -25 9 -42t24 -27q14 -10 34 -13q19 -3 42 -3h35q6 0 14 -2q6 -2 6 -12v-78q0 -11 -21 -11h-36q-12 0 -29 5
q-15 4 -30 12q-13 7 -25 20q-11 13 -17 27h-4v-67z" />
    <glyph glyph-name="uniFEAF" unicode="&#x632;" horiz-adv-x="342" arabic-form="isolated" 
d="M168 715h114v-117h-114v117zM85 -141v-3q15 0 30 5q13 4 22 20q10 16 14 42q5 30 5 71v430h114v-430q0 -113 -39 -173t-133 -60q-20 0 -37 3q-19 3 -27 7q-14 5 -24 9v96q32 -17 75 -17z" />
    <glyph glyph-name="uniFEB0" unicode="&#x632;" horiz-adv-x="414" arabic-form="final" 
d="M168 715h114v-117h-114v117zM272 -4l-2 -5q0 -113 -39 -173t-133 -60q-20 0 -37 3q-19 3 -27 7q-14 4 -24 9v96q32 -17 75 -17q15 0 30 5q13 4 22 20q10 16 14 42q5 30 5 71v430h114v-237q0 -25 9 -42t24 -27q14 -10 34 -13q19 -3 42 -3h35q6 0 14 -2q6 -2 6 -12v-78
q0 -11 -21 -11h-36q-12 0 -29 5q-15 4 -30 12q-13 7 -25 20q-11 13 -17 27h-4v-67z" />
    <glyph glyph-name="uniFEB1" unicode="&#x633;" horiz-adv-x="1439" arabic-form="isolated" 
d="M389 -238l-5 -4q-87 0 -152 25t-112 78q-46 51 -70 134q-24 81 -24 194v66h111v-66q0 -95 15 -158q15 -64 45 -101t77 -54q45 -16 110 -16q64 0 114 19q51 19 87 60q35 40 55 103q19 61 19 150v191h114v-212q0 -21 8 -35q7 -12 20 -22q12 -9 29 -12q16 -3 36 -3
q18 0 34 3t28 12q13 10 20 24q8 16 8 38v228h114v-245q0 -17 7 -27t18 -18q10 -7 22 -10t21 -3h127v323h114v-426h-240q-11 0 -24 3t-27 9t-24 16q-11 11 -17 24h-4q-19 -28 -54 -42q-33 -13 -92 -13q-47 0 -81 10q-36 11 -54 33h-4q-13 -53 -41 -106q-27 -50 -72 -88
t-108 -60q-62 -22 -148 -22z" />
    <glyph glyph-name="uniFEB2" unicode="&#x633;" horiz-adv-x="1512" arabic-form="final" 
d="M868 99l-5 -8q17 0 34 3q16 3 28 12q13 10 20 24q8 16 8 38v228h114v-229q0 -43 29 -60q28 -16 72 -16q38 0 66 17q27 16 27 62v249h114v-245q0 -24 7 -38q8 -15 18 -24t23 -12q12 -3 23 -3h62q6 0 14 -2q6 -1 6 -12v-78q0 -11 -21 -11h-62q-13 0 -26 3q-15 3 -27 10
q-14 7 -24 18q-10 10 -15 26h-4q-19 -30 -56 -45q-36 -15 -97 -15t-100 15t-51 45h-4q-19 -30 -54 -45t-93 -15q-47 0 -81 10q-36 11 -54 33h-4q-13 -53 -41 -106q-27 -50 -72 -88t-108 -60q-62 -22 -148 -22q-87 0 -152 25t-112 78q-46 51 -70 134q-24 81 -24 194v66h111
v-66q0 -95 15 -158q15 -64 45 -101t77 -54q45 -16 110 -16q64 0 114 19q51 19 87 60q35 40 55 103q19 61 19 150v191h114v-207q0 -22 8 -38q7 -14 20 -24q12 -9 29 -12q16 -3 36 -3z" />
    <glyph glyph-name="uniFEB3" unicode="&#x633;" horiz-adv-x="916" arabic-form="initial" 
d="M67 103h-2q10 0 22 3q13 3 23 12t18 24q7 14 7 38v205h114v-213q0 -21 8 -35q7 -12 20 -22q12 -9 29 -12q16 -3 36 -3q17 0 34 3q16 3 28 12q13 10 20 24q8 16 8 38v227h114v-224q0 -24 7 -38q7 -15 18 -24q10 -9 23 -12q12 -3 22 -3h127v323h114v-426h-240q-13 0 -26 3
q-15 3 -27 10q-14 7 -24 18q-10 10 -15 26h-4q-20 -30 -55 -45q-36 -15 -93 -15q-50 0 -90 14t-53 42h-4q-29 -53 -105 -53h-120q-21 0 -21 11v78q0 11 6 12q8 2 14 2h67z" />
    <glyph glyph-name="uniFEB4" unicode="&#x633;" horiz-adv-x="987" arabic-form="medial" 
d="M343 99l-2 -2q17 0 34 3q16 3 28 12q13 10 20 24q8 16 8 38v228h114v-228q0 -45 28 -61t73 -16q38 0 66 17q27 16 27 62v249h114v-246q0 -23 7 -37q8 -15 18 -24t23 -12q12 -3 23 -3h62q6 0 14 -2q6 -1 6 -12v-78q0 -11 -21 -11h-62q-13 0 -26 3q-15 3 -27 10
q-14 7 -24 18q-10 10 -15 26h-4q-19 -30 -56 -45q-36 -15 -97 -15q-62 0 -99 15q-38 15 -50 45h-4q-20 -30 -55 -45q-36 -15 -94 -15q-50 0 -90 14q-38 13 -52 42h-4q-32 -53 -106 -53h-120q-21 0 -21 11v78q0 11 6 12q8 2 14 2h67q10 0 22 3q13 3 23 12q11 9 18 24
q7 14 7 38v205h114v-209q0 -22 8 -38q7 -14 20 -24q12 -9 29 -12t36 -3z" />
    <glyph glyph-name="uniFEB5" unicode="&#x634;" horiz-adv-x="1439" arabic-form="isolated" 
d="M954 870h114v-117h-114v117zM869 716h114v-117h-114v117zM1038 716h114v-117h-114v117zM389 -238l-5 -4q-87 0 -152 25t-112 78q-46 51 -70 134q-24 81 -24 194v66h111v-66q0 -95 15 -158q15 -64 45 -101t77 -54q45 -16 110 -16q64 0 114 19q51 19 87 60q35 40 55 103
q19 61 19 150v191h114v-212q0 -21 8 -35q7 -12 20 -22q12 -9 29 -12q16 -3 36 -3q18 0 34 3t28 12q13 10 20 24q8 16 8 38v228h114v-245q0 -17 7 -27t18 -18q10 -7 22 -10t21 -3h127v323h114v-426h-240q-11 0 -24 3t-27 9t-24 16q-11 11 -17 24h-4q-19 -28 -54 -42
q-33 -13 -92 -13q-47 0 -81 10q-36 11 -54 33h-4q-13 -53 -41 -106q-27 -50 -72 -88t-108 -60q-62 -22 -148 -22z" />
    <glyph glyph-name="uniFEB6" unicode="&#x634;" horiz-adv-x="1512" arabic-form="final" 
d="M959 869h114v-117h-114v117zM874 715h114v-117h-114v117zM1043 715h114v-117h-114v117zM868 99l-5 -8q17 0 34 3q16 3 28 12q13 10 20 24q8 16 8 38v228h114v-229q0 -43 29 -60q28 -16 72 -16q38 0 66 17q27 16 27 62v249h114v-245q0 -24 7 -38q8 -15 18 -24t23 -12
q12 -3 23 -3h62q6 0 14 -2q6 -1 6 -12v-78q0 -11 -21 -11h-62q-13 0 -26 3q-15 3 -27 10q-14 7 -24 18q-10 10 -15 26h-4q-19 -30 -56 -45q-36 -15 -97 -15t-100 15t-51 45h-4q-19 -30 -54 -45t-93 -15q-47 0 -81 10q-36 11 -54 33h-4q-13 -53 -41 -106q-27 -50 -72 -88
t-108 -60q-62 -22 -148 -22q-87 0 -152 25t-112 78q-46 51 -70 134q-24 81 -24 194v66h111v-66q0 -95 15 -158q15 -64 45 -101t77 -54q45 -16 110 -16q64 0 114 19q51 19 87 60q35 40 55 103q19 61 19 150v191h114v-207q0 -22 8 -38q7 -14 20 -24q12 -9 29 -12q16 -3 36 -3z
" />
    <glyph glyph-name="uniFEB7" unicode="&#x634;" horiz-adv-x="916" arabic-form="initial" 
d="M435 869h114v-117h-114v117zM350 715h114v-117h-114v117zM519 715h114v-117h-114v117zM67 103h-2q10 0 22 3q13 3 23 12t18 24q7 14 7 38v205h114v-213q0 -21 8 -35q7 -12 20 -22q12 -9 29 -12q16 -3 36 -3q17 0 34 3q16 3 28 12q13 10 20 24q8 16 8 38v227h114v-224
q0 -24 7 -38q7 -15 18 -24q10 -9 23 -12q12 -3 22 -3h127v323h114v-426h-240q-13 0 -26 3q-15 3 -27 10q-14 7 -24 18q-10 10 -15 26h-4q-20 -30 -55 -45q-36 -15 -93 -15q-50 0 -90 14t-53 42h-4q-29 -53 -105 -53h-120q-21 0 -21 11v78q0 11 6 12q8 2 14 2h67z" />
    <glyph glyph-name="uniFEB8" unicode="&#x634;" horiz-adv-x="987" arabic-form="medial" 
d="M430 869h114v-117h-114v117zM345 715h114v-117h-114v117zM514 715h114v-117h-114v117zM343 99l-2 -2q17 0 34 3q16 3 28 12q13 10 20 24q8 16 8 38v228h114v-228q0 -45 28 -61t73 -16q38 0 66 17q27 16 27 62v249h114v-246q0 -23 7 -37q8 -15 18 -24t23 -12q12 -3 23 -3
h62q6 0 14 -2q6 -1 6 -12v-78q0 -11 -21 -11h-62q-13 0 -26 3q-15 3 -27 10q-14 7 -24 18q-10 10 -15 26h-4q-19 -30 -56 -45q-36 -15 -97 -15q-62 0 -99 15q-38 15 -50 45h-4q-20 -30 -55 -45q-36 -15 -94 -15q-50 0 -90 14q-38 13 -52 42h-4q-32 -53 -106 -53h-120
q-21 0 -21 11v78q0 11 6 12q8 2 14 2h67q10 0 22 3q13 3 23 12q11 9 18 24q7 14 7 38v205h114v-209q0 -22 8 -38q7 -14 20 -24q12 -9 29 -12t36 -3z" />
    <glyph glyph-name="uniFEB9" unicode="&#x635;" horiz-adv-x="1471" arabic-form="isolated" 
d="M389 -238l-6 -2q-87 0 -152 25t-112 78q-46 51 -70 134q-24 81 -24 194v66h111v-66q0 -95 15 -158q15 -64 45 -101t77 -54q45 -16 110 -16q64 0 114 19q51 19 87 60q35 40 55 103q19 61 19 150v205h114v-176h5q35 44 76 88q43 47 90 80q48 35 102 57q55 23 112 23
q58 0 105 -16q49 -17 83 -48q35 -31 54 -78q20 -48 20 -106v-223h-674q-17 -50 -45 -93t-72 -76t-103 -51q-60 -18 -136 -18zM1149 364v1q-42 0 -81 -16q-40 -17 -78 -42t-72 -57q-31 -28 -61 -60q-28 -29 -47 -53q-13 -16 -28 -36h519v118q0 75 -35 110t-117 35z" />
    <glyph glyph-name="uniFEBA" unicode="&#x635;" horiz-adv-x="1559" arabic-form="final" 
d="M389 -238l-5 -3q-87 0 -152 25t-112 78q-46 51 -70 134q-24 81 -24 194v66h111v-66q0 -95 15 -158q15 -64 45 -101t77 -54q45 -16 110 -16q64 0 114 19q51 20 87 60q35 40 55 103q19 61 19 150v206h114v-176h6q37 46 76 87q44 45 90 80q47 35 102 58q53 22 112 22
q58 0 105 -16q49 -17 83 -48q35 -32 54 -78q20 -48 20 -106v-28q0 -51 24 -72t62 -21h52q6 0 14 -2q6 -1 6 -12v-78q0 -11 -21 -11h-32q-12 0 -29 5q-15 5 -30 12q-14 7 -27 20q-12 12 -18 27h-3q-1 -7 -8 -28q-5 -16 -20 -34h-646q-17 -50 -45 -93t-72 -76t-103 -51
q-60 -18 -136 -18zM1150 363v1q-42 0 -81 -16q-41 -16 -78 -42t-72 -57q-31 -28 -61 -60q-28 -29 -47 -53q-13 -16 -28 -36h519v118q0 75 -35 110t-117 35z" />
    <glyph glyph-name="uniFEBB" unicode="&#x635;" horiz-adv-x="925" arabic-form="initial" 
d="M875 0l-875 1q-21 0 -21 11v78q0 10 6 12q8 2 14 2h124v295h114v-167h5q37 46 75 86q41 42 89 77q47 34 100 55q52 21 108 21q58 0 105 -16q49 -17 83 -48t54 -78q19 -45 19 -106v-223zM611 367l1 1q-42 0 -81 -16q-41 -16 -78 -42t-72 -57q-31 -28 -61 -60
q-28 -29 -47 -53q-13 -16 -28 -36h517v118q0 76 -34 110q-35 35 -117 35z" />
    <glyph glyph-name="uniFEBC" unicode="&#x635;" horiz-adv-x="1015" arabic-form="medial" 
d="M1015 103l5 1q6 0 14 -2q6 -2 6 -12v-78q0 -11 -21 -11h-32q-12 0 -29 5q-15 4 -30 12q-14 7 -27 20q-12 12 -18 27h-3q-1 -7 -8 -28q-5 -16 -20 -34h-849q-21 0 -21 11v78q0 10 6 12q8 2 14 2h124v295h114v-166h6q32 41 75 85q39 40 87 76q45 33 99 55q53 21 108 21
q58 0 105 -16q49 -17 83 -48q35 -32 54 -78q20 -48 20 -106v-28q0 -51 24 -72t62 -21h52zM616 367v1q-42 0 -81 -16q-41 -16 -78 -42t-72 -57q-31 -28 -61 -60q-28 -29 -47 -53q-13 -16 -28 -36h519v118q0 75 -35 110t-117 35z" />
    <glyph glyph-name="uniFEBD" unicode="&#x636;" horiz-adv-x="1471" arabic-form="isolated" 
d="M810 715h114v-117h-114v117zM389 -238l-6 -2q-87 0 -152 25t-112 78q-46 51 -70 134q-24 81 -24 194v66h111v-66q0 -95 15 -158q15 -64 45 -101t77 -54q45 -16 110 -16q64 0 114 19q51 19 87 60q35 40 55 103q19 61 19 150v205h114v-176h5q35 44 76 88q43 47 90 80
q48 35 102 57q55 23 112 23q58 0 105 -16q49 -17 83 -48q35 -31 54 -78q20 -48 20 -106v-223h-674q-17 -50 -45 -93t-72 -76t-103 -51q-60 -18 -136 -18zM1149 364v1q-42 0 -81 -16q-40 -17 -78 -42t-72 -57q-31 -28 -61 -60q-28 -29 -47 -53q-13 -16 -28 -36h519v118
q0 75 -35 110t-117 35z" />
    <glyph glyph-name="uniFEBE" unicode="&#x636;" horiz-adv-x="1559" arabic-form="final" 
d="M811 715h114v-117h-114v117zM389 -238l-5 -3q-87 0 -152 25t-112 78q-46 51 -70 134q-24 81 -24 194v66h111v-66q0 -95 15 -158q15 -64 45 -101t77 -54q45 -16 110 -16q64 0 114 19q51 20 87 60q35 40 55 103q19 61 19 150v206h114v-176h6q37 46 76 87q44 45 90 80
q47 35 102 58q53 22 112 22q58 0 105 -16q49 -17 83 -48q35 -32 54 -78q20 -48 20 -106v-28q0 -51 24 -72t62 -21h52q6 0 14 -2q6 -1 6 -12v-78q0 -11 -21 -11h-32q-12 0 -29 5q-15 5 -30 12q-14 7 -27 20q-12 12 -18 27h-3q-1 -7 -8 -28q-5 -16 -20 -34h-646
q-17 -50 -45 -93t-72 -76t-103 -51q-60 -18 -136 -18zM1150 363v1q-42 0 -81 -16q-41 -16 -78 -42t-72 -57q-31 -28 -61 -60q-28 -29 -47 -53q-13 -16 -28 -36h519v118q0 75 -35 110t-117 35z" />
    <glyph glyph-name="uniFEBF" unicode="&#x636;" horiz-adv-x="925" arabic-form="initial" 
d="M251 687h114v-117h-114v117zM875 0l-875 1q-21 0 -21 11v78q0 10 6 12q8 2 14 2h124v295h114v-167h5q37 46 75 86q41 42 89 77q47 34 100 55q52 21 108 21q58 0 105 -16q49 -17 83 -48t54 -78q19 -45 19 -106v-223zM611 367l1 1q-42 0 -81 -16q-41 -16 -78 -42t-72 -57
q-31 -28 -61 -60q-28 -29 -47 -53q-13 -16 -28 -36h517v118q0 76 -34 110q-35 35 -117 35z" />
    <glyph glyph-name="uniFEC0" unicode="&#x636;" horiz-adv-x="1015" arabic-form="medial" 
d="M252 687h114v-117h-114v117zM1015 103l5 1q6 0 14 -2q6 -2 6 -12v-78q0 -11 -21 -11h-32q-12 0 -29 5q-15 4 -30 12q-14 7 -27 20q-12 12 -18 27h-3q-1 -7 -8 -28q-5 -16 -20 -34h-849q-21 0 -21 11v78q0 10 6 12q8 2 14 2h124v295h114v-166h6q32 41 75 85q39 40 87 76
q45 33 99 55q53 21 108 21q58 0 105 -16q49 -17 83 -48q35 -32 54 -78q20 -48 20 -106v-28q0 -51 24 -72t62 -21h52zM616 367v1q-42 0 -81 -16q-41 -16 -78 -42t-72 -57q-31 -28 -61 -60q-28 -29 -47 -53q-13 -16 -28 -36h519v118q0 75 -35 110t-117 35z" />
    <glyph glyph-name="uniFEC1" unicode="&#x637;" horiz-adv-x="893" arabic-form="isolated" 
d="M25 0l-2 106h81v612h114v-471h4q34 43 70 81q39 40 84 72q44 31 95 51t105 20q58 0 106 -16q49 -16 85 -48q37 -32 56 -78q20 -48 20 -106v-223h-818zM575 369v1q-41 0 -79 -16q-39 -16 -75 -42q-38 -27 -68 -57q-31 -31 -57 -60t-44 -53q-21 -28 -26 -36h503v118
q0 31 -12 58q-12 26 -33 46t-49 30q-30 11 -60 11z" />
    <glyph glyph-name="uniFEC2" unicode="&#x637;" horiz-adv-x="975" arabic-form="final" 
d="M25 0v103h71v612h114v-471h6q34 43 70 81q39 41 84 72t96 51q52 20 107 20q58 0 105 -16q49 -17 83 -48q35 -32 54 -78q20 -48 20 -106v-33q0 -48 25 -67t61 -19h56q6 0 14 -2q6 -1 6 -12v-78q0 -11 -21 -11h-36q-12 0 -29 5q-15 5 -30 12q-14 7 -27 20q-12 12 -18 27h-3
q-1 -7 -8 -28q-5 -16 -20 -34h-780zM567 366v1q-41 0 -79 -16q-39 -17 -75 -42q-38 -27 -68 -57q-31 -32 -57 -60q-26 -29 -44 -53q-21 -28 -26 -36h503v118q0 31 -12 58q-12 26 -33 46t-49 30q-30 11 -60 11z" />
    <glyph glyph-name="uniFEC3" unicode="&#x637;" horiz-adv-x="868" arabic-form="initial" 
d="M818 0l-819 3q-21 0 -21 11v78q0 10 6 12q8 2 14 2h81v612h114v-471h4q34 43 70 81q39 40 84 72q44 31 95 51t105 20q58 0 106 -16q49 -16 85 -48q37 -32 56 -78q20 -48 20 -106v-223zM551 369v1q-41 0 -79 -16q-39 -16 -75 -42q-38 -27 -68 -57q-31 -31 -57 -60t-44 -53
q-21 -28 -26 -36h503v118q0 31 -12 58q-12 26 -33 46t-49 30q-30 11 -60 11z" />
    <glyph glyph-name="uniFEC4" unicode="&#x637;" horiz-adv-x="960" arabic-form="medial" 
d="M960 103h1q6 0 14 -2q6 -1 6 -12v-78q0 -11 -21 -11h-36q-12 0 -29 5q-15 5 -30 12q-14 7 -27 20q-12 12 -18 27h-3q-1 -7 -8 -28q-5 -16 -20 -34h-790q-21 0 -21 11v78q0 11 6 12q8 2 14 2h81v612h114v-471h6q34 43 70 81q39 41 84 72t96 51q52 20 107 20q58 0 105 -16
q49 -17 83 -48q34 -32 54 -78q20 -48 20 -106v-33q0 -46 26 -67q23 -19 60 -19h56zM553 366v1q-41 0 -79 -16q-39 -17 -75 -42q-38 -27 -68 -57q-31 -32 -57 -60q-26 -29 -44 -53q-21 -28 -26 -36h503v118q0 31 -12 58q-12 26 -33 46t-49 30q-30 11 -60 11z" />
    <glyph glyph-name="uniFEC5" unicode="&#x638;" horiz-adv-x="893" arabic-form="isolated" 
d="M385 687h114v-117h-114v117zM25 0l-2 106h81v612h114v-471h4q34 43 70 81q39 40 84 72q44 31 95 51t105 20q58 0 106 -16q49 -16 85 -48q37 -32 56 -78q20 -48 20 -106v-223h-818zM575 369v1q-41 0 -79 -16q-39 -16 -75 -42q-38 -27 -68 -57q-31 -31 -57 -60t-44 -53
q-21 -28 -26 -36h503v118q0 31 -12 58q-12 26 -33 46t-49 30q-30 11 -60 11z" />
    <glyph glyph-name="uniFEC6" unicode="&#x638;" horiz-adv-x="975" arabic-form="final" 
d="M385 687h114v-117h-114v117zM25 0v103h71v612h114v-471h6q34 43 70 81q39 41 84 72t96 51q52 20 107 20q58 0 105 -16q49 -17 83 -48q35 -32 54 -78q20 -48 20 -106v-33q0 -48 25 -67t61 -19h56q6 0 14 -2q6 -1 6 -12v-78q0 -11 -21 -11h-36q-12 0 -29 5q-15 5 -30 12
q-14 7 -27 20q-12 12 -18 27h-3q-1 -7 -8 -28q-5 -16 -20 -34h-780zM567 366v1q-41 0 -79 -16q-39 -17 -75 -42q-38 -27 -68 -57q-31 -32 -57 -60q-26 -29 -44 -53q-21 -28 -26 -36h503v118q0 31 -12 58q-12 26 -33 46t-49 30q-30 11 -60 11z" />
    <glyph glyph-name="uniFEC7" unicode="&#x638;" horiz-adv-x="868" arabic-form="initial" 
d="M364 687h114v-117h-114v117zM818 0l-819 3q-21 0 -21 11v78q0 10 6 12q8 2 14 2h81v612h114v-471h4q34 43 70 81q39 40 84 72q44 31 95 51t105 20q58 0 106 -16q49 -16 85 -48q37 -32 56 -78q20 -48 20 -106v-223zM551 369v1q-41 0 -79 -16q-39 -16 -75 -42
q-38 -27 -68 -57q-31 -31 -57 -60t-44 -53q-21 -28 -26 -36h503v118q0 31 -12 58q-12 26 -33 46t-49 30q-30 11 -60 11z" />
    <glyph glyph-name="uniFEC8" unicode="&#x638;" horiz-adv-x="960" arabic-form="medial" 
d="M366 687h114v-117h-114v117zM960 103h1q6 0 14 -2q6 -1 6 -12v-78q0 -11 -21 -11h-36q-12 0 -29 5q-15 5 -30 12q-14 7 -27 20q-12 12 -18 27h-3q-1 -7 -8 -28q-5 -16 -20 -34h-790q-21 0 -21 11v78q0 11 6 12q8 2 14 2h81v612h114v-471h6q34 43 70 81q39 41 84 72t96 51
q52 20 107 20q58 0 105 -16q49 -17 83 -48q34 -32 54 -78q20 -48 20 -106v-33q0 -46 26 -67q23 -19 60 -19h56zM553 366v1q-41 0 -79 -16q-39 -17 -75 -42q-38 -27 -68 -57q-31 -32 -57 -60q-26 -29 -44 -53q-21 -28 -26 -36h503v118q0 31 -12 58q-12 26 -33 46t-49 30
q-30 11 -60 11z" />
    <glyph glyph-name="uniFEC9" unicode="&#x639;" horiz-adv-x="594" arabic-form="isolated" 
d="M25 -117v-3q0 74 33 131q34 58 103 86v4q-25 23 -42 63q-16 39 -16 93q0 52 10 92q11 43 36 74t69 49t111 18q54 0 89 -13q36 -13 60 -39q25 -26 38 -63q14 -40 20 -85h-106q-4 21 -12 39q-8 20 -19 32q-12 13 -29 21q-18 8 -42 8q-50 0 -81 -33q-31 -32 -31 -99
q0 -71 34 -114t99 -43h202v-103h-276q-64 0 -99 -32q-34 -31 -34 -84q0 -27 11 -60q11 -32 30 -60h-111q-18 23 -32 55q-15 35 -15 66z" />
    <glyph glyph-name="uniFECA" unicode="&#x639;" horiz-adv-x="740" arabic-form="final" 
d="M77 459l394 2q88 0 136 -42t48 -139q0 -46 -21 -90q-21 -43 -70 -82v-5h40h58h53h24q6 0 14 -2q6 -1 6 -12v-78q0 -11 -21 -11h-477q-65 0 -94 -30q-28 -29 -28 -88q0 -28 12 -60q11 -30 32 -60h-111q-18 23 -32 55q-15 35 -15 66q0 47 15 87t45 70q29 29 72 46t98 17v4
q-24 24 -46 71q-19 40 -42 95q-21 49 -42 96t-48 72v18zM393 99v-2q31 0 56 21t45 51q19 29 31 64t12 60q0 32 -24 47t-57 15h-220q10 -11 21 -33t21 -51q7 -19 23 -59q10 -24 26 -55q13 -25 30 -42q16 -16 36 -16z" />
    <glyph glyph-name="uniFECB" unicode="&#x639;" horiz-adv-x="610" arabic-form="initial" 
d="M176 103l-4 2q-10 11 -21 27q-8 13 -19 38q-9 22 -15 43q-6 23 -6 45q0 52 17 97q16 43 48 73q31 29 75 46q42 16 96 16q53 0 90 -15t63 -42q25 -26 40 -64q15 -37 21 -81h-106q-4 19 -14 39q-9 18 -23 32t-31 21q-19 8 -37 8q-52 0 -84 -33q-32 -34 -32 -97
q0 -70 32 -113q32 -42 93 -42h209v-103h-567q-21 0 -21 11v78q0 11 6 12q8 2 14 2h176z" />
    <glyph glyph-name="uniFECC" unicode="&#x639;" horiz-adv-x="737" arabic-form="medial" 
d="M392 97h1q31 0 56 19q25 20 45 48q19 28 31 61t12 59q0 32 -22 53q-23 21 -60 21h-220q11 -11 21 -34q12 -27 21 -52q4 -11 12.5 -32.5t10.5 -27.5q11 -28 26 -57q14 -25 30 -42q16 -16 36 -16zM244 103l1 6q-25 25 -45 71q-21 50 -38 95q-18 49 -39 96t-48 72v18h396
q88 0 136 -49q48 -50 48 -132q0 -42 -24 -87q-23 -44 -66 -85v-5h40h58h53h24q6 0 14 -2q6 -1 6 -12v-78q0 -11 -21 -11h-737q-21 0 -21 11v78q0 11 6 12q8 2 14 2h243z" />
    <glyph glyph-name="uniFECD" unicode="&#x63a;" horiz-adv-x="594" arabic-form="isolated" 
d="M264 727h114v-117h-114v117zM25 -117v-3q0 74 33 131q34 58 103 86v4q-25 23 -42 63q-16 39 -16 93q0 52 10 92q11 43 36 74t69 49t111 18q54 0 89 -13q36 -13 60 -39q25 -26 38 -63q14 -40 20 -85h-106q-4 21 -12 39q-8 20 -19 32q-12 13 -29 21q-18 8 -42 8
q-50 0 -81 -33q-31 -32 -31 -99q0 -71 34 -114t99 -43h202v-103h-276q-64 0 -99 -32q-34 -31 -34 -84q0 -27 11 -60q11 -32 30 -60h-111q-18 23 -32 55q-15 35 -15 66z" />
    <glyph glyph-name="uniFECE" unicode="&#x63a;" horiz-adv-x="740" arabic-form="final" 
d="M77 459l394 2q88 0 136 -42t48 -139q0 -46 -21 -90q-21 -43 -70 -82v-5h40h58h53h24q6 0 14 -2q6 -1 6 -12v-78q0 -11 -21 -11h-477q-65 0 -94 -30q-28 -29 -28 -88q0 -28 12 -60q11 -30 32 -60h-111q-18 23 -32 55q-15 35 -15 66q0 47 15 87t45 70q29 29 72 46t98 17v4
q-24 24 -46 71q-19 40 -42 95q-21 49 -42 96t-48 72v18zM393 99v-2q31 0 56 21t45 51q19 29 31 64t12 60q0 32 -24 47t-57 15h-220q10 -11 21 -33t21 -51q7 -19 23 -59q10 -24 26 -55q13 -25 30 -42q16 -16 36 -16zM346 715h114v-117h-114v117z" />
    <glyph glyph-name="uniFECF" unicode="&#x63a;" horiz-adv-x="610" arabic-form="initial" 
d="M289 715h114v-117h-114v117zM176 103l-4 2q-10 11 -21 27q-8 13 -19 38q-9 22 -15 43q-6 23 -6 45q0 52 17 97q16 43 48 73q31 29 75 46q42 16 96 16q53 0 90 -15t63 -42q25 -26 40 -64q15 -37 21 -81h-106q-4 19 -14 39q-9 18 -23 32t-31 21q-19 8 -37 8q-52 0 -84 -33
q-32 -34 -32 -97q0 -70 32 -113q32 -42 93 -42h209v-103h-567q-21 0 -21 11v78q0 11 6 12q8 2 14 2h176z" />
    <glyph glyph-name="uniFED0" unicode="&#x63a;" horiz-adv-x="737" arabic-form="medial" 
d="M392 97h1q31 0 56 19q25 20 45 48q19 28 31 61t12 59q0 32 -22 53q-23 21 -60 21h-220q11 -11 21 -34q12 -27 21 -52q4 -11 12.5 -32.5t10.5 -27.5q11 -28 26 -57q14 -25 30 -42q16 -16 36 -16zM244 103l1 6q-25 25 -45 71q-21 50 -38 95q-18 49 -39 96t-48 72v18h396
q88 0 136 -49q48 -50 48 -132q0 -42 -24 -87q-23 -44 -66 -85v-5h40h58h53h24q6 0 14 -2q6 -1 6 -12v-78q0 -11 -21 -11h-737q-21 0 -21 11v78q0 11 6 12q8 2 14 2h243zM334 717h114v-117h-114v117z" />
    <glyph glyph-name="uniFED1" unicode="&#x641;" horiz-adv-x="1111" arabic-form="isolated" 
d="M767 715h114v-117h-114v117zM819 392v-2q-65 0 -98 -40t-33 -106q0 -65 33 -106q33 -40 98 -40t98 40q33 41 33 106q0 66 -33 107t-98 41zM635 101l8 5q-9 4 -21 18t-21 33q-7 16 -16 42q-7 21 -7 45q0 60 18 105q18 46 51 77q33 32 78 48q44 16 99 16q54 0 99 -15
q46 -15 78 -46q33 -31 51 -78t18 -108t-18 -108q-18 -46 -51 -76t-79 -45t-102 -15h-560q-44 0 -84 12t-72 39q-30 26 -49 71q-18 43 -18 108v67h104v-68q0 -127 118 -127h376z" />
    <glyph glyph-name="uniFED2" unicode="&#x641;" horiz-adv-x="1133" arabic-form="final" 
d="M766 715h114v-117h-114v117zM819 392v-2q-65 0 -98 -40t-33 -106q0 -65 33 -106q33 -40 98 -40t98 40q33 41 33 106q0 66 -33 107t-98 41zM259 -2l8 1q-43 0 -84 12t-72 39q-30 26 -49 71q-18 43 -18 108v67h104v-68q0 -127 118 -127h376v4q-9 5 -21 18t-21 33
q-7 16 -16 42q-7 21 -7 45q0 60 18 105q18 46 51 77t78 48q44 16 99 16t99 -16q45 -17 78 -48t51 -77q18 -45 18 -105q0 -24 -7 -45q-9 -26 -16 -42q-9 -20 -21 -33t-21 -18v-4h130q6 0 14 -2q6 -1 6 -12v-78q0 -11 -21 -11h-874z" />
    <glyph glyph-name="uniFED3" unicode="&#x641;" horiz-adv-x="622" arabic-form="initial" 
d="M275 715h114v-117h-114v117zM0 0h8q-21 0 -21 11v78q0 11 6 12q8 2 14 2h146v4q-9 5 -21 18t-21 33q-7 16 -16 42q-7 21 -7 45q0 60 18 105q18 46 51 77t78 48q44 16 99 16q54 0 99 -15q46 -15 78 -46q33 -32 51 -78t18 -108t-18 -108t-51 -76t-79 -45t-102 -15h-330z
M338 392v-2q-65 0 -98 -40t-33 -106q0 -65 33 -106q33 -40 98 -40t98 40q33 41 33 106q0 66 -33 107t-98 41z" />
    <glyph glyph-name="uniFED4" unicode="&#x641;" horiz-adv-x="614" arabic-form="medial" 
d="M247 715h114v-117h-114v117zM303 392v-2q-65 0 -98 -40t-33 -106q0 -65 33 -106q33 -40 98 -40t98 40q33 41 33 106q0 66 -33 107t-98 41zM0 -2h8q-21 0 -21 11v78q0 11 6 12q8 2 14 2h119v4q-9 5 -21 18t-21 33q-7 16 -16 42q-7 21 -7 45q0 60 18 105q18 46 51 77t78 48
q44 16 99 16t99 -16q45 -17 78 -48t51 -77q18 -45 18 -105q0 -24 -7 -45q-9 -26 -16 -42q-9 -20 -21 -33t-21 -18v-4h127q6 0 14 -2q6 -1 6 -12v-78q0 -11 -21 -11h-614z" />
    <glyph glyph-name="uniFED5" unicode="&#x642;" horiz-adv-x="825" arabic-form="isolated" 
d="M419 715h114v-117h-114v117zM588 715h114v-117h-114v117zM552 0l-6 -3q-51 0 -96 17q-44 16 -75 48q-31 31 -49 75q-18 43 -18 96q0 47 11 96q11 47 37 82q27 36 72 57t113 21q67 0 114 -21t74 -60t39 -95q12 -55 12 -126q0 -113 -18 -200q-18 -88 -63 -146
q-46 -60 -118 -89q-73 -30 -183 -30q-108 0 -180 29q-70 28 -112 81q-41 52 -58 123q-16 71 -18 153h108q0 -151 67 -217t196 -66q107 0 169 46q64 47 89 129h-107zM660 100l3 92q3 90 -25 144q-25 49 -93 49q-35 0 -57 -12t-36 -33q-13 -20 -19 -49t-6 -60q0 -68 29 -100
q28 -31 90 -31h114z" />
    <glyph glyph-name="uniFED6" unicode="&#x642;" horiz-adv-x="906" arabic-form="final" 
d="M410 715h114v-117h-114v117zM579 715h114v-117h-114v117zM552 0l-5 -2q-51 0 -96 17q-43 17 -75 48q-31 31 -49 75t-18 96q0 47 11 96q11 47 37 82q27 36 72 57t113 21t114 -21q47 -21 74 -60t39 -95t12 -126q0 -44 -3 -85h127q6 0 14 -2q6 -1 6 -12v-78q0 -11 -21 -11
h-140q-13 -66 -41 -120q-27 -52 -71 -87t-107 -53t-147 -18q-108 0 -180 29q-70 28 -112 81q-41 52 -58 123q-16 71 -18 153h108q0 -151 67 -217t196 -66q107 0 168 45q62 45 90 130h-107zM427 232l3 -2q0 -68 29 -100q28 -31 90 -31h114v94q0 95 -25 144t-93 49
q-35 0 -57 -12t-36 -33q-13 -20 -19 -49q-6 -28 -6 -60z" />
    <glyph glyph-name="uniFED7" unicode="&#x642;" horiz-adv-x="622" arabic-form="initial" 
d="M193 715h114v-117h-114v117zM362 715h114v-117h-114v117zM0 0h8q-21 0 -21 11v78q0 11 6 12q8 2 14 2h146v4q-9 5 -21 18t-21 33q-7 16 -16 42q-7 21 -7 45q0 60 18 105q18 46 51 77t78 48q44 16 99 16q54 0 99 -15q46 -15 78 -46q33 -32 51 -78t18 -108t-18 -108
t-51 -76t-79 -45t-102 -15h-330zM338 392v-2q-65 0 -98 -40t-33 -106q0 -65 33 -106q33 -40 98 -40t98 40q33 41 33 106q0 66 -33 107t-98 41z" />
    <glyph glyph-name="uniFED8" unicode="&#x642;" horiz-adv-x="614" arabic-form="medial" 
d="M165 715h114v-117h-114v117zM334 715h114v-117h-114v117zM303 392v-2q-65 0 -98 -40t-33 -106q0 -65 33 -106q33 -40 98 -40t98 40q33 41 33 106q0 66 -33 107t-98 41zM0 -2h8q-21 0 -21 11v78q0 11 6 12q8 2 14 2h119v4q-9 5 -21 18t-21 33q-7 16 -16 42q-7 21 -7 45
q0 60 18 105q18 46 51 77t78 48q44 16 99 16t99 -16q45 -17 78 -48t51 -77q18 -45 18 -105q0 -24 -7 -45q-9 -26 -16 -42q-9 -20 -21 -33t-21 -18v-4h127q6 0 14 -2q6 -1 6 -12v-78q0 -11 -21 -11h-614z" />
    <glyph glyph-name="uniFED9" unicode="&#x643;" horiz-adv-x="741" arabic-form="isolated" 
d="M252 293v37h39v5q-6 7 -12 21t-6 24q0 31 21 52t60 21q40 0 59 -18t21 -53h-46q0 14 -9 24t-25 10q-31 0 -31 -42q0 -20 9 -30t24 -12h83v-39h-187zM681 -2l-421 1q-44 0 -84 12t-72 39q-30 26 -49 71q-18 43 -18 108v67h104v-68q0 -127 118 -127h308v612h114v-715z" />
    <glyph glyph-name="uniFEDA" unicode="&#x643;" horiz-adv-x="821" arabic-form="final" 
d="M821 103l2 2q6 0 14 -2q6 -1 6 -12v-78q0 -11 -21 -11h-34q-16 0 -29 4q-16 5 -29 12q-15 8 -26 18q-12 10 -18 24h-5q-1 -8 -8 -27q-6 -18 -19 -33h-394q-44 0 -84 12t-72 39q-30 26 -49 71q-18 44 -18 108v67h104v-68q0 -127 118 -127h308v612h114v-525q0 -48 25 -67
t61 -19h54zM254 295v37h39v5q-6 7 -12 21t-6 24q0 31 21 52t60 21q40 0 59 -18t21 -53h-46q0 14 -9 24t-25 10q-31 0 -31 -42q0 -20 9 -30t24 -12h83v-39h-187z" />
    <glyph glyph-name="uniFEDB" unicode="&#x643;" horiz-adv-x="659" arabic-form="initial" 
d="M491 103l1 117q0 80 -36 116t-94 36h-316v101l240 241h138l-237 -241h170q70 0 117 -16q48 -17 78 -48q31 -32 44 -79q14 -50 14 -109v-221h-609q-21 0 -21 11v78q0 11 6 12q8 2 14 2h491z" />
    <glyph glyph-name="uniFEDC" unicode="&#x643;" horiz-adv-x="749" arabic-form="medial" 
d="M749 103l2 2q6 0 14 -2q6 -1 6 -12v-78q0 -11 -21 -11h-34q-16 0 -29 4q-16 5 -29 12q-15 8 -26 18q-12 10 -18 24h-5q-1 -8 -8 -27q-6 -18 -19 -33h-581q-21 0 -21 11v78q0 11 6 12q8 2 14 2h491v118q0 80 -36 116t-94 36h-316v101l240 241h138l-237 -241h170
q70 0 117 -16q48 -16 78 -48q31 -32 44 -79q14 -50 14 -109v-26q0 -51 24 -72t62 -21h54z" />
    <glyph glyph-name="uniFEDD" unicode="&#x644;" horiz-adv-x="733" arabic-form="isolated" 
d="M673 715v-514q0 -104 -14 -190q-13 -83 -51 -138t-102 -84q-63 -28 -165 -28q-101 0 -162 31t-94 87q-34 56 -44 134q-11 82 -11 173h104q0 -88 14 -152q14 -62 39 -101q25 -38 65 -55t92 -17q51 0 93 17q39 16 67 56t41 101q14 64 14 152v528h114z" />
    <glyph glyph-name="uniFEDE" unicode="&#x644;" horiz-adv-x="813" arabic-form="final" 
d="M813 103l-3 -2q6 0 14 -2q6 -1 6 -12v-78q0 -11 -21 -11h-34q-13 0 -33 5q-18 5 -33 15t-27 24t-15 30h-4q-7 -76 -27 -135q-19 -58 -57 -97q-38 -40 -96 -59q-60 -20 -142 -20q-101 0 -162 31t-94 87q-34 56 -44 134q-11 82 -11 173h104q0 -88 14 -152q14 -62 39 -101
q25 -38 65 -55t92 -17q51 0 93 17q39 16 67 56t41 101q14 64 14 152v528h114v-520q0 -27 9 -45q8 -17 23 -28q13 -10 33 -15q17 -4 42 -4h33z" />
    <glyph glyph-name="uniFEDF" unicode="&#x644;" horiz-adv-x="326" arabic-form="initial" 
d="M152 103l1 612h114v-715h-266q-21 0 -21 11v78q0 11 6 12q8 2 14 2h152z" />
    <glyph glyph-name="uniFEE0" unicode="&#x644;" horiz-adv-x="404" arabic-form="medial" 
d="M364 0l-2 -1q-22 0 -42 9q-21 10 -36 22q-18 15 -29 30q-12 16 -18 33q-25 -47 -71 -70q-44 -22 -89 -22h-76q-21 0 -21 11v78q0 10 6 12q8 2 14 2h77q10 0 22 3q13 3 23 12t18 24q7 14 7 38v534h114v-499q0 -27 10 -47t26 -36q14 -14 33 -22t35 -8h40q6 0 14 -2
q6 -1 6 -12v-78q0 -11 -21 -11h-40z" />
    <glyph glyph-name="uniFEE1" unicode="&#x645;" horiz-adv-x="669" arabic-form="isolated" 
d="M128 245l5 -2q0 60 18 105q18 46 51 77t78 48q44 16 99 16q54 0 99 -15q46 -15 78 -46q33 -32 51 -78t18 -108t-18 -108t-51 -76t-79 -45q-47 -15 -102 -15h-132q-30 0 -52 -8q-21 -8 -33 -21q-11 -13 -16 -32q-4 -16 -4 -37v-140h-114v139q0 80 41 133q40 52 128 66
q-10 10 -21 25q-13 17 -21 37q-8 17 -16 43q-7 21 -7 42zM382 390v-2q-65 0 -98 -40t-33 -106t33 -106t98 -40t98 40t33 106q0 67 -33 107q-33 41 -98 41z" />
    <glyph glyph-name="uniFEE2" unicode="&#x645;" horiz-adv-x="754" arabic-form="final" 
d="M754 103l4 -3q6 0 14 -2q6 -2 6 -12v-78q0 -11 -21 -11h-34q-21 0 -40 9q-20 9 -36 25t-28 37q-13 22 -17 45q-30 -59 -87 -87q-56 -28 -135 -28h-132q-30 0 -52 -8q-21 -8 -33 -21q-11 -13 -16 -32q-4 -16 -4 -37v-140h-114v139q0 80 41 133q40 52 128 66q-10 10 -21 25
q-13 17 -21 37q-7 17 -16 43q-7 21 -7 42q0 60 18 105q18 46 51 77t78 48q44 16 99 16q54 0 99 -15q46 -15 78 -46q33 -32 51 -78t18 -108v-7q0 -63 30 -99q29 -35 66 -35h33zM381 389v-2q-65 0 -98 -40q-33 -41 -33 -106t33 -106q33 -40 98 -40t98 40q33 41 33 106
q0 67 -33 107q-33 41 -98 41z" />
    <glyph glyph-name="uniFEE3" unicode="&#x645;" horiz-adv-x="597" arabic-form="initial" 
d="M0 0h8q-21 0 -21 11v78q0 11 6 12q8 2 14 2h121v4q-9 5 -21 18t-21 33q-7 16 -16 42q-7 21 -7 45q0 60 18 105q18 46 51 77t78 48q44 16 99 16q54 0 99 -15q46 -15 78 -46q33 -32 51 -78t18 -108t-18 -108t-51 -76t-79 -45q-47 -15 -102 -15h-305zM313 392v-2
q-65 0 -98 -40t-33 -106q0 -65 33 -106q33 -40 98 -40t98 40q33 41 33 106q0 66 -33 107t-98 41z" />
    <glyph glyph-name="uniFEE4" unicode="&#x645;" horiz-adv-x="754" arabic-form="medial" 
d="M377 -30h6q-77 0 -133 28q-57 29 -87 85q-17 -42 -49 -63q-33 -21 -73 -21h-34q-21 0 -21 11v78q0 10 6 12q8 2 14 2h33q19 0 36 6t30 18t21 33q8 22 8 54q0 61 18 108t51 78q32 31 78 46q45 15 99 15t99 -15q46 -15 78 -46q33 -31 51 -78t18 -108q0 -32 8 -54
q8 -21 21 -33t30 -18t36 -6h33q6 0 14 -2q6 -2 6 -12v-78q0 -11 -21 -11h-34q-40 0 -73 21q-32 21 -49 63q-30 -56 -87 -85q-56 -28 -133 -28zM383 69v-2q65 0 98 40t33 106q0 67 -33 107q-33 41 -98 41t-98 -40q-33 -41 -33 -106t33 -106q33 -40 98 -40z" />
    <glyph glyph-name="uniFEE5" unicode="&#x646;" horiz-adv-x="835" arabic-form="isolated" 
d="M369 488h114v-117h-114v117zM389 -238l-2 1q-170 0 -265 110q-94 109 -94 321v87h111v-87q0 -87 15 -150q15 -62 45 -103q30 -40 77 -60q45 -19 110 -19q64 0 114 19q51 19 87 60q35 40 55 103q19 61 19 150v108h114v-123q0 -77 -19 -150q-20 -76 -64 -135
q-45 -60 -118 -96q-74 -36 -185 -36z" />
    <glyph glyph-name="uniFEE6" unicode="&#x646;" horiz-adv-x="915" arabic-form="final" 
d="M365 505h114v-117h-114v117zM389 -238l-3 -2q-170 0 -265 110q-94 109 -94 321v87h111v-87q0 -87 15 -150q15 -62 45 -103q30 -40 77 -60q45 -19 110 -19q64 0 114 19q51 20 87 60q35 40 55 103q19 61 19 150v108h114v-106q0 -27 9 -45q8 -17 23 -28q14 -10 33 -15
q17 -4 42 -4h33q6 0 14 -2q6 -1 6 -12v-78q0 -11 -21 -11h-34q-37 0 -71 20q-32 19 -40 54h-4q-10 -62 -36 -117q-25 -55 -71 -99q-45 -44 -111 -69q-65 -25 -157 -25z" />
    <glyph glyph-name="uniFEE7" unicode="&#x646;" horiz-adv-x="361" arabic-form="initial" 
d="M187 715h114v-117h-114v117zM185 103l1 323h114v-426h-299q-21 0 -21 11v78q0 11 6 12q8 2 14 2h185z" />
    <glyph glyph-name="uniFEE8" unicode="&#x646;" horiz-adv-x="475" arabic-form="medial" 
d="M216 715h114v-117h-114v117zM432 0l-2 -1q-22 0 -42 9q-21 10 -36 22q-18 15 -29 30q-12 16 -18 33q-25 -47 -71 -70q-44 -22 -89 -22h-144q-21 0 -21 11v78q0 10 6 12q8 2 14 2h145q10 0 22 3q13 3 23 12t18 24q7 14 7 38v245h114v-210q0 -27 10 -47t26 -36
q14 -14 33 -22t35 -8h43q6 0 14 -2q6 -1 6 -12v-78q0 -11 -21 -11h-43z" />
    <glyph glyph-name="uniFEE9" unicode="&#x647;" horiz-adv-x="891" arabic-form="isolated" 
d="M144 -64v-19h-119v24q0 45 14 78q13 31 39 51t61 27q38 8 80 8h45q-14 17 -21 39q-7 21 -7 54q0 36 11 66q10 28 29 50q18 21 42 33q25 13 51 17q29 58 84 92q56 35 137 35q134 0 192 -63q59 -64 59 -190v-239h-621q-42 0 -59 -12t-17 -51zM574 197l-1 -3q0 -33 -7 -54
q-8 -24 -19 -39h180v136q0 83 -37 120t-99 37q-37 0 -64 -12t-44 -32q40 -17 65 -54q26 -38 26 -99zM405 288h-2q-35 0 -58 -24q-22 -23 -22 -69q0 -45 24 -73t58 -28q35 0 57 28q23 29 23 73q0 46 -22 69q-23 24 -58 24z" />
    <glyph glyph-name="uniFEEA" unicode="&#x647;" horiz-adv-x="604" arabic-form="final" 
d="M576 0l-2 -2q-32 0 -57 9t-46 24q-20 14 -34 36q-15 23 -23 45q-23 -32 -60 -56q-38 -24 -87 -24q-38 0 -77 12q-38 12 -72 38q-33 26 -54 66t-21 96q0 46 14 90q13 41 42 73q28 31 72 49q43 18 100 18h226v-267q0 -59 21 -81q21 -23 59 -23h28q6 0 14 -2q6 -1 6 -12v-78
q0 -11 -21 -11h-28zM263 132l-1 1q47 0 82 29q34 28 34 87v123h-112q-46 0 -79 -34t-33 -94q0 -58 31 -85t78 -27z" />
    <glyph glyph-name="uniFEEB" unicode="&#x647;" horiz-adv-x="709" arabic-form="initial" 
d="M55 198l1 3q0 36 11 66q10 28 29 50q18 21 42 33q25 13 51 17q29 58 84 92q56 35 137 35q134 0 192 -63q59 -64 59 -190v-239h-659q-21 0 -21 11v78q0 11 6 12q8 2 14 2h82q-13 17 -21 39q-7 21 -7 54zM393 201l-1 -3q0 -33 -7 -54q-8 -24 -19 -39h180v136q0 83 -37 120
t-99 37q-37 0 -64 -12t-44 -32q40 -17 65 -54q26 -38 26 -99zM224 292h-2q-36 0 -58 -24q-22 -23 -22 -69q0 -45 24 -73t58 -28q35 0 57 28q23 29 23 73q0 46 -22 69q-23 24 -58 24z" />
    <glyph glyph-name="uniFEEC" unicode="&#x647;" horiz-adv-x="800" arabic-form="medial" 
d="M800 103l3 3q6 0 14 -2q6 -2 6 -12v-78q0 -11 -21 -11h-35q-29 0 -60 17q-29 16 -43 45h-4q-1 -7 -8 -28q-5 -16 -20 -34h-631q-21 0 -21 11v78q0 10 6 12q8 2 14 2h82q-14 16 -21 39q-7 21 -7 54q0 36 11 66q10 28 29 50q18 21 42 33q26 13 51 17q29 58 84 92
q56 35 137 35q134 0 192 -63q59 -64 59 -190v-44q0 -27 9 -45q8 -17 23 -28q13 -10 33 -15q17 -4 42 -4h34zM395 201l-1 -3q0 -33 -7 -54q-8 -24 -19 -39h180v136q0 83 -37 120t-99 37q-37 0 -64 -12t-44 -32q40 -17 65 -54q26 -38 26 -99zM226 292h-2q-36 0 -58 -24
q-22 -23 -22 -69q0 -45 24 -73t58 -28q35 0 57 28q23 29 23 73q0 46 -22 69q-22 24 -58 24z" />
    <glyph glyph-name="uniFEED" unicode="&#x648;" horiz-adv-x="555" arabic-form="isolated" 
d="M198 -140l-5 -2q34 0 67 5q30 4 53 20q23 15 39 42q16 26 25 72h-100q-51 0 -96 17q-43 16 -75 48q-31 31 -49 75q-18 43 -18 96q0 47 11 96q11 47 37 82q27 36 72 57t113 21q66 0 114 -20t74 -58q27 -39 39 -94t12 -126q0 -116 -15 -197q-15 -80 -51 -133
q-36 -52 -93 -76t-141 -24q-16 0 -38 2q-14 1 -29 5q-14 4 -24 9v99q17 -8 34 -12q16 -4 44 -4zM156 232l2 -2q0 -68 29 -100q28 -31 90 -31h112q3 42 3 94q0 95 -25 144t-93 49q-34 0 -57 -12t-36 -33q-13 -20 -19 -49q-6 -28 -6 -60z" />
    <glyph glyph-name="uniFEEE" unicode="&#x648;" horiz-adv-x="635" arabic-form="final" 
d="M213 -238l1 -3q-16 0 -38 2q-14 1 -29 5q-13 4 -24 9v99q35 -16 77 -16q39 0 69 6q32 6 53 22q24 17 38 43q15 27 24 69h-103q-51 0 -96 17q-43 17 -75 48t-48 75q-17 45 -17 96q0 50 12 96t39 82t72 57t113 21q67 0 113 -20q45 -20 72 -58q28 -40 38 -94q11 -58 11 -126
q0 -50 -3 -90h126q6 0 14 -2q6 -2 6 -12v-78q0 -11 -21 -11h-136q-11 -66 -33 -111q-22 -44 -57 -73t-84 -41t-114 -12zM162 231l3 3q0 -62 26 -97q25 -34 90 -34h115q3 42 3 94q0 43 -5 83q-4 36 -18 60t-36 36t-57 12t-57 -13t-37 -36t-21 -51t-6 -57z" />
    <glyph glyph-name="uniFEEF" unicode="&#x649;" horiz-adv-x="798" arabic-form="isolated" 
d="M402 -179l-7 -4q44 0 90 8q43 7 76 24q33 16 52 43q20 28 20 63q0 19 -6 34t-24 27q-19 12 -49 24q-63 24 -79 29q-81 27 -124 77t-43 120q0 46 13 85q14 41 40 70q27 30 69 48t99 18q95 0 147 -54q53 -54 60 -154h-99q-9 49 -35 81t-72 32q-47 0 -75 -34t-28 -90
q0 -26 12 -45q13 -20 33 -35t53 -27q31 -12 72 -24q89 -27 123 -72q35 -46 35 -106q0 -52 -20 -97q-19 -44 -63 -75t-111 -48q-65 -16 -162 -16q-108 0 -177 31q-72 32 -113 85q-42 54 -60 126q-17 70 -19 155h103q0 -83 16 -138q17 -58 49 -93t84 -52q49 -16 120 -16z" />
    <glyph glyph-name="uniFEF0" unicode="&#x649;" horiz-adv-x="758" arabic-form="final" 
d="M401 -278l1 -6q-105 0 -174 28q-71 29 -114 79q-44 51 -63 123t-21 159h103q2 -79 19 -131q18 -54 53 -89t84 -51q48 -16 114 -16q48 0 90 6t72 21t48 39t18 59q0 6 -3 15t-9 18t-15 15t-19 6q-5 0 -25 2q-14 1 -31 6t-33 12q-19 9 -30 16v99q11 -7 33 -13q14 -4 44 -10
q23 -5 45 -6q30 -2 37 -2h136q6 0 14 -2q6 -1 6 -12v-78q0 -11 -21 -11h-70q14 -16 23 -39q9 -24 9 -44q0 -37 -21 -72q-22 -36 -61 -62q-40 -26 -100 -43q-58 -16 -139 -16z" />
    <glyph glyph-name="uniFEF1" unicode="&#x64a;" horiz-adv-x="798" arabic-form="isolated" 
d="M290 -352h114v-117h-114v117zM459 -352h114v-117h-114v117zM402 -179l-7 -4q44 0 90 8q43 7 76 24q33 16 52 43q20 28 20 63q0 19 -6 34t-24 27q-19 12 -49 24q-63 24 -79 29q-81 27 -124 77t-43 120q0 46 13 85q14 41 40 70q27 30 69 48t99 18q95 0 147 -54
q53 -54 60 -154h-99q-9 49 -35 81t-72 32q-47 0 -75 -34t-28 -90q0 -26 12 -45q13 -20 33 -35t53 -27q31 -12 72 -24q89 -27 123 -72q35 -46 35 -106q0 -52 -20 -97q-19 -44 -63 -75t-111 -48q-65 -16 -162 -16q-108 0 -177 31q-72 32 -113 85q-42 54 -60 126
q-17 70 -19 155h103q0 -83 16 -138q17 -58 49 -93t84 -52q49 -16 120 -16z" />
    <glyph glyph-name="uniFEF2" unicode="&#x64a;" horiz-adv-x="758" arabic-form="final" 
d="M267 -415h114v-117h-114v117zM436 -415h114v-117h-114v117zM401 -278l1 -6q-105 0 -174 28q-71 29 -114 79q-44 51 -63 123t-21 159h103q2 -79 19 -131q18 -54 53 -89t84 -51q48 -16 114 -16q48 0 90 6t72 21t48 39t18 59q0 6 -3 15t-9 18t-15 15t-19 6q-5 0 -25 2
q-14 1 -31 6t-33 12q-19 9 -30 16v99q11 -7 33 -13q14 -4 44 -10q23 -5 45 -6q30 -2 37 -2h136q6 0 14 -2q6 -1 6 -12v-78q0 -11 -21 -11h-70q14 -16 23 -39q9 -24 9 -44q0 -37 -21 -72q-22 -36 -61 -62q-40 -26 -100 -43q-58 -16 -139 -16z" />
    <glyph glyph-name="uniFEF3" unicode="&#x64a;" horiz-adv-x="359" arabic-form="initial" 
d="M7 -95h114v-117h-114v117zM176 -95h114v-117h-114v117zM185 103l1 323h114v-426h-299q-21 0 -21 11v78q0 11 6 12q8 2 14 2h185z" />
    <glyph glyph-name="uniFEF4" unicode="&#x64a;" horiz-adv-x="475" arabic-form="medial" 
d="M137 -95h114v-117h-114v117zM306 -95h114v-117h-114v117zM432 0l-2 -1q-22 0 -42 9q-21 10 -36 22q-18 15 -29 30q-12 16 -18 33q-25 -47 -71 -70q-44 -22 -89 -22h-144q-21 0 -21 11v78q0 10 6 12q8 2 14 2h145q10 0 22 3q13 3 23 12t18 24q7 14 7 38v245h114v-210
q0 -27 10 -47t26 -36q14 -14 33 -22t35 -8h43q6 0 14 -2q6 -1 6 -12v-78q0 -11 -21 -11h-43z" />
    <glyph glyph-name="uniFEF5" unicode="&#xfef5;" horiz-adv-x="650" arabic-form="isolated" 
d="M20 103h122v428h118v-428h212v612h118v-715h-570v103zM137 704v-3q19 0 32 -4l30 -9l30 -9q13 -4 30 -4q42 0 42 31h32q0 -35 -20 -57q-19 -21 -48 -21q-14 0 -31 5q-20 6 -30 10t-30 10q-17 5 -31 5q-42 0 -42 -32h-32q0 35 20 57q19 21 48 21z" />
    <glyph glyph-name="uniFEF6" unicode="&#xfef6;" horiz-adv-x="729" arabic-form="final" 
d="M472 181l-1 534h118v-514q0 -25 8 -44q7 -17 20 -30q12 -12 27 -18t30 -6h54q6 0 14 -2q6 -1 6 -12v-78q0 -11 -21 -11h-42q-38 0 -74 18t-56 44q-18 -21 -40 -33q-23 -12 -45 -18q-25 -7 -43 -8q-28 -2 -37 -2h-371v103h122v428h118v-428h143q10 0 22 3q13 3 23 12
q11 9 18 24q7 14 7 38zM139 710v-3q19 0 32 -4l30 -9l30 -9q13 -4 30 -4q42 0 42 31h32q0 -35 -20 -57q-19 -21 -48 -21q-14 0 -31 5q-20 6 -30 10t-30 10q-17 5 -31 5q-42 0 -42 -32h-32q0 35 20 57q19 21 48 21z" />
    <glyph glyph-name="uniFEF7" unicode="&#xfef7;" horiz-adv-x="650" arabic-form="isolated" 
d="M20 103h122v428h118v-428h212v612h118v-715h-570v103zM108 706l33 1v4q-7 7 -12 20q-4 11 -4 23q0 34 21 54q20 19 59 19q30 0 53 -16q25 -17 26 -54h-45q-2 15 -10 23q-9 9 -23 9t-23 -10q-9 -11 -9 -30q0 -20 10 -31q10 -12 28 -12h74v-41h-178v41z" />
    <glyph glyph-name="uniFEF8" unicode="&#xfef8;" horiz-adv-x="729" arabic-form="final" 
d="M472 181l-1 534h118v-514q0 -25 8 -44q7 -17 20 -30q12 -12 27 -18t30 -6h54q6 0 14 -2q6 -1 6 -12v-78q0 -11 -21 -11h-42q-38 0 -74 18t-56 44q-18 -21 -40 -33q-23 -12 -45 -18q-25 -7 -43 -8q-28 -2 -37 -2h-371v103h122v428h118v-428h143q10 0 22 3q13 3 23 12
q11 9 18 24q7 14 7 38zM111 719l33 1v4q-7 7 -12 20q-4 11 -4 23q0 35 21 54q20 19 59 19q30 0 53 -16q25 -17 26 -54h-45q-2 15 -10 23q-9 9 -23 9t-23 -10t-9 -30t10 -31q10 -12 28 -12h74v-41h-178v41z" />
    <glyph glyph-name="uniFEF9" unicode="&#xfef9;" horiz-adv-x="650" arabic-form="isolated" 
d="M20 103h122v428h118v-428h212v612h118v-715h-570v103zM108 -231l33 1v4q-7 7 -12 20q-4 11 -4 23q0 35 21 54q20 19 59 19q30 0 53 -16q25 -17 26 -54h-45q-2 15 -10 23q-9 9 -23 9t-23 -10t-9 -30t10 -31q10 -12 28 -12h74v-41h-178v41z" />
    <glyph glyph-name="uniFEFA" unicode="&#xfefa;" horiz-adv-x="729" arabic-form="final" 
d="M472 181l-1 534h118v-514q0 -25 8 -44q7 -17 20 -30q12 -12 27 -18t30 -6h54q6 0 14 -2q6 -1 6 -12v-78q0 -11 -21 -11h-42q-38 0 -74 18t-56 44q-18 -21 -40 -33q-23 -12 -45 -18q-25 -7 -43 -8q-28 -2 -37 -2h-371v103h122v428h118v-428h143q10 0 22 3q13 3 23 12
q11 9 18 24q7 14 7 38zM103 -217l33 1v4q-7 7 -12 20q-4 11 -4 23q0 35 21 54q20 19 59 19q30 0 53 -16q25 -17 26 -54h-45q-2 15 -10 23q-9 9 -23 9t-23 -10t-9 -30t10 -31q11 -12 28 -12h74v-41h-178v41z" />
    </font>
</defs>
</svg>
